<svg width="59" height="36" viewBox="0 0 59 36" fill="none" xmlns="http://www.w3.org/2000/svg">
<path d="M8.93498 0C6.83557 0 5.10562 1.72995 5.10562 3.82936V5.10562H3.82936C1.72995 5.10562 0 6.83557 0 8.93498V31.9097C0 34.0092 1.72995 35.7391 3.82936 35.7391H49.7789C51.8783 35.7391 53.6083 34.0092 53.6083 31.9097V30.6335H54.8845C56.9839 30.6335 58.7139 28.9035 58.7139 26.8041V3.82936C58.7139 1.72995 56.9839 0 54.8845 0H8.93498ZM8.93498 2.55298H54.8845C55.6137 2.55298 56.1608 3.10009 56.1608 3.82924V26.804C56.1608 27.5332 55.6137 28.0807 54.8845 28.0807H53.6083V8.93509C53.6083 6.83568 51.8783 5.10573 49.7789 5.10573H7.65849V3.82947C7.65849 3.1003 8.2056 2.55321 8.93475 2.55321L8.93498 2.55298ZM3.82936 7.65814H49.7789C50.5081 7.65814 51.0552 8.2057 51.0552 8.93486V31.9096C51.0552 32.6388 50.5081 33.1859 49.7789 33.1859H3.82936C3.10018 33.1859 2.55309 32.6388 2.55309 31.9096V8.93486C2.55309 8.20569 3.1002 7.65814 3.82936 7.65814ZM26.8041 8.93486C20.4748 8.93486 15.3167 14.093 15.3167 20.4223C15.3167 26.7516 20.4749 31.9096 26.8041 31.9096C33.133 31.9096 38.2915 26.7515 38.2915 20.4223C38.2915 14.0934 33.1334 8.93486 26.8041 8.93486ZM26.8041 11.4874C31.7535 11.4874 35.7385 15.4725 35.7385 20.4218C35.7385 25.3716 31.7534 29.3567 26.8041 29.3567C21.8543 29.3567 17.8693 25.3715 17.8693 20.4218C17.8693 15.4724 21.8544 11.4874 26.8041 11.4874ZM26.6643 12.7436C26.0068 12.8162 25.5131 13.3788 25.5274 14.0399V14.1997C24.8272 14.3569 24.2115 14.6266 23.7325 15.0571C22.9802 15.7338 22.6356 16.7007 22.6356 17.6101C22.6356 19.1918 23.7748 20.1604 24.65 20.741C25.5252 21.3215 26.3652 21.6184 26.3652 21.6184C26.3652 21.6184 26.9667 21.8352 27.5418 22.2167C28.1169 22.5986 28.4192 23.0287 28.4192 23.2139C28.4192 23.5081 28.3506 23.7009 28.1601 23.8722C27.9696 24.0436 27.5899 24.2511 26.8042 24.2511C25.2323 24.2511 24.7898 22.9748 24.7898 22.9748C24.5142 22.3249 23.7641 22.0213 23.1147 22.2968C22.4647 22.572 22.1611 23.3221 22.4362 23.972C22.4362 23.972 23.3729 26.0051 25.5275 26.6242V26.8036C25.523 27.1455 25.6552 27.4749 25.8952 27.718C26.1351 27.9615 26.4623 28.0981 26.8042 28.0981C27.1457 28.0981 27.4733 27.9615 27.7132 27.718C27.9527 27.4749 28.0854 27.1455 28.0805 26.8036V26.6643C28.7812 26.5013 29.3964 26.1973 29.8754 25.7668C30.6277 25.0902 30.9723 24.1233 30.9723 23.2138C30.9723 21.6322 29.8331 20.6635 28.9579 20.083C28.0827 19.5024 27.2427 19.2055 27.2427 19.2055C27.2427 19.2055 26.6412 18.9887 26.0661 18.6072C25.491 18.2253 25.1887 17.7952 25.1887 17.6101C25.1887 17.3158 25.2577 17.1231 25.4478 16.9517C25.6383 16.7807 26.018 16.5929 26.8042 16.5929C28.376 16.5929 28.8181 17.8491 28.8181 17.8491C29.0954 18.4959 29.8433 18.7964 30.4915 18.5222C31.1392 18.2475 31.4433 17.501 31.1717 16.8519C31.1717 16.8519 30.2351 14.8345 28.0805 14.2196V14.0398C28.0885 13.6725 27.9372 13.3191 27.6661 13.0711C27.395 12.8227 27.0299 12.7034 26.6644 12.7435L26.6643 12.7436ZM8.93525 18.5076C7.87799 18.5076 7.02057 19.3645 7.02057 20.4218C7.02057 21.4795 7.87795 22.3365 8.93525 22.3365C9.99251 22.3365 10.8499 21.4795 10.8499 20.4218C10.8499 19.3645 9.99255 18.5076 8.93525 18.5076ZM44.6738 18.5076C43.6165 18.5076 42.7596 19.3645 42.7596 20.4218C42.7596 21.4795 43.6165 22.3365 44.6738 22.3365C45.7315 22.3365 46.5885 21.4795 46.5885 20.4218C46.5885 19.3645 45.7315 18.5076 44.6738 18.5076Z" fill="black"/>
</svg>
