<svg width="502" height="753" viewBox="0 0 502 753" fill="none" xmlns="http://www.w3.org/2000/svg">
<path d="M232 209C232 181.386 254.386 159 282 159C309.614 159 332 181.386 332 209C332 236.614 309.614 259 282 259H232V209Z" fill="#2E2B26"/>
<path d="M332 0H496V115C496 160.287 459.287 197 414 197C368.713 197 332 160.287 332 115V0Z" fill="#72C78E"/>
<circle cx="417" cy="271" r="85" fill="#7D69FF"/>
<path d="M63 -1.48619e-05C63 22.5434 71.9553 44.1635 87.8959 60.1041C103.837 76.0447 125.457 85 148 85C170.543 85 192.163 76.0447 208.104 60.1041C224.045 44.1635 233 22.5434 233 1.52588e-05L148 -7.43094e-06L63 -1.48619e-05Z" fill="#F6A892"/>
<path d="M232 50C232 22.3858 254.386 0 282 0H332V109C332 136.614 309.614 159 282 159H232V50Z" fill="#F5BF57"/>
<path fill-rule="evenodd" clip-rule="evenodd" d="M394.96 300.431C395.743 300.161 396.159 299.307 395.889 298.524C395.618 297.741 394.764 297.325 393.981 297.596C393.456 297.777 392.953 297.963 392.464 298.144L392.463 298.144C391.221 298.603 390.073 299.027 388.912 299.248C387.594 299.498 386.389 299.154 385.175 298.415C383.923 297.652 382.777 296.544 381.597 295.388C381.005 294.809 380.055 294.819 379.475 295.411C378.896 296.003 378.906 296.953 379.498 297.532L379.53 297.563L379.53 297.563C380.659 298.669 382.034 300.015 383.615 300.977C385.249 301.972 387.209 302.625 389.472 302.195C390.899 301.924 392.407 301.366 393.722 300.88L393.722 300.88C394.159 300.718 394.576 300.564 394.96 300.431ZM382.012 316.508C382.748 316.129 383.039 315.225 382.661 314.488C382.282 313.751 381.378 313.461 380.641 313.839C378.427 314.976 376.174 315.713 373.857 315.673C372.172 315.644 370.778 314.91 369.386 313.731C368.685 313.136 368.01 312.45 367.308 311.709C367.145 311.537 366.979 311.361 366.811 311.182L366.81 311.181C366.274 310.61 365.714 310.014 365.149 309.46C364.557 308.881 363.607 308.891 363.028 309.483C362.448 310.075 362.458 311.025 363.05 311.604C363.566 312.109 364.065 312.64 364.591 313.2L364.591 313.2C364.767 313.388 364.946 313.578 365.13 313.772C365.845 314.528 366.613 315.313 367.447 316.019C369.124 317.441 371.166 318.627 373.806 318.673C376.797 318.724 379.553 317.77 382.012 316.508ZM361.604 299.138C364.343 299.615 367.09 296.977 367.74 293.246C368.389 289.515 366.695 286.104 363.956 285.627C361.217 285.15 358.47 287.788 357.821 291.519C357.171 295.25 358.865 298.662 361.604 299.138Z" fill="black"/>
<path d="M1.36506 569.957V567.273H25.0955V569.957H14.7244V600H11.7362V569.957H1.36506ZM34.0763 584.659V600H31.2319V567.273H34.0763V579.306H34.332C34.9073 578.038 35.7969 577.026 37.0007 576.27C38.2152 575.513 39.7493 575.135 41.603 575.135C43.2649 575.135 44.7244 575.476 45.9815 576.158C47.2386 576.839 48.2188 577.846 48.9219 579.178C49.625 580.51 49.9766 582.15 49.9766 584.1V600H47.1161V584.276C47.1161 582.251 46.5515 580.659 45.4222 579.498C44.3036 578.326 42.7908 577.74 40.8839 577.74C39.5735 577.74 38.407 578.017 37.3842 578.571C36.3615 579.125 35.5518 579.924 34.9553 580.968C34.3693 582.001 34.0763 583.232 34.0763 584.659ZM67.3909 600.511C65.1004 600.511 63.1189 599.979 61.4463 598.913C59.7737 597.837 58.4793 596.351 57.5631 594.455C56.6576 592.548 56.2048 590.353 56.2048 587.871C56.2048 585.4 56.6576 583.205 57.5631 581.287C58.4793 579.359 59.7417 577.852 61.3504 576.765C62.9697 575.668 64.8394 575.119 66.9594 575.119C68.2911 575.119 69.5748 575.364 70.8106 575.854C72.0464 576.333 73.1544 577.074 74.1345 578.075C75.1253 579.066 75.9083 580.318 76.4836 581.831C77.0589 583.333 77.3465 585.112 77.3465 587.168V588.574H58.1704V586.065H74.4381C74.4381 584.489 74.1185 583.072 73.4793 581.815C72.8508 580.547 71.9719 579.545 70.8426 578.81C69.724 578.075 68.4296 577.708 66.9594 577.708C65.404 577.708 64.0351 578.123 62.8525 578.954C61.67 579.785 60.7432 580.882 60.072 582.246C59.4115 583.61 59.0759 585.101 59.0653 586.721V588.223C59.0653 590.172 59.4008 591.877 60.072 593.336C60.7538 594.785 61.718 595.909 62.9644 596.708C64.2108 597.507 65.6863 597.907 67.3909 597.907C68.5521 597.907 69.5695 597.725 70.4431 597.363C71.3273 597.001 72.0677 596.516 72.6643 595.909C73.2716 595.291 73.7297 594.615 74.0386 593.88L76.7393 594.759C76.3664 595.792 75.7538 596.745 74.9015 597.619C74.0599 598.493 73.0052 599.196 71.7375 599.728C70.4804 600.25 69.0315 600.511 67.3909 600.511ZM106.37 575.455V577.931H94.3054V575.455H106.37ZM98.0767 600V571.859C98.0767 570.538 98.3803 569.425 98.9876 568.519C99.6055 567.614 100.41 566.926 101.401 566.458C102.391 565.989 103.441 565.755 104.549 565.755C105.294 565.755 105.912 565.819 106.402 565.946C106.903 566.064 107.297 566.181 107.585 566.298L106.754 568.791C106.541 568.727 106.28 568.652 105.971 568.567C105.662 568.482 105.273 568.439 104.804 568.439C103.569 568.439 102.615 568.786 101.944 569.478C101.273 570.17 100.937 571.161 100.937 572.45L100.921 600H98.0767ZM112.079 600V575.455H114.94V600H112.079ZM113.533 571.236C112.948 571.236 112.447 571.039 112.031 570.645C111.616 570.24 111.408 569.755 111.408 569.19C111.408 568.626 111.616 568.146 112.031 567.752C112.447 567.347 112.948 567.145 113.533 567.145C114.119 567.145 114.62 567.347 115.036 567.752C115.451 568.146 115.659 568.626 115.659 569.19C115.659 569.755 115.451 570.24 115.036 570.645C114.62 571.039 114.119 571.236 113.533 571.236ZM122.462 600V575.455H125.227V579.226H125.435C125.925 577.99 126.777 576.994 127.991 576.238C129.217 575.471 130.602 575.087 132.146 575.087C132.381 575.087 132.642 575.092 132.929 575.103C133.217 575.114 133.457 575.124 133.648 575.135V578.027C133.521 578.006 133.297 577.974 132.977 577.931C132.658 577.889 132.311 577.868 131.939 577.868C130.66 577.868 129.52 578.139 128.519 578.683C127.528 579.215 126.745 579.956 126.17 580.904C125.594 581.852 125.307 582.933 125.307 584.148V600H122.462ZM154.994 580.84L152.389 581.575C152.133 580.84 151.771 580.174 151.302 579.577C150.834 578.981 150.221 578.507 149.465 578.155C148.719 577.804 147.792 577.628 146.684 577.628C145.022 577.628 143.659 578.022 142.593 578.81C141.528 579.599 140.995 580.616 140.995 581.863C140.995 582.917 141.358 583.775 142.082 584.435C142.817 585.085 143.946 585.602 145.47 585.985L149.177 586.896C151.233 587.397 152.773 588.191 153.795 589.277C154.829 590.364 155.345 591.728 155.345 593.368C155.345 594.753 154.962 595.984 154.195 597.06C153.428 598.136 152.357 598.983 150.983 599.6C149.619 600.208 148.037 600.511 146.237 600.511C143.84 600.511 141.864 599.973 140.308 598.897C138.753 597.811 137.757 596.245 137.32 594.199L140.052 593.528C140.404 594.988 141.091 596.09 142.114 596.836C143.147 597.582 144.506 597.955 146.189 597.955C148.074 597.955 149.582 597.534 150.711 596.692C151.84 595.84 152.405 594.775 152.405 593.496C152.405 592.505 152.075 591.674 151.414 591.003C150.754 590.321 149.752 589.821 148.41 589.501L144.399 588.542C142.268 588.031 140.692 587.221 139.669 586.113C138.646 585.005 138.135 583.631 138.135 581.99C138.135 580.637 138.502 579.45 139.237 578.427C139.973 577.393 140.985 576.584 142.274 575.998C143.563 575.412 145.033 575.119 146.684 575.119C148.932 575.119 150.727 575.63 152.07 576.653C153.422 577.665 154.397 579.061 154.994 580.84ZM171.242 575.455V577.931H159.528V575.455H171.242ZM163.188 569.574H166.048V593.592C166.048 594.615 166.224 595.419 166.575 596.005C166.927 596.58 167.385 596.99 167.95 597.235C168.514 597.47 169.116 597.587 169.756 597.587C170.128 597.587 170.448 597.566 170.714 597.523C170.981 597.47 171.215 597.417 171.417 597.363L172.025 599.936C171.748 600.043 171.407 600.138 171.002 600.224C170.597 600.32 170.096 600.368 169.5 600.368C168.456 600.368 167.449 600.138 166.48 599.68C165.521 599.222 164.732 598.54 164.115 597.635C163.497 596.729 163.188 595.605 163.188 594.263V569.574ZM190.358 609.205V575.455H193.122V580.137H193.458C193.799 579.402 194.268 578.651 194.864 577.884C195.461 577.106 196.249 576.451 197.229 575.918C198.22 575.385 199.467 575.119 200.969 575.119C202.993 575.119 204.761 575.652 206.274 576.717C207.797 577.772 208.98 579.252 209.822 581.159C210.674 583.056 211.1 585.266 211.1 587.791C211.1 590.327 210.674 592.548 209.822 594.455C208.98 596.362 207.797 597.848 206.274 598.913C204.761 599.979 203.003 600.511 201.001 600.511C199.52 600.511 198.279 600.245 197.277 599.712C196.286 599.18 195.482 598.525 194.864 597.747C194.257 596.958 193.788 596.191 193.458 595.446H193.202V609.205H190.358ZM193.17 587.743C193.17 589.725 193.463 591.483 194.049 593.017C194.646 594.54 195.498 595.739 196.606 596.612C197.725 597.475 199.078 597.907 200.665 597.907C202.295 597.907 203.669 597.459 204.788 596.564C205.917 595.659 206.775 594.439 207.361 592.905C207.957 591.371 208.256 589.65 208.256 587.743C208.256 585.858 207.963 584.158 207.377 582.646C206.801 581.133 205.949 579.934 204.82 579.05C203.691 578.155 202.306 577.708 200.665 577.708C199.067 577.708 197.709 578.139 196.59 579.002C195.472 579.854 194.619 581.037 194.033 582.55C193.458 584.052 193.17 585.783 193.17 587.743ZM217.34 600V575.455H220.105V579.226H220.313C220.803 577.99 221.655 576.994 222.869 576.238C224.095 575.471 225.479 575.087 227.024 575.087C227.259 575.087 227.52 575.092 227.807 575.103C228.095 575.114 228.335 575.124 228.526 575.135V578.027C228.399 578.006 228.175 577.974 227.855 577.931C227.536 577.889 227.189 577.868 226.816 577.868C225.538 577.868 224.398 578.139 223.397 578.683C222.406 579.215 221.623 579.956 221.048 580.904C220.472 581.852 220.185 582.933 220.185 584.148V600H217.34ZM242.173 600.511C240.053 600.511 238.178 599.973 236.548 598.897C234.929 597.821 233.661 596.335 232.745 594.439C231.829 592.532 231.371 590.332 231.371 587.839C231.371 585.325 231.829 583.114 232.745 581.207C233.661 579.29 234.929 577.798 236.548 576.733C238.178 575.657 240.053 575.119 242.173 575.119C244.293 575.119 246.163 575.657 247.782 576.733C249.402 577.809 250.669 579.3 251.586 581.207C252.513 583.114 252.976 585.325 252.976 587.839C252.976 590.332 252.518 592.532 251.602 594.439C250.685 596.335 249.412 597.821 247.782 598.897C246.163 599.973 244.293 600.511 242.173 600.511ZM242.173 597.907C243.878 597.907 245.321 597.449 246.504 596.532C247.687 595.616 248.581 594.396 249.189 592.873C249.807 591.349 250.116 589.672 250.116 587.839C250.116 586.007 249.807 584.324 249.189 582.789C248.581 581.255 247.687 580.025 246.504 579.098C245.321 578.171 243.878 577.708 242.173 577.708C240.479 577.708 239.036 578.171 237.843 579.098C236.66 580.025 235.76 581.255 235.142 582.789C234.535 584.324 234.231 586.007 234.231 587.839C234.231 589.672 234.535 591.349 235.142 592.873C235.76 594.396 236.66 595.616 237.843 596.532C239.025 597.449 240.469 597.907 242.173 597.907ZM269.32 575.455V577.931H257.255V575.455H269.32ZM261.026 600V571.859C261.026 570.538 261.33 569.425 261.937 568.519C262.555 567.614 263.359 566.926 264.35 566.458C265.341 565.989 266.39 565.755 267.498 565.755C268.244 565.755 268.862 565.819 269.352 565.946C269.852 566.064 270.246 566.181 270.534 566.298L269.703 568.791C269.49 568.727 269.229 568.652 268.92 568.567C268.611 568.482 268.222 568.439 267.754 568.439C266.518 568.439 265.564 568.786 264.893 569.478C264.222 570.17 263.886 571.161 263.886 572.45L263.87 600H261.026ZM283.909 600.511C281.619 600.511 279.637 599.979 277.965 598.913C276.292 597.837 274.998 596.351 274.082 594.455C273.176 592.548 272.723 590.353 272.723 587.871C272.723 585.4 273.176 583.205 274.082 581.287C274.998 579.359 276.26 577.852 277.869 576.765C279.488 575.668 281.358 575.119 283.478 575.119C284.81 575.119 286.093 575.364 287.329 575.854C288.565 576.333 289.673 577.074 290.653 578.075C291.644 579.066 292.427 580.318 293.002 581.831C293.577 583.333 293.865 585.112 293.865 587.168V588.574H274.689V586.065H290.957C290.957 584.489 290.637 583.072 289.998 581.815C289.369 580.547 288.49 579.545 287.361 578.81C286.243 578.075 284.948 577.708 283.478 577.708C281.923 577.708 280.554 578.123 279.371 578.954C278.189 579.785 277.262 580.882 276.591 582.246C275.93 583.61 275.594 585.101 275.584 586.721V588.223C275.584 590.172 275.919 591.877 276.591 593.336C277.272 594.785 278.237 595.909 279.483 596.708C280.729 597.507 282.205 597.907 283.909 597.907C285.071 597.907 286.088 597.725 286.962 597.363C287.846 597.001 288.586 596.516 289.183 595.909C289.79 595.291 290.248 594.615 290.557 593.88L293.258 594.759C292.885 595.792 292.272 596.745 291.42 597.619C290.578 598.493 289.524 599.196 288.256 599.728C286.999 600.25 285.55 600.511 283.909 600.511ZM316.625 580.84L314.02 581.575C313.764 580.84 313.402 580.174 312.933 579.577C312.465 578.981 311.852 578.507 311.096 578.155C310.35 577.804 309.423 577.628 308.315 577.628C306.653 577.628 305.29 578.022 304.224 578.81C303.159 579.599 302.626 580.616 302.626 581.863C302.626 582.917 302.988 583.775 303.713 584.435C304.448 585.085 305.577 585.602 307.101 585.985L310.808 586.896C312.864 587.397 314.403 588.191 315.426 589.277C316.46 590.364 316.976 591.728 316.976 593.368C316.976 594.753 316.593 595.984 315.826 597.06C315.059 598.136 313.988 598.983 312.614 599.6C311.25 600.208 309.668 600.511 307.868 600.511C305.471 600.511 303.494 599.973 301.939 598.897C300.384 597.811 299.388 596.245 298.951 594.199L301.683 593.528C302.035 594.988 302.722 596.09 303.745 596.836C304.778 597.582 306.136 597.955 307.82 597.955C309.705 597.955 311.213 597.534 312.342 596.692C313.471 595.84 314.036 594.775 314.036 593.496C314.036 592.505 313.706 591.674 313.045 591.003C312.385 590.321 311.383 589.821 310.041 589.501L306.03 588.542C303.899 588.031 302.323 587.221 301.3 586.113C300.277 585.005 299.766 583.631 299.766 581.99C299.766 580.637 300.133 579.45 300.868 578.427C301.603 577.393 302.616 576.584 303.905 575.998C305.194 575.412 306.664 575.119 308.315 575.119C310.563 575.119 312.358 575.63 313.7 576.653C315.053 577.665 316.028 579.061 316.625 580.84ZM339.696 580.84L337.091 581.575C336.836 580.84 336.473 580.174 336.005 579.577C335.536 578.981 334.923 578.507 334.167 578.155C333.421 577.804 332.494 577.628 331.386 577.628C329.724 577.628 328.361 578.022 327.295 578.81C326.23 579.599 325.697 580.616 325.697 581.863C325.697 582.917 326.06 583.775 326.784 584.435C327.519 585.085 328.648 585.602 330.172 585.985L333.879 586.896C335.935 587.397 337.475 588.191 338.498 589.277C339.531 590.364 340.048 591.728 340.048 593.368C340.048 594.753 339.664 595.984 338.897 597.06C338.13 598.136 337.059 598.983 335.685 599.6C334.321 600.208 332.739 600.511 330.939 600.511C328.542 600.511 326.566 599.973 325.01 598.897C323.455 597.811 322.459 596.245 322.022 594.199L324.755 593.528C325.106 594.988 325.793 596.09 326.816 596.836C327.849 597.582 329.208 597.955 330.891 597.955C332.777 597.955 334.284 597.534 335.413 596.692C336.543 595.84 337.107 594.775 337.107 593.496C337.107 592.505 336.777 591.674 336.116 591.003C335.456 590.321 334.455 589.821 333.112 589.501L329.101 588.542C326.971 588.031 325.394 587.221 324.371 586.113C323.348 585.005 322.837 583.631 322.837 581.99C322.837 580.637 323.205 579.45 323.94 578.427C324.675 577.393 325.687 576.584 326.976 575.998C328.265 575.412 329.735 575.119 331.386 575.119C333.634 575.119 335.429 575.63 336.772 576.653C338.125 577.665 339.099 579.061 339.696 580.84ZM346.308 600V575.455H349.168V600H346.308ZM347.762 571.236C347.176 571.236 346.675 571.039 346.26 570.645C345.844 570.24 345.637 569.755 345.637 569.19C345.637 568.626 345.844 568.146 346.26 567.752C346.675 567.347 347.176 567.145 347.762 567.145C348.348 567.145 348.849 567.347 349.264 567.752C349.68 568.146 349.887 568.626 349.887 569.19C349.887 569.755 349.68 570.24 349.264 570.645C348.849 571.039 348.348 571.236 347.762 571.236ZM366.231 600.511C364.111 600.511 362.236 599.973 360.606 598.897C358.987 597.821 357.719 596.335 356.803 594.439C355.887 592.532 355.428 590.332 355.428 587.839C355.428 585.325 355.887 583.114 356.803 581.207C357.719 579.29 358.987 577.798 360.606 576.733C362.236 575.657 364.111 575.119 366.231 575.119C368.351 575.119 370.221 575.657 371.84 576.733C373.459 577.809 374.727 579.3 375.643 581.207C376.57 583.114 377.034 585.325 377.034 587.839C377.034 590.332 376.575 592.532 375.659 594.439C374.743 596.335 373.47 597.821 371.84 598.897C370.221 599.973 368.351 600.511 366.231 600.511ZM366.231 597.907C367.936 597.907 369.379 597.449 370.562 596.532C371.744 595.616 372.639 594.396 373.246 592.873C373.864 591.349 374.173 589.672 374.173 587.839C374.173 586.007 373.864 584.324 373.246 582.789C372.639 581.255 371.744 580.025 370.562 579.098C369.379 578.171 367.936 577.708 366.231 577.708C364.537 577.708 363.094 578.171 361.9 579.098C360.718 580.025 359.818 581.255 359.2 582.789C358.593 584.324 358.289 586.007 358.289 587.839C358.289 589.672 358.593 591.349 359.2 592.873C359.818 594.396 360.718 595.616 361.9 596.532C363.083 597.449 364.526 597.907 366.231 597.907ZM386.122 584.659V600H383.278V575.455H386.042V579.306H386.298C386.873 578.049 387.768 577.042 388.983 576.286C390.208 575.518 391.721 575.135 393.521 575.135C395.172 575.135 396.621 575.481 397.868 576.174C399.125 576.855 400.1 577.862 400.792 579.194C401.495 580.526 401.847 582.161 401.847 584.1V600H399.002V584.276C399.002 582.262 398.438 580.669 397.308 579.498C396.19 578.326 394.688 577.74 392.802 577.74C391.513 577.74 390.368 578.017 389.366 578.571C388.365 579.125 387.571 579.924 386.985 580.968C386.41 582.001 386.122 583.232 386.122 584.659ZM416.193 600.559C414.712 600.559 413.359 600.272 412.134 599.696C410.909 599.11 409.934 598.269 409.21 597.172C408.485 596.064 408.123 594.721 408.123 593.145C408.123 591.93 408.352 590.907 408.81 590.076C409.268 589.245 409.918 588.564 410.76 588.031C411.601 587.498 412.597 587.077 413.748 586.768C414.898 586.46 416.166 586.22 417.551 586.049C418.925 585.879 420.087 585.73 421.035 585.602C421.994 585.474 422.723 585.272 423.224 584.995C423.725 584.718 423.975 584.27 423.975 583.652V583.077C423.975 581.404 423.474 580.089 422.473 579.13C421.482 578.161 420.055 577.676 418.19 577.676C416.422 577.676 414.978 578.065 413.86 578.842C412.752 579.62 411.974 580.536 411.527 581.591L408.826 580.616C409.38 579.274 410.147 578.203 411.127 577.404C412.107 576.594 413.205 576.014 414.419 575.662C415.634 575.3 416.864 575.119 418.11 575.119C419.048 575.119 420.023 575.241 421.035 575.487C422.058 575.732 423.006 576.158 423.879 576.765C424.753 577.362 425.461 578.198 426.005 579.274C426.548 580.339 426.82 581.692 426.82 583.333V600H423.975V596.117H423.799C423.458 596.841 422.952 597.544 422.281 598.226C421.61 598.908 420.768 599.467 419.756 599.904C418.744 600.341 417.556 600.559 416.193 600.559ZM416.576 597.955C418.089 597.955 419.4 597.619 420.507 596.948C421.615 596.277 422.468 595.387 423.064 594.279C423.672 593.161 423.975 591.93 423.975 590.588V587.04C423.762 587.243 423.405 587.424 422.904 587.583C422.414 587.743 421.844 587.887 421.195 588.015C420.555 588.132 419.916 588.233 419.277 588.319C418.638 588.404 418.062 588.478 417.551 588.542C416.166 588.713 414.984 588.979 414.004 589.341C413.023 589.703 412.272 590.204 411.75 590.843C411.228 591.472 410.967 592.282 410.967 593.272C410.967 594.764 411.5 595.92 412.565 596.74C413.631 597.55 414.968 597.955 416.576 597.955ZM437.231 567.273V600H434.386V567.273H437.231ZM5.59979 622.659V638H2.75533V613.455H5.51989V617.306H5.77557C6.35085 616.049 7.24574 615.042 8.46023 614.286C9.68537 613.518 11.1982 613.135 12.9986 613.135C14.6499 613.135 16.0987 613.481 17.3452 614.174C18.6023 614.855 19.5771 615.862 20.2695 617.194C20.9727 618.526 21.3242 620.161 21.3242 622.1V638H18.4798V622.276C18.4798 620.262 17.9151 618.669 16.7859 617.498C15.6673 616.326 14.1651 615.74 12.2795 615.74C10.9904 615.74 9.84517 616.017 8.84375 616.571C7.84233 617.125 7.04865 617.924 6.46271 618.968C5.88743 620.001 5.59979 621.232 5.59979 622.659ZM38.7385 638.511C36.4481 638.511 34.4665 637.979 32.7939 636.913C31.1214 635.837 29.827 634.351 28.9108 632.455C28.0052 630.548 27.5525 628.353 27.5525 625.871C27.5525 623.4 28.0052 621.205 28.9108 619.287C29.827 617.359 31.0894 615.852 32.6981 614.765C34.3174 613.668 36.1871 613.119 38.3071 613.119C39.6388 613.119 40.9225 613.364 42.1583 613.854C43.3941 614.333 44.502 615.074 45.4822 616.075C46.4729 617.066 47.2559 618.318 47.8312 619.831C48.4065 621.333 48.6942 623.112 48.6942 625.168V626.574H29.518V624.065H45.7858C45.7858 622.489 45.4662 621.072 44.827 619.815C44.1984 618.547 43.3195 617.545 42.1903 616.81C41.0716 616.075 39.7773 615.708 38.3071 615.708C36.7517 615.708 35.3827 616.123 34.2002 616.954C33.0177 617.785 32.0908 618.882 31.4197 620.246C30.7591 621.61 30.4236 623.101 30.4129 624.721V626.223C30.4129 628.172 30.7485 629.877 31.4197 631.336C32.1015 632.785 33.0656 633.909 34.3121 634.708C35.5585 635.507 37.034 635.907 38.7385 635.907C39.8998 635.907 40.9172 635.725 41.7908 635.363C42.675 635.001 43.4154 634.516 44.012 633.909C44.6192 633.291 45.0773 632.615 45.3863 631.88L48.0869 632.759C47.714 633.792 47.1015 634.745 46.2492 635.619C45.4076 636.493 44.3529 637.196 43.0851 637.728C41.828 638.25 40.3792 638.511 38.7385 638.511ZM64.6303 613.455V615.931H52.9169V613.455H64.6303ZM56.5763 607.574H59.4368V631.592C59.4368 632.615 59.6126 633.419 59.9641 634.005C60.3157 634.58 60.7738 634.99 61.3384 635.235C61.9031 635.47 62.505 635.587 63.1442 635.587C63.517 635.587 63.8366 635.566 64.103 635.523C64.3693 635.47 64.6037 635.417 64.8061 635.363L65.4134 637.936C65.1364 638.043 64.7955 638.138 64.3906 638.224C63.9858 638.32 63.4851 638.368 62.8885 638.368C61.8445 638.368 60.8377 638.138 59.8683 637.68C58.9094 637.222 58.1211 636.54 57.5032 635.635C56.8853 634.729 56.5763 633.605 56.5763 632.263V607.574ZM76.5395 638L69.1247 613.455H72.129L77.9458 633.701H78.1535L83.9543 613.455H86.9745L92.7274 633.653H92.9511L98.7678 613.455H101.772L94.3573 638H91.417L85.6002 617.881H85.2966L79.4798 638H76.5395ZM116.006 638.511C113.886 638.511 112.011 637.973 110.381 636.897C108.762 635.821 107.494 634.335 106.578 632.439C105.662 630.532 105.204 628.332 105.204 625.839C105.204 623.325 105.662 621.114 106.578 619.207C107.494 617.29 108.762 615.798 110.381 614.733C112.011 613.657 113.886 613.119 116.006 613.119C118.126 613.119 119.996 613.657 121.615 614.733C123.235 615.809 124.502 617.3 125.419 619.207C126.346 621.114 126.809 623.325 126.809 625.839C126.809 628.332 126.351 630.532 125.435 632.439C124.518 634.335 123.245 635.821 121.615 636.897C119.996 637.973 118.126 638.511 116.006 638.511ZM116.006 635.907C117.711 635.907 119.154 635.449 120.337 634.532C121.52 633.616 122.414 632.396 123.022 630.873C123.64 629.349 123.949 627.672 123.949 625.839C123.949 624.007 123.64 622.324 123.022 620.789C122.414 619.255 121.52 618.025 120.337 617.098C119.154 616.171 117.711 615.708 116.006 615.708C114.313 615.708 112.869 616.171 111.676 617.098C110.493 618.025 109.593 619.255 108.975 620.789C108.368 622.324 108.064 624.007 108.064 625.839C108.064 627.672 108.368 629.349 108.975 630.873C109.593 632.396 110.493 633.616 111.676 634.532C112.858 635.449 114.302 635.907 116.006 635.907ZM133.053 638V613.455H135.818V617.226H136.025C136.516 615.99 137.368 614.994 138.582 614.238C139.807 613.471 141.192 613.087 142.737 613.087C142.972 613.087 143.233 613.092 143.52 613.103C143.808 613.114 144.047 613.124 144.239 613.135V616.027C144.111 616.006 143.888 615.974 143.568 615.931C143.248 615.889 142.902 615.868 142.529 615.868C141.251 615.868 140.111 616.139 139.11 616.683C138.119 617.215 137.336 617.956 136.761 618.904C136.185 619.852 135.898 620.933 135.898 622.148V638H133.053ZM151.682 628.732L151.65 625.008H152.289L163.795 613.455H167.39L156.029 624.832L155.773 624.88L151.682 628.732ZM149.093 638V605.273H151.938V638H149.093ZM164.386 638L154.415 625.392L156.46 623.426L168.03 638H164.386ZM185.424 638V613.455H188.284V638H185.424ZM186.878 609.236C186.292 609.236 185.792 609.039 185.376 608.645C184.961 608.24 184.753 607.755 184.753 607.19C184.753 606.626 184.961 606.146 185.376 605.752C185.792 605.347 186.292 605.145 186.878 605.145C187.464 605.145 187.965 605.347 188.38 605.752C188.796 606.146 189.004 606.626 189.004 607.19C189.004 607.755 188.796 608.24 188.38 608.645C187.965 609.039 187.464 609.236 186.878 609.236ZM198.652 622.659V638H195.807V613.455H198.572V617.306H198.827C199.403 616.049 200.297 615.042 201.512 614.286C202.737 613.518 204.25 613.135 206.05 613.135C207.702 613.135 209.15 613.481 210.397 614.174C211.654 614.855 212.629 615.862 213.321 617.194C214.024 618.526 214.376 620.161 214.376 622.1V638H211.532V622.276C211.532 620.262 210.967 618.669 209.838 617.498C208.719 616.326 207.217 615.74 205.331 615.74C204.042 615.74 202.897 616.017 201.896 616.571C200.894 617.125 200.1 617.924 199.514 618.968C198.939 620.001 198.652 621.232 198.652 622.659ZM244.191 613.455V615.931H232.477V613.455H244.191ZM236.137 607.574H238.997V631.592C238.997 632.615 239.173 633.419 239.525 634.005C239.876 634.58 240.334 634.99 240.899 635.235C241.464 635.47 242.066 635.587 242.705 635.587C243.078 635.587 243.397 635.566 243.664 635.523C243.93 635.47 244.164 635.417 244.367 635.363L244.974 637.936C244.697 638.043 244.356 638.138 243.951 638.224C243.546 638.32 243.046 638.368 242.449 638.368C241.405 638.368 240.398 638.138 239.429 637.68C238.47 637.222 237.682 636.54 237.064 635.635C236.446 634.729 236.137 633.605 236.137 632.263V607.574ZM254.023 622.659V638H251.178V605.273H254.023V617.306H254.278C254.854 616.038 255.743 615.026 256.947 614.27C258.161 613.513 259.696 613.135 261.549 613.135C263.211 613.135 264.671 613.476 265.928 614.158C267.185 614.839 268.165 615.846 268.868 617.178C269.571 618.51 269.923 620.15 269.923 622.1V638H267.062V622.276C267.062 620.251 266.498 618.659 265.369 617.498C264.25 616.326 262.737 615.74 260.83 615.74C259.52 615.74 258.353 616.017 257.331 616.571C256.308 617.125 255.498 617.924 254.902 618.968C254.316 620.001 254.023 621.232 254.023 622.659ZM287.337 638.511C285.047 638.511 283.065 637.979 281.393 636.913C279.72 635.837 278.426 634.351 277.509 632.455C276.604 630.548 276.151 628.353 276.151 625.871C276.151 623.4 276.604 621.205 277.509 619.287C278.426 617.359 279.688 615.852 281.297 614.765C282.916 613.668 284.786 613.119 286.906 613.119C288.237 613.119 289.521 613.364 290.757 613.854C291.993 614.333 293.101 615.074 294.081 616.075C295.072 617.066 295.855 618.318 296.43 619.831C297.005 621.333 297.293 623.112 297.293 625.168V626.574H278.117V624.065H294.384C294.384 622.489 294.065 621.072 293.426 619.815C292.797 618.547 291.918 617.545 290.789 616.81C289.67 616.075 288.376 615.708 286.906 615.708C285.35 615.708 283.981 616.123 282.799 616.954C281.616 617.785 280.689 618.882 280.018 620.246C279.358 621.61 279.022 623.101 279.012 624.721V626.223C279.012 628.172 279.347 629.877 280.018 631.336C280.7 632.785 281.664 633.909 282.911 634.708C284.157 635.507 285.633 635.907 287.337 635.907C288.498 635.907 289.516 635.725 290.389 635.363C291.274 635.001 292.014 634.516 292.611 633.909C293.218 633.291 293.676 632.615 293.985 631.88L296.686 632.759C296.313 633.792 295.7 634.745 294.848 635.619C294.006 636.493 292.952 637.196 291.684 637.728C290.427 638.25 288.978 638.511 287.337 638.511ZM338.621 605.273H341.61V626.942C341.61 629.168 341.088 631.161 340.044 632.918C339 634.665 337.545 636.045 335.681 637.057C333.827 638.059 331.67 638.559 329.209 638.559C326.759 638.559 324.601 638.053 322.737 637.041C320.873 636.029 319.419 634.65 318.375 632.902C317.331 631.155 316.809 629.168 316.809 626.942V605.273H319.797V626.734C319.797 628.471 320.186 630.021 320.963 631.384C321.741 632.737 322.833 633.803 324.239 634.58C325.656 635.358 327.313 635.747 329.209 635.747C331.105 635.747 332.762 635.358 334.179 634.58C335.596 633.803 336.688 632.737 337.455 631.384C338.233 630.021 338.621 628.471 338.621 626.734V605.273ZM350.435 638.24C349.806 638.24 349.263 638.016 348.805 637.569C348.357 637.11 348.134 636.567 348.134 635.939C348.134 635.299 348.357 634.756 348.805 634.309C349.263 633.861 349.806 633.637 350.435 633.637C351.074 633.637 351.617 633.861 352.065 634.309C352.512 634.756 352.736 635.299 352.736 635.939C352.736 636.354 352.629 636.738 352.416 637.089C352.214 637.441 351.937 637.723 351.585 637.936C351.244 638.138 350.861 638.24 350.435 638.24ZM378.612 613.455C378.43 611.633 377.626 610.184 376.199 609.108C374.771 608.032 372.976 607.494 370.813 607.494C369.29 607.494 367.948 607.755 366.786 608.277C365.636 608.799 364.73 609.523 364.07 610.45C363.42 611.366 363.095 612.411 363.095 613.582C363.095 614.445 363.281 615.202 363.654 615.852C364.027 616.501 364.528 617.061 365.156 617.529C365.796 617.988 366.499 618.382 367.266 618.712C368.043 619.042 368.826 619.319 369.615 619.543L373.066 620.534C374.111 620.821 375.155 621.189 376.199 621.636C377.243 622.084 378.196 622.648 379.059 623.33C379.933 624.001 380.63 624.827 381.152 625.807C381.685 626.777 381.951 627.943 381.951 629.307C381.951 631.054 381.499 632.625 380.593 634.021C379.688 635.417 378.388 636.525 376.694 637.345C375 638.154 372.971 638.559 370.606 638.559C368.379 638.559 366.445 638.192 364.805 637.457C363.164 636.711 361.875 635.683 360.938 634.373C360 633.062 359.473 631.544 359.356 629.818H362.424C362.53 631.107 362.956 632.199 363.702 633.094C364.448 633.989 365.417 634.671 366.611 635.14C367.804 635.598 369.135 635.827 370.606 635.827C372.236 635.827 373.684 635.555 374.952 635.012C376.231 634.458 377.232 633.691 377.956 632.711C378.691 631.72 379.059 630.569 379.059 629.259C379.059 628.151 378.771 627.224 378.196 626.478C377.621 625.722 376.816 625.088 375.783 624.577C374.76 624.065 373.573 623.613 372.22 623.218L368.304 622.068C365.737 621.301 363.745 620.241 362.328 618.888C360.911 617.535 360.203 615.809 360.203 613.71C360.203 611.952 360.671 610.408 361.609 609.076C362.557 607.734 363.835 606.69 365.444 605.944C367.063 605.187 368.88 604.809 370.893 604.809C372.928 604.809 374.728 605.182 376.294 605.928C377.861 606.674 379.102 607.702 380.018 609.012C380.945 610.312 381.44 611.793 381.504 613.455H378.612ZM390.82 638.24C390.192 638.24 389.649 638.016 389.19 637.569C388.743 637.11 388.519 636.567 388.519 635.939C388.519 635.299 388.743 634.756 389.19 634.309C389.649 633.861 390.192 633.637 390.82 633.637C391.46 633.637 392.003 633.861 392.45 634.309C392.898 634.756 393.122 635.299 393.122 635.939C393.122 636.354 393.015 636.738 392.802 637.089C392.6 637.441 392.323 637.723 391.971 637.936C391.63 638.138 391.247 638.24 390.82 638.24ZM422.96 613.455V615.931H411.247V613.455H422.96ZM414.906 607.574H417.767V631.592C417.767 632.615 417.943 633.419 418.294 634.005C418.646 634.58 419.104 634.99 419.669 635.235C420.233 635.47 420.835 635.587 421.474 635.587C421.847 635.587 422.167 635.566 422.433 635.523C422.699 635.47 422.934 635.417 423.136 635.363L423.743 637.936C423.466 638.043 423.126 638.138 422.721 638.224C422.316 638.32 421.815 638.368 421.219 638.368C420.175 638.368 419.168 638.138 418.198 637.68C417.24 637.222 416.451 636.54 415.833 635.635C415.215 634.729 414.906 633.605 414.906 632.263V607.574ZM432.792 622.659V638H429.948V605.273H432.792V617.306H433.048C433.623 616.038 434.513 615.026 435.717 614.27C436.931 613.513 438.465 613.135 440.319 613.135C441.981 613.135 443.44 613.476 444.697 614.158C445.954 614.839 446.935 615.846 447.638 617.178C448.341 618.51 448.692 620.15 448.692 622.1V638H445.832V622.276C445.832 620.251 445.267 618.659 444.138 617.498C443.019 616.326 441.507 615.74 439.6 615.74C438.289 615.74 437.123 616.017 436.1 616.571C435.077 617.125 434.268 617.924 433.671 618.968C433.085 620.001 432.792 621.232 432.792 622.659ZM463.039 638.559C461.558 638.559 460.205 638.272 458.98 637.696C457.754 637.11 456.78 636.269 456.055 635.172C455.331 634.064 454.969 632.721 454.969 631.145C454.969 629.93 455.198 628.907 455.656 628.076C456.114 627.245 456.764 626.564 457.605 626.031C458.447 625.498 459.443 625.077 460.594 624.768C461.744 624.46 463.012 624.22 464.397 624.049C465.771 623.879 466.932 623.73 467.881 623.602C468.839 623.474 469.569 623.272 470.07 622.995C470.57 622.718 470.821 622.27 470.821 621.652V621.077C470.821 619.404 470.32 618.089 469.319 617.13C468.328 616.161 466.9 615.676 465.036 615.676C463.268 615.676 461.824 616.065 460.705 616.842C459.597 617.62 458.82 618.536 458.372 619.591L455.672 618.616C456.226 617.274 456.993 616.203 457.973 615.404C458.953 614.594 460.05 614.014 461.265 613.662C462.479 613.3 463.71 613.119 464.956 613.119C465.894 613.119 466.868 613.241 467.881 613.487C468.903 613.732 469.851 614.158 470.725 614.765C471.599 615.362 472.307 616.198 472.85 617.274C473.394 618.339 473.665 619.692 473.665 621.333V638H470.821V634.117H470.645C470.304 634.841 469.798 635.544 469.127 636.226C468.456 636.908 467.614 637.467 466.602 637.904C465.59 638.341 464.402 638.559 463.039 638.559ZM463.422 635.955C464.935 635.955 466.245 635.619 467.353 634.948C468.461 634.277 469.313 633.387 469.91 632.279C470.517 631.161 470.821 629.93 470.821 628.588V625.04C470.608 625.243 470.251 625.424 469.75 625.583C469.26 625.743 468.69 625.887 468.04 626.015C467.401 626.132 466.762 626.233 466.123 626.319C465.483 626.404 464.908 626.478 464.397 626.542C463.012 626.713 461.829 626.979 460.849 627.341C459.869 627.703 459.118 628.204 458.596 628.843C458.074 629.472 457.813 630.282 457.813 631.272C457.813 632.764 458.346 633.92 459.411 634.74C460.476 635.55 461.813 635.955 463.422 635.955ZM490.9 613.455V615.931H479.186V613.455H490.9ZM482.846 607.574H485.706V631.592C485.706 632.615 485.882 633.419 486.234 634.005C486.585 634.58 487.043 634.99 487.608 635.235C488.173 635.47 488.775 635.587 489.414 635.587C489.787 635.587 490.106 635.566 490.373 635.523C490.639 635.47 490.873 635.417 491.076 635.363L491.683 637.936C491.406 638.043 491.065 638.138 490.66 638.224C490.255 638.32 489.755 638.368 489.158 638.368C488.114 638.368 487.107 638.138 486.138 637.68C485.179 637.222 484.391 636.54 483.773 635.635C483.155 634.729 482.846 633.605 482.846 632.263V607.574ZM12.8548 651.455V653.931H0.789773V651.455H12.8548ZM4.56108 676V647.859C4.56108 646.538 4.8647 645.425 5.47195 644.519C6.08984 643.614 6.89418 642.926 7.88494 642.458C8.87571 641.989 9.92507 641.755 11.033 641.755C11.7788 641.755 12.3967 641.819 12.8867 641.946C13.3874 642.064 13.7816 642.181 14.0692 642.298L13.2383 644.791C13.0252 644.727 12.7642 644.652 12.4553 644.567C12.1463 644.482 11.7575 644.439 11.2887 644.439C10.0529 644.439 9.09943 644.786 8.42827 645.478C7.7571 646.17 7.42152 647.161 7.42152 648.45L7.40554 676H4.56108ZM27.0611 676.511C24.9411 676.511 23.0661 675.973 21.4361 674.897C19.8168 673.821 18.549 672.335 17.6328 670.439C16.7166 668.532 16.2585 666.332 16.2585 663.839C16.2585 661.325 16.7166 659.114 17.6328 657.207C18.549 655.29 19.8168 653.798 21.4361 652.733C23.0661 651.657 24.9411 651.119 27.0611 651.119C29.1811 651.119 31.0508 651.657 32.6701 652.733C34.2894 653.809 35.5572 655.3 36.4734 657.207C37.4002 659.114 37.8636 661.325 37.8636 663.839C37.8636 666.332 37.4055 668.532 36.4893 670.439C35.5732 672.335 34.3001 673.821 32.6701 674.897C31.0508 675.973 29.1811 676.511 27.0611 676.511ZM27.0611 673.907C28.7656 673.907 30.2092 673.449 31.3917 672.532C32.5742 671.616 33.4691 670.396 34.0763 668.873C34.6942 667.349 35.0032 665.672 35.0032 663.839C35.0032 662.007 34.6942 660.324 34.0763 658.789C33.4691 657.255 32.5742 656.025 31.3917 655.098C30.2092 654.171 28.7656 653.708 27.0611 653.708C25.3672 653.708 23.9237 654.171 22.7305 655.098C21.5479 656.025 20.6477 657.255 20.0298 658.789C19.4226 660.324 19.119 662.007 19.119 663.839C19.119 665.672 19.4226 667.349 20.0298 668.873C20.6477 670.396 21.5479 671.616 22.7305 672.532C23.913 673.449 25.3565 673.907 27.0611 673.907ZM53.6959 676.511C51.5013 676.511 49.589 675.963 47.9591 674.865C46.3398 673.768 45.0827 672.266 44.1878 670.359C43.2929 668.452 42.8454 666.279 42.8454 663.839C42.8454 661.378 43.2982 659.189 44.2037 657.271C45.1199 655.354 46.3877 653.852 48.007 652.765C49.6263 651.668 51.5067 651.119 53.648 651.119C55.2886 651.119 56.7748 651.439 58.1064 652.078C59.4381 652.706 60.5354 653.596 61.3983 654.746C62.2719 655.886 62.8206 657.218 63.0443 658.741H60.1679C59.8696 657.357 59.1505 656.174 58.0106 655.194C56.8813 654.203 55.4431 653.708 53.6959 653.708C52.1299 653.708 50.7449 654.134 49.5411 654.986C48.3373 655.828 47.3944 657.005 46.7126 658.518C46.0415 660.02 45.7059 661.762 45.7059 663.743C45.7059 665.735 46.0361 667.499 46.6966 669.033C47.3572 670.556 48.284 671.749 49.4772 672.612C50.681 673.475 52.0873 673.907 53.6959 673.907C54.7826 673.907 55.7733 673.704 56.6682 673.299C57.5738 672.884 58.3302 672.298 58.9374 671.542C59.5553 670.785 59.9708 669.885 60.1839 668.841H63.0603C62.8472 670.322 62.3199 671.643 61.4783 672.804C60.6473 673.955 59.566 674.86 58.2343 675.521C56.9133 676.181 55.4005 676.511 53.6959 676.511ZM84.7533 666.62V651.455H87.5977V676H84.7533V671.925H84.5296C83.9543 673.182 83.0434 674.232 81.797 675.073C80.5505 675.904 79.0271 676.32 77.2267 676.32C75.6606 676.32 74.2703 675.979 73.0558 675.297C71.8414 674.604 70.8879 673.592 70.1954 672.261C69.5029 670.929 69.1567 669.294 69.1567 667.355V651.455H72.0012V667.179C72.0012 669.097 72.5658 670.641 73.695 671.813C74.8243 672.974 76.2732 673.555 78.0416 673.555C79.1496 673.555 80.2149 673.289 81.2377 672.756C82.2604 672.223 83.102 671.446 83.7625 670.423C84.423 669.39 84.7533 668.122 84.7533 666.62ZM111.62 656.84L109.015 657.575C108.759 656.84 108.397 656.174 107.928 655.577C107.46 654.981 106.847 654.507 106.091 654.155C105.345 653.804 104.418 653.628 103.31 653.628C101.648 653.628 100.285 654.022 99.2193 654.81C98.1539 655.599 97.6213 656.616 97.6213 657.863C97.6213 658.917 97.9835 659.775 98.7079 660.435C99.443 661.085 100.572 661.602 102.096 661.985L105.803 662.896C107.859 663.397 109.399 664.191 110.421 665.277C111.455 666.364 111.971 667.728 111.971 669.368C111.971 670.753 111.588 671.984 110.821 673.06C110.054 674.136 108.983 674.983 107.609 675.6C106.245 676.208 104.663 676.511 102.863 676.511C100.466 676.511 98.4895 675.973 96.9341 674.897C95.3787 673.811 94.3826 672.245 93.9458 670.199L96.6784 669.528C97.03 670.988 97.7172 672.09 98.7399 672.836C99.7733 673.582 101.132 673.955 102.815 673.955C104.7 673.955 106.208 673.534 107.337 672.692C108.466 671.84 109.031 670.775 109.031 669.496C109.031 668.505 108.701 667.674 108.04 667.003C107.38 666.321 106.378 665.821 105.036 665.501L101.025 664.542C98.8944 664.031 97.3176 663.221 96.2949 662.113C95.2722 661.005 94.7608 659.631 94.7608 657.99C94.7608 656.637 95.1284 655.45 95.8635 654.427C96.5985 653.393 97.6106 652.584 98.8997 651.998C100.189 651.412 101.659 651.119 103.31 651.119C105.558 651.119 107.353 651.63 108.695 652.653C110.048 653.665 111.023 655.061 111.62 656.84ZM128.123 676.511C125.833 676.511 123.851 675.979 122.179 674.913C120.506 673.837 119.212 672.351 118.296 670.455C117.39 668.548 116.937 666.353 116.937 663.871C116.937 661.4 117.39 659.205 118.296 657.287C119.212 655.359 120.474 653.852 122.083 652.765C123.702 651.668 125.572 651.119 127.692 651.119C129.024 651.119 130.307 651.364 131.543 651.854C132.779 652.333 133.887 653.074 134.867 654.075C135.858 655.066 136.641 656.318 137.216 657.831C137.791 659.333 138.079 661.112 138.079 663.168V664.574H118.903V662.065H135.171C135.171 660.489 134.851 659.072 134.212 657.815C133.583 656.547 132.704 655.545 131.575 654.81C130.456 654.075 129.162 653.708 127.692 653.708C126.136 653.708 124.767 654.123 123.585 654.954C122.402 655.785 121.476 656.882 120.804 658.246C120.144 659.61 119.808 661.101 119.798 662.721V664.223C119.798 666.172 120.133 667.877 120.804 669.336C121.486 670.785 122.45 671.909 123.697 672.708C124.943 673.507 126.419 673.907 128.123 673.907C129.285 673.907 130.302 673.725 131.176 673.363C132.06 673.001 132.8 672.516 133.397 671.909C134.004 671.291 134.462 670.615 134.771 669.88L137.472 670.759C137.099 671.792 136.486 672.745 135.634 673.619C134.792 674.493 133.738 675.196 132.47 675.728C131.213 676.25 129.764 676.511 128.123 676.511ZM160.839 656.84L158.234 657.575C157.978 656.84 157.616 656.174 157.147 655.577C156.678 654.981 156.066 654.507 155.309 654.155C154.564 653.804 153.637 653.628 152.529 653.628C150.867 653.628 149.503 654.022 148.438 654.81C147.373 655.599 146.84 656.616 146.84 657.863C146.84 658.917 147.202 659.775 147.927 660.435C148.662 661.085 149.791 661.602 151.314 661.985L155.022 662.896C157.078 663.397 158.617 664.191 159.64 665.277C160.673 666.364 161.19 667.728 161.19 669.368C161.19 670.753 160.807 671.984 160.04 673.06C159.273 674.136 158.202 674.983 156.828 675.6C155.464 676.208 153.882 676.511 152.081 676.511C149.684 676.511 147.708 675.973 146.153 674.897C144.597 673.811 143.601 672.245 143.165 670.199L145.897 669.528C146.249 670.988 146.936 672.09 147.959 672.836C148.992 673.582 150.35 673.955 152.034 673.955C153.919 673.955 155.427 673.534 156.556 672.692C157.685 671.84 158.25 670.775 158.25 669.496C158.25 668.505 157.92 667.674 157.259 667.003C156.599 666.321 155.597 665.821 154.255 665.501L150.244 664.542C148.113 664.031 146.536 663.221 145.514 662.113C144.491 661.005 143.98 659.631 143.98 657.99C143.98 656.637 144.347 655.45 145.082 654.427C145.817 653.393 146.829 652.584 148.118 651.998C149.407 651.412 150.878 651.119 152.529 651.119C154.777 651.119 156.572 651.63 157.914 652.653C159.267 653.665 160.242 655.061 160.839 656.84ZM196.566 656.84L193.961 657.575C193.706 656.84 193.343 656.174 192.875 655.577C192.406 654.981 191.793 654.507 191.037 654.155C190.291 653.804 189.364 653.628 188.256 653.628C186.595 653.628 185.231 654.022 184.166 654.81C183.1 655.599 182.568 656.616 182.568 657.863C182.568 658.917 182.93 659.775 183.654 660.435C184.389 661.085 185.519 661.602 187.042 661.985L190.749 662.896C192.805 663.397 194.345 664.191 195.368 665.277C196.401 666.364 196.918 667.728 196.918 669.368C196.918 670.753 196.534 671.984 195.767 673.06C195 674.136 193.929 674.983 192.555 675.6C191.191 676.208 189.609 676.511 187.809 676.511C185.412 676.511 183.436 675.973 181.88 674.897C180.325 673.811 179.329 672.245 178.892 670.199L181.625 669.528C181.976 670.988 182.663 672.09 183.686 672.836C184.72 673.582 186.078 673.955 187.761 673.955C189.647 673.955 191.154 673.534 192.283 672.692C193.413 671.84 193.977 670.775 193.977 669.496C193.977 668.505 193.647 667.674 192.987 667.003C192.326 666.321 191.325 665.821 189.982 665.501L185.971 664.542C183.841 664.031 182.264 663.221 181.241 662.113C180.218 661.005 179.707 659.631 179.707 657.99C179.707 656.637 180.075 655.45 180.81 654.427C181.545 653.393 182.557 652.584 183.846 651.998C185.135 651.412 186.605 651.119 188.256 651.119C190.504 651.119 192.299 651.63 193.642 652.653C194.995 653.665 195.97 655.061 196.566 656.84ZM212.686 676.511C210.566 676.511 208.691 675.973 207.061 674.897C205.442 673.821 204.174 672.335 203.258 670.439C202.342 668.532 201.884 666.332 201.884 663.839C201.884 661.325 202.342 659.114 203.258 657.207C204.174 655.29 205.442 653.798 207.061 652.733C208.691 651.657 210.566 651.119 212.686 651.119C214.806 651.119 216.676 651.657 218.295 652.733C219.914 653.809 221.182 655.3 222.098 657.207C223.025 659.114 223.489 661.325 223.489 663.839C223.489 666.332 223.031 668.532 222.114 670.439C221.198 672.335 219.925 673.821 218.295 674.897C216.676 675.973 214.806 676.511 212.686 676.511ZM212.686 673.907C214.391 673.907 215.834 673.449 217.017 672.532C218.199 671.616 219.094 670.396 219.701 668.873C220.319 667.349 220.628 665.672 220.628 663.839C220.628 662.007 220.319 660.324 219.701 658.789C219.094 657.255 218.199 656.025 217.017 655.098C215.834 654.171 214.391 653.708 212.686 653.708C210.992 653.708 209.549 654.171 208.355 655.098C207.173 656.025 206.273 657.255 205.655 658.789C205.048 660.324 204.744 662.007 204.744 663.839C204.744 665.672 205.048 667.349 205.655 668.873C206.273 670.396 207.173 671.616 208.355 672.532C209.538 673.449 210.982 673.907 212.686 673.907ZM232.577 643.273V676H229.733V643.273H232.577ZM250.028 676.511C247.737 676.511 245.756 675.979 244.083 674.913C242.41 673.837 241.116 672.351 240.2 670.455C239.294 668.548 238.842 666.353 238.842 663.871C238.842 661.4 239.294 659.205 240.2 657.287C241.116 655.359 242.378 653.852 243.987 652.765C245.606 651.668 247.476 651.119 249.596 651.119C250.928 651.119 252.212 651.364 253.447 651.854C254.683 652.333 255.791 653.074 256.771 654.075C257.762 655.066 258.545 656.318 259.12 657.831C259.696 659.333 259.983 661.112 259.983 663.168V664.574H240.807V662.065H257.075C257.075 660.489 256.755 659.072 256.116 657.815C255.487 656.547 254.609 655.545 253.479 654.81C252.361 654.075 251.066 653.708 249.596 653.708C248.041 653.708 246.672 654.123 245.489 654.954C244.307 655.785 243.38 656.882 242.709 658.246C242.048 659.61 241.713 661.101 241.702 662.721V664.223C241.702 666.172 242.038 667.877 242.709 669.336C243.391 670.785 244.355 671.909 245.601 672.708C246.848 673.507 248.323 673.907 250.028 673.907C251.189 673.907 252.206 673.725 253.08 673.363C253.964 673.001 254.704 672.516 255.301 671.909C255.908 671.291 256.366 670.615 256.675 669.88L259.376 670.759C259.003 671.792 258.391 672.745 257.538 673.619C256.697 674.493 255.642 675.196 254.374 675.728C253.117 676.25 251.668 676.511 250.028 676.511ZM269.096 643.273V676H266.251V643.273H269.096ZM278.604 685.205C278.039 685.205 277.512 685.151 277.022 685.045C276.532 684.938 276.143 684.821 275.855 684.693L276.623 682.184C277.592 682.483 278.455 682.589 279.211 682.504C279.968 682.429 280.639 682.088 281.225 681.481C281.811 680.885 282.333 679.968 282.791 678.733L283.686 676.24L274.657 651.455H277.741L285.028 672.245H285.252L292.539 651.455H295.623L285.236 679.883C284.799 681.066 284.261 682.051 283.622 682.839C282.983 683.638 282.242 684.23 281.401 684.613C280.57 685.007 279.637 685.205 278.604 685.205ZM323.384 676.511C321.264 676.511 319.389 675.973 317.759 674.897C316.14 673.821 314.872 672.335 313.956 670.439C313.04 668.532 312.582 666.332 312.582 663.839C312.582 661.325 313.04 659.114 313.956 657.207C314.872 655.29 316.14 653.798 317.759 652.733C319.389 651.657 321.264 651.119 323.384 651.119C325.504 651.119 327.374 651.657 328.993 652.733C330.613 653.809 331.88 655.3 332.797 657.207C333.723 659.114 334.187 661.325 334.187 663.839C334.187 666.332 333.729 668.532 332.813 670.439C331.896 672.335 330.623 673.821 328.993 674.897C327.374 675.973 325.504 676.511 323.384 676.511ZM323.384 673.907C325.089 673.907 326.532 673.449 327.715 672.532C328.897 671.616 329.792 670.396 330.4 668.873C331.017 667.349 331.326 665.672 331.326 663.839C331.326 662.007 331.017 660.324 330.4 658.789C329.792 657.255 328.897 656.025 327.715 655.098C326.532 654.171 325.089 653.708 323.384 653.708C321.69 653.708 320.247 654.171 319.054 655.098C317.871 656.025 316.971 657.255 316.353 658.789C315.746 660.324 315.442 662.007 315.442 663.839C315.442 665.672 315.746 667.349 316.353 668.873C316.971 670.396 317.871 671.616 319.054 672.532C320.236 673.449 321.68 673.907 323.384 673.907ZM343.276 660.659V676H340.431V651.455H343.196V655.306H343.451C344.027 654.049 344.922 653.042 346.136 652.286C347.361 651.518 348.874 651.135 350.674 651.135C352.326 651.135 353.775 651.481 355.021 652.174C356.278 652.855 357.253 653.862 357.945 655.194C358.648 656.526 359 658.161 359 660.1V676H356.156V660.276C356.156 658.262 355.591 656.669 354.462 655.498C353.343 654.326 351.841 653.74 349.955 653.74C348.666 653.74 347.521 654.017 346.52 654.571C345.518 655.125 344.724 655.924 344.138 656.968C343.563 658.001 343.276 659.232 343.276 660.659ZM398.531 658.454L392.299 658.837C392.192 658.305 391.963 657.825 391.611 657.399C391.26 656.962 390.796 656.616 390.221 656.36C389.657 656.094 388.98 655.961 388.192 655.961C387.137 655.961 386.247 656.185 385.523 656.632C384.799 657.069 384.436 657.655 384.436 658.39C384.436 658.976 384.671 659.471 385.139 659.876C385.608 660.281 386.413 660.606 387.552 660.851L391.995 661.746C394.381 662.236 396.16 663.024 397.332 664.111C398.504 665.197 399.09 666.625 399.09 668.393C399.09 670.002 398.616 671.414 397.668 672.628C396.73 673.843 395.441 674.791 393.801 675.473C392.171 676.144 390.29 676.479 388.16 676.479C384.91 676.479 382.322 675.803 380.393 674.45C378.476 673.086 377.352 671.233 377.022 668.889L383.717 668.537C383.92 669.528 384.41 670.284 385.187 670.806C385.965 671.318 386.961 671.574 388.176 671.574C389.369 671.574 390.328 671.344 391.052 670.886C391.787 670.418 392.16 669.816 392.171 669.081C392.16 668.463 391.899 667.957 391.388 667.562C390.876 667.158 390.088 666.849 389.023 666.636L384.772 665.789C382.375 665.309 380.59 664.478 379.419 663.296C378.257 662.113 377.677 660.606 377.677 658.773C377.677 657.197 378.103 655.838 378.955 654.699C379.818 653.559 381.027 652.68 382.583 652.062C384.149 651.444 385.981 651.135 388.08 651.135C391.18 651.135 393.62 651.79 395.399 653.1C397.188 654.411 398.233 656.195 398.531 658.454ZM403.377 676V651.455H409.865V655.785H410.152C410.664 654.347 411.516 653.212 412.709 652.381C413.902 651.55 415.33 651.135 416.992 651.135C418.675 651.135 420.108 651.556 421.29 652.397C422.473 653.228 423.261 654.358 423.656 655.785H423.911C424.412 654.379 425.317 653.255 426.628 652.413C427.949 651.561 429.51 651.135 431.31 651.135C433.6 651.135 435.46 651.865 436.887 653.324C438.325 654.773 439.044 656.829 439.044 659.493V676H432.253V660.835C432.253 659.471 431.891 658.449 431.166 657.767C430.442 657.085 429.536 656.744 428.45 656.744C427.214 656.744 426.25 657.138 425.557 657.926C424.865 658.704 424.518 659.732 424.518 661.011V676H417.919V660.691C417.919 659.487 417.572 658.528 416.88 657.815C416.198 657.101 415.298 656.744 414.179 656.744C413.423 656.744 412.741 656.936 412.134 657.319C411.537 657.692 411.063 658.219 410.712 658.901C410.36 659.572 410.184 660.361 410.184 661.266V676H403.377ZM451.421 676.463C449.855 676.463 448.459 676.192 447.234 675.648C446.009 675.094 445.04 674.279 444.326 673.203C443.623 672.117 443.271 670.764 443.271 669.145C443.271 667.781 443.521 666.636 444.022 665.709C444.523 664.782 445.205 664.036 446.068 663.472C446.931 662.907 447.911 662.481 449.008 662.193C450.116 661.906 451.277 661.703 452.492 661.586C453.919 661.437 455.07 661.298 455.943 661.17C456.817 661.032 457.451 660.83 457.845 660.563C458.239 660.297 458.436 659.903 458.436 659.381V659.285C458.436 658.273 458.117 657.49 457.477 656.936C456.849 656.382 455.954 656.105 454.793 656.105C453.568 656.105 452.593 656.376 451.868 656.92C451.144 657.452 450.665 658.124 450.43 658.933L444.134 658.422C444.454 656.93 445.082 655.641 446.02 654.555C446.957 653.457 448.166 652.616 449.647 652.03C451.139 651.433 452.865 651.135 454.825 651.135C456.188 651.135 457.493 651.295 458.74 651.614C459.997 651.934 461.11 652.429 462.08 653.1C463.06 653.772 463.832 654.635 464.397 655.689C464.961 656.733 465.244 657.985 465.244 659.445V676H458.788V672.596H458.596C458.202 673.363 457.675 674.04 457.014 674.626C456.354 675.201 455.56 675.654 454.633 675.984C453.706 676.304 452.635 676.463 451.421 676.463ZM453.371 671.765C454.372 671.765 455.256 671.568 456.023 671.174C456.79 670.769 457.392 670.226 457.829 669.544C458.266 668.862 458.484 668.09 458.484 667.227V664.622C458.271 664.761 457.978 664.888 457.605 665.006C457.243 665.112 456.833 665.213 456.375 665.309C455.917 665.395 455.459 665.474 455.001 665.549C454.542 665.613 454.127 665.672 453.754 665.725C452.955 665.842 452.257 666.028 451.661 666.284C451.064 666.54 450.601 666.886 450.27 667.323C449.94 667.749 449.775 668.282 449.775 668.921C449.775 669.848 450.111 670.556 450.782 671.046C451.464 671.526 452.327 671.765 453.371 671.765ZM477.333 643.273V676H470.525V643.273H477.333ZM489.593 643.273V676H482.786V643.273H489.593ZM8.71591 714.463C7.14986 714.463 5.75426 714.192 4.52912 713.648C3.30398 713.094 2.33452 712.279 1.62074 711.203C0.917614 710.117 0.566051 708.764 0.566051 707.145C0.566051 705.781 0.816406 704.636 1.31712 703.709C1.81783 702.782 2.49964 702.036 3.36257 701.472C4.2255 700.907 5.20561 700.481 6.30291 700.193C7.41087 699.906 8.57209 699.703 9.78658 699.586C11.2141 699.437 12.3647 699.298 13.2383 699.17C14.1119 699.032 14.7457 698.83 15.1399 698.563C15.5341 698.297 15.7312 697.903 15.7312 697.381V697.285C15.7312 696.273 15.4116 695.49 14.7724 694.936C14.1438 694.382 13.2489 694.105 12.0877 694.105C10.8626 694.105 9.88778 694.376 9.16335 694.92C8.43892 695.452 7.95952 696.124 7.72514 696.933L1.42898 696.422C1.74858 694.93 2.37713 693.641 3.31463 692.555C4.25213 691.457 5.46129 690.616 6.94212 690.03C8.43359 689.433 10.1594 689.135 12.1197 689.135C13.4833 689.135 14.7884 689.295 16.0348 689.614C17.2919 689.934 18.4052 690.429 19.3746 691.1C20.3548 691.772 21.1271 692.635 21.6918 693.689C22.2564 694.733 22.5387 695.985 22.5387 697.445V714H16.0827V710.596H15.891C15.4968 711.363 14.9695 712.04 14.3089 712.626C13.6484 713.201 12.8548 713.654 11.9279 713.984C11.0011 714.304 9.9304 714.463 8.71591 714.463ZM10.6655 709.765C11.6669 709.765 12.5511 709.568 13.3182 709.174C14.0852 708.769 14.6871 708.226 15.1239 707.544C15.5607 706.862 15.7791 706.09 15.7791 705.227V702.622C15.5661 702.761 15.2731 702.888 14.9002 703.006C14.538 703.112 14.1278 703.213 13.6697 703.309C13.2116 703.395 12.7536 703.474 12.2955 703.549C11.8374 703.613 11.4219 703.672 11.049 703.725C10.25 703.842 9.5522 704.028 8.95561 704.284C8.35902 704.54 7.8956 704.886 7.56534 705.323C7.23509 705.749 7.06996 706.282 7.06996 706.921C7.06996 707.848 7.40554 708.556 8.0767 709.046C8.75852 709.526 9.62145 709.765 10.6655 709.765ZM34.6277 699.81V714H27.8201V689.455H34.3081V693.785H34.5957C35.139 692.358 36.0499 691.228 37.3283 690.397C38.6067 689.556 40.1568 689.135 41.9785 689.135C43.6831 689.135 45.1692 689.508 46.437 690.254C47.7047 690.999 48.6902 692.065 49.3933 693.45C50.0964 694.824 50.448 696.464 50.448 698.371V714H43.6404V699.586C43.6511 698.084 43.2676 696.912 42.4899 696.07C41.7122 695.218 40.6415 694.792 39.2779 694.792C38.3617 694.792 37.552 694.989 36.8489 695.383C36.1564 695.777 35.6131 696.353 35.2189 697.109C34.8354 697.855 34.6383 698.755 34.6277 699.81ZM64.858 714.4C62.9937 714.4 61.3051 713.92 59.7923 712.961C58.2902 711.992 57.097 710.57 56.2128 708.695C55.3392 706.809 54.9024 704.497 54.9024 701.759C54.9024 698.947 55.3552 696.608 56.2607 694.744C57.1663 692.869 58.3701 691.468 59.8722 690.541C61.385 689.604 63.0416 689.135 64.8421 689.135C66.2164 689.135 67.3616 689.369 68.2778 689.838C69.2046 690.296 69.9504 690.871 70.515 691.564C71.0903 692.246 71.5271 692.917 71.8254 693.577H72.0331V681.273H78.8247V714H72.113V710.069H71.8254C71.5058 710.751 71.053 711.427 70.4671 712.098C69.8918 712.759 69.1407 713.308 68.2139 713.744C67.2977 714.181 66.1791 714.4 64.858 714.4ZM67.0154 708.982C68.1127 708.982 69.0395 708.684 69.7959 708.087C70.5629 707.48 71.1489 706.633 71.5537 705.547C71.9692 704.46 72.1769 703.187 72.1769 701.727C72.1769 700.268 71.9745 699 71.5697 697.924C71.1649 696.848 70.5789 696.017 69.8119 695.431C69.0448 694.845 68.1127 694.552 67.0154 694.552C65.8968 694.552 64.9539 694.856 64.1869 695.463C63.4198 696.07 62.8392 696.912 62.445 697.988C62.0509 699.064 61.8538 700.31 61.8538 701.727C61.8538 703.155 62.0509 704.417 62.445 705.515C62.8499 706.601 63.4305 707.453 64.1869 708.071C64.9539 708.679 65.8968 708.982 67.0154 708.982ZM103.881 714.4C102.017 714.4 100.329 713.92 98.8158 712.961C97.3137 711.992 96.1205 710.57 95.2362 708.695C94.3627 706.809 93.9259 704.497 93.9259 701.759C93.9259 698.947 94.3786 696.608 95.2842 694.744C96.1897 692.869 97.3936 691.468 98.8957 690.541C100.408 689.604 102.065 689.135 103.866 689.135C105.24 689.135 106.385 689.369 107.301 689.838C108.228 690.296 108.974 690.871 109.538 691.564C110.114 692.246 110.551 692.917 110.849 693.577H111.057V681.273H117.848V714H111.136V710.069H110.849C110.529 710.751 110.076 711.427 109.491 712.098C108.915 712.759 108.164 713.308 107.237 713.744C106.321 714.181 105.203 714.4 103.881 714.4ZM106.039 708.982C107.136 708.982 108.063 708.684 108.819 708.087C109.586 707.48 110.172 706.633 110.577 705.547C110.993 704.46 111.2 703.187 111.2 701.727C111.2 700.268 110.998 699 110.593 697.924C110.188 696.848 109.602 696.017 108.835 695.431C108.068 694.845 107.136 694.552 106.039 694.552C104.92 694.552 103.977 694.856 103.21 695.463C102.443 696.07 101.863 696.912 101.468 697.988C101.074 699.064 100.877 700.31 100.877 701.727C100.877 703.155 101.074 704.417 101.468 705.515C101.873 706.601 102.454 707.453 103.21 708.071C103.977 708.679 104.92 708.982 106.039 708.982ZM123.445 714V689.455H130.253V714H123.445ZM126.865 686.29C125.853 686.29 124.985 685.955 124.26 685.284C123.546 684.602 123.189 683.787 123.189 682.839C123.189 681.901 123.546 681.097 124.26 680.426C124.985 679.744 125.853 679.403 126.865 679.403C127.877 679.403 128.74 679.744 129.454 680.426C130.178 681.097 130.54 681.901 130.54 682.839C130.54 683.787 130.178 684.602 129.454 685.284C128.74 685.955 127.877 686.29 126.865 686.29ZM158.589 689.455L150.008 714H142.338L133.756 689.455H140.947L146.045 707.017H146.301L151.382 689.455H158.589ZM172.468 714.479C169.943 714.479 167.77 713.968 165.948 712.945C164.137 711.912 162.742 710.452 161.761 708.567C160.781 706.67 160.291 704.428 160.291 701.839C160.291 699.314 160.781 697.098 161.761 695.191C162.742 693.284 164.121 691.798 165.9 690.733C167.69 689.668 169.789 689.135 172.196 689.135C173.816 689.135 175.323 689.396 176.719 689.918C178.125 690.429 179.35 691.202 180.394 692.235C181.449 693.268 182.269 694.568 182.855 696.134C183.441 697.69 183.734 699.511 183.734 701.599V703.469H163.008V699.25H177.326C177.326 698.27 177.113 697.402 176.687 696.646C176.261 695.889 175.669 695.298 174.913 694.872C174.167 694.435 173.299 694.217 172.308 694.217C171.275 694.217 170.359 694.456 169.56 694.936C168.771 695.404 168.153 696.038 167.706 696.837C167.259 697.626 167.03 698.505 167.019 699.474V703.485C167.019 704.7 167.243 705.749 167.69 706.633C168.148 707.517 168.793 708.199 169.624 708.679C170.455 709.158 171.44 709.398 172.58 709.398C173.336 709.398 174.029 709.291 174.657 709.078C175.286 708.865 175.824 708.545 176.271 708.119C176.719 707.693 177.06 707.171 177.294 706.553L183.59 706.969C183.271 708.482 182.616 709.803 181.625 710.932C180.645 712.05 179.377 712.924 177.821 713.553C176.277 714.17 174.492 714.479 172.468 714.479ZM188.177 714V689.455H194.776V693.737H195.032C195.479 692.214 196.231 691.063 197.285 690.286C198.34 689.497 199.554 689.103 200.929 689.103C201.27 689.103 201.637 689.124 202.031 689.167C202.426 689.21 202.772 689.268 203.07 689.343V695.383C202.75 695.287 202.308 695.202 201.744 695.127C201.179 695.053 200.662 695.016 200.194 695.016C199.192 695.016 198.297 695.234 197.509 695.671C196.731 696.097 196.113 696.694 195.655 697.461C195.208 698.228 194.984 699.112 194.984 700.113V714H188.177ZM227.012 696.454L220.78 696.837C220.673 696.305 220.444 695.825 220.093 695.399C219.741 694.962 219.278 694.616 218.703 694.36C218.138 694.094 217.461 693.961 216.673 693.961C215.618 693.961 214.729 694.185 214.004 694.632C213.28 695.069 212.918 695.655 212.918 696.39C212.918 696.976 213.152 697.471 213.621 697.876C214.09 698.281 214.894 698.606 216.034 698.851L220.476 699.746C222.863 700.236 224.642 701.024 225.814 702.111C226.986 703.197 227.572 704.625 227.572 706.393C227.572 708.002 227.097 709.414 226.149 710.628C225.212 711.843 223.923 712.791 222.282 713.473C220.652 714.144 218.772 714.479 216.641 714.479C213.392 714.479 210.803 713.803 208.875 712.45C206.957 711.086 205.833 709.233 205.503 706.889L212.199 706.537C212.401 707.528 212.891 708.284 213.669 708.806C214.447 709.318 215.443 709.574 216.657 709.574C217.85 709.574 218.809 709.344 219.534 708.886C220.269 708.418 220.642 707.816 220.652 707.081C220.642 706.463 220.381 705.957 219.869 705.562C219.358 705.158 218.569 704.849 217.504 704.636L213.253 703.789C210.856 703.309 209.072 702.478 207.9 701.296C206.739 700.113 206.158 698.606 206.158 696.773C206.158 695.197 206.584 693.838 207.437 692.699C208.3 691.559 209.509 690.68 211.064 690.062C212.63 689.444 214.463 689.135 216.561 689.135C219.661 689.135 222.101 689.79 223.88 691.1C225.67 692.411 226.714 694.195 227.012 696.454ZM243.044 714.479C240.519 714.479 238.346 713.968 236.524 712.945C234.713 711.912 233.318 710.452 232.338 708.567C231.358 706.67 230.867 704.428 230.867 701.839C230.867 699.314 231.358 697.098 232.338 695.191C233.318 693.284 234.697 691.798 236.476 690.733C238.266 689.668 240.365 689.135 242.773 689.135C244.392 689.135 245.899 689.396 247.295 689.918C248.701 690.429 249.926 691.202 250.97 692.235C252.025 693.268 252.845 694.568 253.431 696.134C254.017 697.69 254.31 699.511 254.31 701.599V703.469H233.584V699.25H247.902C247.902 698.27 247.689 697.402 247.263 696.646C246.837 695.889 246.246 695.298 245.489 694.872C244.744 694.435 243.875 694.217 242.885 694.217C241.851 694.217 240.935 694.456 240.136 694.936C239.348 695.404 238.73 696.038 238.282 696.837C237.835 697.626 237.606 698.505 237.595 699.474V703.485C237.595 704.7 237.819 705.749 238.266 706.633C238.724 707.517 239.369 708.199 240.2 708.679C241.031 709.158 242.016 709.398 243.156 709.398C243.913 709.398 244.605 709.291 245.234 709.078C245.862 708.865 246.4 708.545 246.848 708.119C247.295 707.693 247.636 707.171 247.87 706.553L254.166 706.969C253.847 708.482 253.192 709.803 252.201 710.932C251.221 712.05 249.953 712.924 248.398 713.553C246.853 714.17 245.068 714.479 243.044 714.479ZM274.046 697.86V703.261H259.12V697.86H274.046ZM290.937 714.479C288.454 714.479 286.308 713.952 284.497 712.897C282.696 711.832 281.306 710.351 280.326 708.455C279.346 706.548 278.856 704.337 278.856 701.823C278.856 699.288 279.346 697.072 280.326 695.175C281.306 693.268 282.696 691.788 284.497 690.733C286.308 689.668 288.454 689.135 290.937 689.135C293.419 689.135 295.56 689.668 297.361 690.733C299.172 691.788 300.567 693.268 301.547 695.175C302.528 697.072 303.018 699.288 303.018 701.823C303.018 704.337 302.528 706.548 301.547 708.455C300.567 710.351 299.172 711.832 297.361 712.897C295.56 713.952 293.419 714.479 290.937 714.479ZM290.969 709.206C292.098 709.206 293.041 708.886 293.797 708.247C294.554 707.597 295.123 706.713 295.507 705.594C295.901 704.476 296.098 703.203 296.098 701.775C296.098 700.348 295.901 699.075 295.507 697.956C295.123 696.837 294.554 695.953 293.797 695.303C293.041 694.653 292.098 694.328 290.969 694.328C289.829 694.328 288.87 694.653 288.092 695.303C287.325 695.953 286.745 696.837 286.35 697.956C285.967 699.075 285.775 700.348 285.775 701.775C285.775 703.203 285.967 704.476 286.35 705.594C286.745 706.713 287.325 707.597 288.092 708.247C288.87 708.886 289.829 709.206 290.969 709.206ZM311.671 714L304.991 689.455H311.879L315.682 705.946H315.906L319.869 689.455H326.628L330.655 705.85H330.863L334.602 689.455H341.474L334.81 714H327.603L323.384 698.563H323.081L318.862 714H311.671ZM351.913 699.81V714H345.105V689.455H351.593V693.785H351.881C352.424 692.358 353.335 691.228 354.613 690.397C355.892 689.556 357.442 689.135 359.264 689.135C360.968 689.135 362.454 689.508 363.722 690.254C364.99 690.999 365.975 692.065 366.678 693.45C367.382 694.824 367.733 696.464 367.733 698.371V714H360.926V699.586C360.936 698.084 360.553 696.912 359.775 696.07C358.997 695.218 357.927 694.792 356.563 694.792C355.647 694.792 354.837 694.989 354.134 695.383C353.442 695.777 352.898 696.353 352.504 697.109C352.121 697.855 351.923 698.755 351.913 699.81ZM384.285 714.479C381.76 714.479 379.586 713.968 377.765 712.945C375.954 711.912 374.558 710.452 373.578 708.567C372.598 706.67 372.108 704.428 372.108 701.839C372.108 699.314 372.598 697.098 373.578 695.191C374.558 693.284 375.938 691.798 377.717 690.733C379.506 689.668 381.605 689.135 384.013 689.135C385.632 689.135 387.14 689.396 388.535 689.918C389.941 690.429 391.167 691.202 392.211 692.235C393.265 693.268 394.086 694.568 394.672 696.134C395.258 697.69 395.551 699.511 395.551 701.599V703.469H374.824V699.25H389.142C389.142 698.27 388.929 697.402 388.503 696.646C388.077 695.889 387.486 695.298 386.729 694.872C385.984 694.435 385.116 694.217 384.125 694.217C383.091 694.217 382.175 694.456 381.376 694.936C380.588 695.404 379.97 696.038 379.522 696.837C379.075 697.626 378.846 698.505 378.835 699.474V703.485C378.835 704.7 379.059 705.749 379.506 706.633C379.965 707.517 380.609 708.199 381.44 708.679C382.271 709.158 383.256 709.398 384.396 709.398C385.153 709.398 385.845 709.291 386.474 709.078C387.102 708.865 387.64 708.545 388.088 708.119C388.535 707.693 388.876 707.171 389.111 706.553L395.407 706.969C395.087 708.482 394.432 709.803 393.441 710.932C392.461 712.05 391.193 712.924 389.638 713.553C388.093 714.17 386.309 714.479 384.285 714.479ZM409.038 714.4C407.173 714.4 405.485 713.92 403.972 712.961C402.47 711.992 401.277 710.57 400.392 708.695C399.519 706.809 399.082 704.497 399.082 701.759C399.082 698.947 399.535 696.608 400.44 694.744C401.346 692.869 402.55 691.468 404.052 690.541C405.565 689.604 407.221 689.135 409.022 689.135C410.396 689.135 411.541 689.369 412.457 689.838C413.384 690.296 414.13 690.871 414.695 691.564C415.27 692.246 415.707 692.917 416.005 693.577H416.213V681.273H423.004V714H416.293V710.069H416.005C415.685 710.751 415.233 711.427 414.647 712.098C414.071 712.759 413.32 713.308 412.394 713.744C411.477 714.181 410.359 714.4 409.038 714.4ZM411.195 708.982C412.292 708.982 413.219 708.684 413.976 708.087C414.743 707.48 415.329 706.633 415.733 705.547C416.149 704.46 416.357 703.187 416.357 701.727C416.357 700.268 416.154 699 415.749 697.924C415.345 696.848 414.759 696.017 413.992 695.431C413.225 694.845 412.292 694.552 411.195 694.552C410.076 694.552 409.134 694.856 408.367 695.463C407.6 696.07 407.019 696.912 406.625 697.988C406.231 699.064 406.033 700.31 406.033 701.727C406.033 703.155 406.231 704.417 406.625 705.515C407.03 706.601 407.61 707.453 408.367 708.071C409.134 708.679 410.076 708.982 411.195 708.982ZM1.84446 752V719.273H8.65199V731.577H8.85973C9.15803 730.917 9.58949 730.246 10.1541 729.564C10.7294 728.871 11.4751 728.296 12.3913 727.838C13.3182 727.369 14.4688 727.135 15.843 727.135C17.6328 727.135 19.2841 727.604 20.7969 728.541C22.3097 729.468 23.5188 730.869 24.4244 732.744C25.3299 734.608 25.7827 736.947 25.7827 739.759C25.7827 742.497 25.3406 744.809 24.4563 746.695C23.5827 748.57 22.3896 749.992 20.8768 750.961C19.3746 751.92 17.6914 752.4 15.8271 752.4C14.506 752.4 13.3821 752.181 12.4553 751.744C11.5391 751.308 10.788 750.759 10.2021 750.098C9.61612 749.427 9.16868 748.751 8.85973 748.069H8.55611V752H1.84446ZM8.50817 739.727C8.50817 741.187 8.71058 742.46 9.11541 743.547C9.52024 744.633 10.1062 745.48 10.8732 746.087C11.6403 746.684 12.5724 746.982 13.6697 746.982C14.7777 746.982 15.7152 746.679 16.4822 746.071C17.2493 745.453 17.8299 744.601 18.2241 743.515C18.6289 742.417 18.8313 741.155 18.8313 739.727C18.8313 738.31 18.6342 737.064 18.2401 735.988C17.8459 734.912 17.2653 734.07 16.4982 733.463C15.7312 732.856 14.7884 732.552 13.6697 732.552C12.5618 732.552 11.6243 732.845 10.8572 733.431C10.1009 734.017 9.52024 734.848 9.11541 735.924C8.71058 737 8.50817 738.268 8.50817 739.727ZM46.0654 741.549V727.455H52.873V752H46.3371V747.542H46.0814C45.5274 748.98 44.6059 750.136 43.3169 751.009C42.0384 751.883 40.4777 752.32 38.6347 752.32C36.9941 752.32 35.5505 751.947 34.3041 751.201C33.0576 750.455 32.0828 749.395 31.3797 748.021C30.6872 746.647 30.3357 745.001 30.325 743.083V727.455H37.1325V741.869C37.1432 743.317 37.532 744.463 38.2991 745.304C39.0661 746.146 40.0942 746.567 41.3833 746.567C42.2036 746.567 42.9706 746.38 43.6844 746.007C44.3982 745.624 44.9735 745.059 45.4102 744.314C45.8577 743.568 46.0761 742.646 46.0654 741.549ZM78.7408 734.454L72.5085 734.837C72.402 734.305 72.1729 733.825 71.8214 733.399C71.4698 732.962 71.0064 732.616 70.4311 732.36C69.8665 732.094 69.19 731.961 68.4016 731.961C67.3469 731.961 66.4574 732.185 65.733 732.632C65.0085 733.069 64.6463 733.655 64.6463 734.39C64.6463 734.976 64.8807 735.471 65.3494 735.876C65.8182 736.281 66.6225 736.606 67.7624 736.851L72.2049 737.746C74.5913 738.236 76.3704 739.024 77.5423 740.111C78.7141 741.197 79.3001 742.625 79.3001 744.393C79.3001 746.002 78.826 747.414 77.8778 748.628C76.9403 749.843 75.6513 750.791 74.0107 751.473C72.3807 752.144 70.5004 752.479 68.3697 752.479C65.1204 752.479 62.5316 751.803 60.6033 750.45C58.6857 749.086 57.5618 747.233 57.2315 744.889L63.9272 744.537C64.1296 745.528 64.6197 746.284 65.3974 746.806C66.1751 747.318 67.1712 747.574 68.3857 747.574C69.5788 747.574 70.5376 747.344 71.2621 746.886C71.9972 746.418 72.37 745.816 72.3807 745.081C72.37 744.463 72.109 743.957 71.5977 743.562C71.0863 743.158 70.2979 742.849 69.2326 742.636L64.9819 741.789C62.5849 741.309 60.8004 740.478 59.6286 739.296C58.4673 738.113 57.8867 736.606 57.8867 734.773C57.8867 733.197 58.3129 731.838 59.1651 730.699C60.0281 729.559 61.2372 728.68 62.7926 728.062C64.3587 727.444 66.1911 727.135 68.2898 727.135C71.3899 727.135 73.8295 727.79 75.6087 729.1C77.3984 730.411 78.4425 732.195 78.7408 734.454ZM83.5867 752V727.455H90.3943V752H83.5867ZM87.0065 724.29C85.9944 724.29 85.1262 723.955 84.4017 723.284C83.6879 722.602 83.3311 721.787 83.3311 720.839C83.3311 719.901 83.6879 719.097 84.4017 718.426C85.1262 717.744 85.9944 717.403 87.0065 717.403C88.0186 717.403 88.8815 717.744 89.5953 718.426C90.3197 719.097 90.6819 719.901 90.6819 720.839C90.6819 721.787 90.3197 722.602 89.5953 723.284C88.8815 723.955 88.0186 724.29 87.0065 724.29ZM102.655 737.81V752H95.8475V727.455H102.335V731.785H102.623C103.166 730.358 104.077 729.228 105.356 728.397C106.634 727.556 108.184 727.135 110.006 727.135C111.71 727.135 113.197 727.508 114.464 728.254C115.732 728.999 116.718 730.065 117.421 731.45C118.124 732.824 118.475 734.464 118.475 736.371V752H111.668V737.586C111.678 736.084 111.295 734.912 110.517 734.07C109.74 733.218 108.669 732.792 107.305 732.792C106.389 732.792 105.579 732.989 104.876 733.383C104.184 733.777 103.64 734.353 103.246 735.109C102.863 735.855 102.666 736.755 102.655 737.81ZM135.027 752.479C132.502 752.479 130.329 751.968 128.507 750.945C126.696 749.912 125.3 748.452 124.32 746.567C123.34 744.67 122.85 742.428 122.85 739.839C122.85 737.314 123.34 735.098 124.32 733.191C125.3 731.284 126.68 729.798 128.459 728.733C130.249 727.668 132.347 727.135 134.755 727.135C136.374 727.135 137.882 727.396 139.277 727.918C140.684 728.429 141.909 729.202 142.953 730.235C144.008 731.268 144.828 732.568 145.414 734.134C146 735.69 146.293 737.511 146.293 739.599V741.469H125.566V737.25H139.885C139.885 736.27 139.672 735.402 139.245 734.646C138.819 733.889 138.228 733.298 137.472 732.872C136.726 732.435 135.858 732.217 134.867 732.217C133.834 732.217 132.917 732.456 132.118 732.936C131.33 733.404 130.712 734.038 130.265 734.837C129.817 735.626 129.588 736.505 129.578 737.474V741.485C129.578 742.7 129.801 743.749 130.249 744.633C130.707 745.517 131.351 746.199 132.182 746.679C133.013 747.158 133.999 747.398 135.139 747.398C135.895 747.398 136.587 747.291 137.216 747.078C137.845 746.865 138.383 746.545 138.83 746.119C139.277 745.693 139.618 745.171 139.853 744.553L146.149 744.969C145.829 746.482 145.174 747.803 144.183 748.932C143.203 750.05 141.935 750.924 140.38 751.553C138.835 752.17 137.051 752.479 135.027 752.479ZM171.158 734.454L164.926 734.837C164.819 734.305 164.59 733.825 164.238 733.399C163.887 732.962 163.423 732.616 162.848 732.36C162.283 732.094 161.607 731.961 160.819 731.961C159.764 731.961 158.874 732.185 158.15 732.632C157.426 733.069 157.063 733.655 157.063 734.39C157.063 734.976 157.298 735.471 157.766 735.876C158.235 736.281 159.04 736.606 160.179 736.851L164.622 737.746C167.008 738.236 168.787 739.024 169.959 740.111C171.131 741.197 171.717 742.625 171.717 744.393C171.717 746.002 171.243 747.414 170.295 748.628C169.357 749.843 168.068 750.791 166.428 751.473C164.798 752.144 162.917 752.479 160.787 752.479C157.537 752.479 154.949 751.803 153.02 750.45C151.103 749.086 149.979 747.233 149.649 744.889L156.344 744.537C156.547 745.528 157.037 746.284 157.814 746.806C158.592 747.318 159.588 747.574 160.803 747.574C161.996 747.574 162.955 747.344 163.679 746.886C164.414 746.418 164.787 745.816 164.798 745.081C164.787 744.463 164.526 743.957 164.015 743.562C163.503 743.158 162.715 742.849 161.65 742.636L157.399 741.789C155.002 741.309 153.217 740.478 152.046 739.296C150.884 738.113 150.304 736.606 150.304 734.773C150.304 733.197 150.73 731.838 151.582 730.699C152.445 729.559 153.654 728.68 155.21 728.062C156.776 727.444 158.608 727.135 160.707 727.135C163.807 727.135 166.247 727.79 168.026 729.1C169.815 730.411 170.859 732.195 171.158 734.454ZM196.426 734.454L190.194 734.837C190.088 734.305 189.858 733.825 189.507 733.399C189.155 732.962 188.692 732.616 188.117 732.36C187.552 732.094 186.876 731.961 186.087 731.961C185.032 731.961 184.143 732.185 183.419 732.632C182.694 733.069 182.332 733.655 182.332 734.39C182.332 734.976 182.566 735.471 183.035 735.876C183.504 736.281 184.308 736.606 185.448 736.851L189.89 737.746C192.277 738.236 194.056 739.024 195.228 740.111C196.4 741.197 196.986 742.625 196.986 744.393C196.986 746.002 196.512 747.414 195.563 748.628C194.626 749.843 193.337 750.791 191.696 751.473C190.066 752.144 188.186 752.479 186.055 752.479C182.806 752.479 180.217 751.803 178.289 750.45C176.371 749.086 175.247 747.233 174.917 744.889L181.613 744.537C181.815 745.528 182.305 746.284 183.083 746.806C183.861 747.318 184.857 747.574 186.071 747.574C187.264 747.574 188.223 747.344 188.948 746.886C189.683 746.418 190.056 745.816 190.066 745.081C190.056 744.463 189.795 743.957 189.283 743.562C188.772 743.158 187.983 742.849 186.918 742.636L182.667 741.789C180.27 741.309 178.486 740.478 177.314 739.296C176.153 738.113 175.572 736.606 175.572 734.773C175.572 733.197 175.998 731.838 176.851 730.699C177.714 729.559 178.923 728.68 180.478 728.062C182.044 727.444 183.877 727.135 185.975 727.135C189.075 727.135 191.515 727.79 193.294 729.1C195.084 730.411 196.128 732.195 196.426 734.454ZM212.458 752.479C209.934 752.479 207.76 751.968 205.938 750.945C204.127 749.912 202.732 748.452 201.752 746.567C200.772 744.67 200.282 742.428 200.282 739.839C200.282 737.314 200.772 735.098 201.752 733.191C202.732 731.284 204.111 729.798 205.891 728.733C207.68 727.668 209.779 727.135 212.187 727.135C213.806 727.135 215.313 727.396 216.709 727.918C218.115 728.429 219.34 729.202 220.385 730.235C221.439 731.268 222.26 732.568 222.845 734.134C223.431 735.69 223.724 737.511 223.724 739.599V741.469H202.998V737.25H217.316C217.316 736.27 217.103 735.402 216.677 734.646C216.251 733.889 215.66 733.298 214.903 732.872C214.158 732.435 213.289 732.217 212.299 732.217C211.265 732.217 210.349 732.456 209.55 732.936C208.762 733.404 208.144 734.038 207.696 734.837C207.249 735.626 207.02 736.505 207.009 737.474V741.485C207.009 742.7 207.233 743.749 207.68 744.633C208.138 745.517 208.783 746.199 209.614 746.679C210.445 747.158 211.43 747.398 212.57 747.398C213.327 747.398 214.019 747.291 214.648 747.078C215.276 746.865 215.814 746.545 216.262 746.119C216.709 745.693 217.05 745.171 217.284 744.553L223.581 744.969C223.261 746.482 222.606 747.803 221.615 748.932C220.635 750.05 219.367 750.924 217.812 751.553C216.267 752.17 214.483 752.479 212.458 752.479ZM248.589 734.454L242.357 734.837C242.251 734.305 242.022 733.825 241.67 733.399C241.318 732.962 240.855 732.616 240.28 732.36C239.715 732.094 239.039 731.961 238.25 731.961C237.196 731.961 236.306 732.185 235.582 732.632C234.857 733.069 234.495 733.655 234.495 734.39C234.495 734.976 234.729 735.471 235.198 735.876C235.667 736.281 236.471 736.606 237.611 736.851L242.054 737.746C244.44 738.236 246.219 739.024 247.391 740.111C248.563 741.197 249.149 742.625 249.149 744.393C249.149 746.002 248.675 747.414 247.726 748.628C246.789 749.843 245.5 750.791 243.859 751.473C242.229 752.144 240.349 752.479 238.218 752.479C234.969 752.479 232.38 751.803 230.452 750.45C228.534 749.086 227.41 747.233 227.08 744.889L233.776 744.537C233.978 745.528 234.468 746.284 235.246 746.806C236.024 747.318 237.02 747.574 238.234 747.574C239.427 747.574 240.386 747.344 241.111 746.886C241.846 746.418 242.219 745.816 242.229 745.081C242.219 744.463 241.958 743.957 241.446 743.562C240.935 743.158 240.147 742.849 239.081 742.636L234.831 741.789C232.434 741.309 230.649 740.478 229.477 739.296C228.316 738.113 227.735 736.606 227.735 734.773C227.735 733.197 228.161 731.838 229.014 730.699C229.877 729.559 231.086 728.68 232.641 728.062C234.207 727.444 236.04 727.135 238.138 727.135C241.239 727.135 243.678 727.79 245.457 729.1C247.247 730.411 248.291 732.195 248.589 734.454ZM257.414 752.415C256.36 752.415 255.454 752.043 254.698 751.297C253.952 750.54 253.579 749.635 253.579 748.58C253.579 747.536 253.952 746.641 254.698 745.896C255.454 745.15 256.36 744.777 257.414 744.777C258.437 744.777 259.332 745.15 260.099 745.896C260.866 746.641 261.25 747.536 261.25 748.58C261.25 749.283 261.069 749.928 260.706 750.514C260.355 751.089 259.891 751.553 259.316 751.904C258.741 752.245 258.107 752.415 257.414 752.415Z" fill="#2E2B26"/>
</svg>
