<svg width="439" height="354" viewBox="0 0 439 354" fill="none" xmlns="http://www.w3.org/2000/svg">
<path d="M169 210C169 182.386 191.386 160 219 160V160C246.614 160 269 182.386 269 210V210C269 237.614 246.614 260 219 260H169V210Z" fill="#2E2B26"/>
<path d="M269 -1H433V114C433 159.287 396.287 196 351 196V196C305.713 196 269 159.287 269 114V-1Z" fill="#72C78E"/>
<circle cx="354" cy="269" r="85" fill="#7D69FF"/>
<path d="M7.43094e-06 0.999985C5.46013e-06 23.5434 8.95533 45.1635 24.8959 61.1041C40.8365 77.0447 62.4566 86 85 86C107.543 86 129.163 77.0447 145.104 61.1041C161.045 45.1635 170 23.5434 170 1.00001L85 0.999993L7.43094e-06 0.999985Z" fill="#F6A892"/>
<path d="M169 51C169 23.3858 191.386 1 219 1H269V110C269 137.614 246.614 160 219 160H169V51Z" fill="#F5BF57"/>
<path fill-rule="evenodd" clip-rule="evenodd" d="M48 51C48 53.7614 46.433 56 44.5 56C42.567 56 41 53.7614 41 51C41 48.2386 42.567 46 44.5 46C46.433 46 48 48.2386 48 51ZM69 51C69 53.7614 67.433 56 65.5 56C63.567 56 62 53.7614 62 51C62 48.2386 63.567 46 65.5 46C67.433 46 69 48.2386 69 51ZM68.0506 60.5257C68.2981 61.2682 67.9325 62.0676 67.2285 62.3744C67.2013 62.4017 67.1599 62.4466 67.0963 62.521C67.0787 62.5416 67.0546 62.5703 67.0266 62.6037C66.9515 62.6931 66.8474 62.817 66.76 62.9141C66.6253 63.0635 66.4347 63.2604 66.193 63.435C66.0547 63.5349 65.9139 63.6373 65.7707 63.7415C64.6383 64.5654 63.3545 65.4994 61.9332 66.1698C58.7462 67.6731 54.7481 67.3805 51.8018 66.9876C50.9806 66.8781 50.4037 66.1237 50.5132 65.3025C50.6226 64.4814 51.3771 63.9045 52.1982 64.0139C55.1536 64.408 58.3424 64.5466 60.6534 63.4565C61.8015 62.9149 62.8464 62.1566 64.0092 61.3126C64.1498 61.2106 64.2921 61.1073 64.4366 61.0029L64.4352 61.0039C64.4352 61.0039 64.4355 61.0037 64.4361 61.0032C64.4413 60.9986 64.4707 60.9731 64.5313 60.9058C64.5851 60.8461 64.6255 60.7979 64.6791 60.7338L64.6793 60.7335C64.7158 60.6899 64.7585 60.6388 64.8158 60.5718L64.8297 60.5555C65.0205 60.3319 65.4705 59.8045 66.1532 59.577C66.9391 59.315 67.7886 59.7397 68.0506 60.5257ZM67.2594 62.3453C67.2612 62.3438 67.2621 62.3431 67.2621 62.3432L67.2594 62.3453Z" fill="black"/>
<path fill-rule="evenodd" clip-rule="evenodd" d="M331.961 300.431C332.744 300.161 333.159 299.307 332.889 298.524C332.619 297.741 331.765 297.325 330.982 297.596C330.457 297.777 329.953 297.963 329.464 298.144L329.464 298.144C328.221 298.603 327.073 299.027 325.913 299.248C324.594 299.498 323.39 299.154 322.175 298.415C320.923 297.652 319.777 296.544 318.597 295.388C318.005 294.809 317.055 294.819 316.476 295.411C315.896 296.003 315.906 296.953 316.498 297.532L316.53 297.563L316.53 297.563C317.66 298.669 319.035 300.015 320.615 300.977C322.249 301.972 324.209 302.625 326.473 302.195C327.899 301.924 329.407 301.366 330.722 300.88L330.722 300.88C331.16 300.718 331.576 300.564 331.961 300.431ZM319.012 316.508C319.749 316.129 320.039 315.225 319.661 314.488C319.283 313.751 318.378 313.461 317.642 313.839C315.427 314.976 313.174 315.713 310.857 315.673C309.173 315.644 307.778 314.91 306.387 313.731C305.685 313.136 305.01 312.45 304.308 311.709C304.145 311.537 303.979 311.361 303.811 311.182L303.811 311.181C303.274 310.61 302.714 310.014 302.149 309.46C301.557 308.881 300.607 308.891 300.028 309.483C299.448 310.075 299.458 311.025 300.051 311.604C300.566 312.109 301.065 312.64 301.591 313.2L301.591 313.2C301.767 313.388 301.946 313.578 302.13 313.772C302.845 314.528 303.614 315.313 304.447 316.019C306.125 317.441 308.166 318.627 310.806 318.673C313.798 318.724 316.553 317.77 319.012 316.508ZM298.604 299.138C301.343 299.615 304.09 296.977 304.74 293.246C305.389 289.515 303.695 286.104 300.956 285.627C298.217 285.15 295.47 287.788 294.821 291.519C294.171 295.25 295.865 298.662 298.604 299.138Z" fill="black"/>
</svg>
