<svg width="167" height="45" viewBox="0 0 167 45" fill="none" xmlns="http://www.w3.org/2000/svg">
<path d="M74.6211 16.1503C75.8464 16.8405 76.8041 17.8572 77.4922 19.1995C78.1804 20.5427 78.524 22.1552 78.524 24.0371V36.2728H73.2692V24.7527C73.2692 23.0957 72.8559 21.8224 72.0303 20.9318C71.2047 20.0411 70.0788 19.5949 68.6519 19.5949C67.2005 19.5949 66.0556 20.0411 65.2174 20.9318C64.3791 21.8224 63.9604 23.0966 63.9604 24.7527V36.2728H58.7056V8.41406H63.9604V18.0141C64.6359 17.1108 65.5366 16.4015 66.6624 15.8873C67.7883 15.3731 69.0398 15.1155 70.4161 15.1155C71.9941 15.1146 73.3949 15.4601 74.6211 16.1503Z" fill="#2E2B26"/>
<path d="M96.2236 22.55C95.7226 21.634 95.0471 20.9311 94.1962 20.4422C93.3453 19.9525 92.4319 19.7076 91.4562 19.7076C90.4805 19.7076 89.5798 19.9461 88.7542 20.4232C87.9285 20.9002 87.2585 21.5968 86.7457 22.5128C86.2321 23.4297 85.9762 24.5144 85.9762 25.7696C85.9762 27.0249 86.2321 28.1223 86.7457 29.0637C87.2585 30.0051 87.934 30.727 88.7722 31.2286C89.6105 31.731 90.5049 31.9813 91.4562 31.9813C92.4319 31.9813 93.3453 31.7364 94.1962 31.2476C95.0471 30.7578 95.7226 30.0559 96.2236 29.1389C96.7237 28.2229 96.9742 27.1246 96.9742 25.8449C96.9742 24.5652 96.7237 23.4669 96.2236 22.55ZM81.8662 20.1602C82.7045 18.5295 83.843 17.2743 85.2817 16.3954C86.7204 15.5175 88.3282 15.0776 90.1052 15.0776C91.656 15.0776 93.0143 15.3923 94.1781 16.019C95.3419 16.6467 96.2733 17.4375 96.9742 18.3907V15.4168H102.267V36.273H96.9742V33.2229C96.2987 34.2015 95.3654 35.0114 94.1781 35.6508C92.989 36.2911 91.619 36.6113 90.0681 36.6113C88.3165 36.6113 86.7213 36.1596 85.2826 35.2563C83.8439 34.353 82.7045 33.0796 81.8671 31.4353C81.0288 29.7919 80.6101 27.9028 80.6101 25.7696C80.6083 23.661 81.027 21.7918 81.8662 20.1602Z" fill="#2E2B26"/>
<path d="M114.29 31.4165L119.545 15.417H125.138L117.442 36.2732H111.061L103.404 15.417H109.035L114.29 31.4165Z" fill="#2E2B26"/>
<path d="M139.479 23.8867C139.454 22.5318 138.967 21.4461 138.015 20.6299C137.064 19.8145 135.9 19.4064 134.525 19.4064C133.223 19.4064 132.128 19.8019 131.24 20.5927C130.352 21.3836 129.808 22.4819 129.608 23.8867H139.479ZM144.772 27.4256H129.57C129.695 28.9312 130.22 30.1111 131.146 30.9646C132.072 31.818 133.211 32.2443 134.562 32.2443C136.514 32.2443 137.902 31.4035 138.729 29.722H144.397C143.796 31.73 142.645 33.3797 140.943 34.6721C139.242 35.9655 137.153 36.6112 134.675 36.6112C132.673 36.6112 130.878 36.1659 129.289 35.2744C127.7 34.3837 126.461 33.1231 125.573 31.4906C124.685 29.8599 124.24 27.9771 124.24 25.8439C124.24 23.6854 124.678 21.7908 125.554 20.1592C126.43 18.5276 127.656 17.2733 129.233 16.3945C130.809 15.5165 132.623 15.0767 134.676 15.0767C136.653 15.0767 138.423 15.5038 139.988 16.3573C141.551 17.2107 142.766 18.4215 143.629 19.9896C144.493 21.5586 144.924 23.3589 144.924 25.3914C144.922 26.145 144.872 26.8234 144.772 27.4256Z" fill="#2E2B26"/>
<path d="M164.711 17.4683C166.238 19.0374 167.001 21.2267 167.001 24.0383V36.273H161.745V24.753C161.745 23.0969 161.333 21.8226 160.506 20.932C159.681 20.0414 158.554 19.5951 157.128 19.5951C155.676 19.5951 154.531 20.0414 153.693 20.932C152.855 21.8226 152.436 23.0969 152.436 24.753V36.273H147.181V15.4168H152.436V18.0143C153.136 17.111 154.031 16.4018 155.12 15.8875C156.208 15.3733 157.404 15.1157 158.705 15.1157C161.183 15.1148 163.185 15.8993 164.711 17.4683Z" fill="#2E2B26"/>
<path d="M35.6536 1.28308C35.5098 1.00283 35.3073 0.766118 35.0369 0.571124C34.7665 0.37613 34.4364 0.282715 34.0566 0.282715C33.5159 0.282715 33.0682 0.485871 32.7128 0.901253L31.0652 2.85845L27.5927 6.99413L27.0945 7.58727L25.9876 8.91776C25.6241 9.35038 25.1765 9.56986 24.6357 9.56986C24.1031 9.56986 23.6555 9.34947 23.2919 8.91776L22.1851 7.59543L21.695 7.00229L18.2134 2.85845L16.5667 0.901253C16.2123 0.485871 15.7637 0.282715 15.223 0.282715C14.8432 0.282715 14.5131 0.37613 14.2427 0.571124C13.9723 0.766118 13.7698 1.00283 13.626 1.28308C13.4903 1.56242 13.4316 1.88438 13.4741 2.22358C13.5166 2.57094 13.6513 2.89291 13.8801 3.17316L18.747 9.02841L21.3242 12.1302C21.3839 12.2236 21.4508 12.317 21.5268 12.4013C21.8053 12.7324 22.1354 13.0199 22.498 13.2575C23.1228 13.6475 23.858 13.8679 24.6439 13.8679C25.4297 13.8679 26.1558 13.6475 26.7816 13.2575C27.1361 13.0371 27.449 12.7741 27.7193 12.4612C27.8288 12.3252 27.9391 12.19 28.0322 12.0377L30.5335 9.02932L35.4004 3.17406C35.6283 2.89382 35.7639 2.57185 35.8064 2.22449C35.839 1.88438 35.7883 1.56242 35.6536 1.28308Z" fill="#5DCCB1"/>
<path d="M22.7935 4.46536C23.8117 5.48658 25.4629 5.48658 26.4821 4.46536C27.5003 3.44413 27.5003 1.78805 26.4821 0.765917C25.4629 -0.255306 23.8117 -0.255306 22.7935 0.765917C21.7752 1.78714 21.7752 3.44413 22.7935 4.46536Z" fill="#5DCCB1"/>
<path d="M11.6601 2.0366C11.3463 2.02118 11.0406 2.07923 10.7368 2.21618C10.4329 2.35403 10.1879 2.59347 9.99797 2.92359C9.72759 3.39339 9.67966 3.88405 9.86052 4.4001L10.7268 6.80986L12.5616 11.8933L12.8248 12.6234L13.4198 14.2495C13.6115 14.781 13.5781 15.2798 13.3077 15.7496C13.0418 16.2122 12.6276 16.4906 12.0724 16.5904L10.3769 16.8906L9.61997 17.0194L4.30093 17.9707L1.787 18.4233C1.25166 18.524 0.851963 18.8115 0.58158 19.2813C0.391679 19.6114 0.306675 19.9443 0.340134 20.2762C0.373593 20.6081 0.476682 20.9029 0.646689 21.1677C0.820313 21.4253 1.06899 21.6375 1.38278 21.7699C1.70381 21.9069 2.04925 21.9504 2.40463 21.8924L9.89397 20.5927L13.8611 19.9053C13.9714 19.9007 14.0854 19.888 14.1966 19.8645C14.6216 19.7874 15.0349 19.645 15.421 19.4491C16.0703 19.1008 16.6282 18.5721 17.0207 17.89C17.4132 17.208 17.5868 16.4661 17.5624 15.7279C17.5497 15.3098 17.4792 14.9062 17.3435 14.5153C17.2811 14.352 17.2187 14.1888 17.1337 14.0319L15.7863 10.3551L13.1639 3.20021C13.0364 2.86192 12.8257 2.5844 12.5472 2.37308C12.2723 2.17627 11.9684 2.05927 11.6601 2.0366Z" fill="#3970FF"/>
<path d="M7.97764 14.7974C9.36844 14.4237 10.195 12.9889 9.8224 11.5931C9.44983 10.1982 8.01924 9.36928 6.62753 9.74294C5.23583 10.1175 4.41021 11.5514 4.78278 12.9472C5.15625 14.343 6.58594 15.171 7.97764 14.7974Z" fill="#3970FF"/>
<path d="M0.313728 23.2536C0.143722 23.5184 0.0406325 23.8131 0.00717374 24.1451C-0.026285 24.477 0.057814 24.8099 0.248619 25.1409C0.519002 25.6107 0.918699 25.8973 1.45494 25.998L3.96887 26.4505L9.27616 27.3992L10.0376 27.5362L11.7394 27.8327C12.2947 27.9325 12.7088 28.2109 12.9792 28.6807C13.2451 29.1433 13.2785 29.6421 13.0877 30.1736L12.499 31.7961L12.2323 32.5189L10.3948 37.6142L9.52845 40.0239C9.34759 40.54 9.39552 41.0306 9.6659 41.4995C9.85581 41.8297 10.1009 42.0691 10.4047 42.207C10.7076 42.3439 11.0142 42.4019 11.328 42.3865C11.6373 42.3639 11.9447 42.2541 12.216 42.0482C12.4954 41.8378 12.7052 41.5594 12.8327 41.2211L15.4561 34.0662L16.846 30.277C16.8966 30.179 16.9436 30.0738 16.9789 29.965C17.1245 29.5578 17.2086 29.127 17.2321 28.6934C17.2556 27.9552 17.0784 27.2069 16.6859 26.524C16.2935 25.842 15.7391 25.3205 15.0898 24.9722C14.7218 24.7736 14.3393 24.6339 13.9333 24.5559C13.7614 24.5278 13.5896 24.5006 13.4115 24.4961L9.56372 23.8277L2.07438 22.528C1.719 22.47 1.37356 22.5135 1.05253 22.6504C0.740554 22.791 0.488256 22.9969 0.313728 23.2536Z" fill="#7D69FF"/>
<path d="M9.49232 32.832C9.86489 31.4371 9.03927 30.0023 7.64756 29.6278C6.25676 29.2541 4.82617 30.0821 4.4527 31.4779C4.08013 32.8737 4.90575 34.3076 6.29746 34.6822C7.68826 35.0558 9.11885 34.2278 9.49232 32.832Z" fill="#7D69FF"/>
<path d="M12.9621 43.7162C13.1059 43.9965 13.3085 44.2332 13.5789 44.4282C13.8493 44.6232 14.1793 44.7166 14.5591 44.7166C15.0999 44.7166 15.5475 44.5134 15.9029 44.098L17.5505 42.1408L21.023 38.0052L21.5213 37.412L22.6281 36.0815C22.9916 35.6489 23.4393 35.4294 23.98 35.4294C24.5127 35.4294 24.9603 35.6498 25.3238 36.0815L26.4307 37.4039L26.9208 37.997L30.4023 42.1408L32.0499 44.098C32.4044 44.5134 32.8529 44.7166 33.3937 44.7166C33.7735 44.7166 34.1036 44.6232 34.374 44.4282C34.6443 44.2332 34.8469 43.9965 34.9907 43.7162C35.1263 43.4369 35.1851 43.1149 35.1426 42.7757C35.1001 42.4284 34.9654 42.1064 34.7366 41.8261L29.8697 35.9709L27.2924 32.8691C27.2328 32.7757 27.1658 32.6823 27.0899 32.598C26.8114 32.2678 26.4813 31.9794 26.1187 31.7418C25.4938 31.3527 24.7586 31.1323 23.9728 31.1323C23.187 31.1323 22.4608 31.3527 21.8351 31.7418C21.4806 31.9622 21.1677 32.2252 20.8973 32.5381C20.7879 32.6741 20.6776 32.8093 20.5844 32.9616L18.0831 35.97L13.2163 41.8252C12.9884 42.1055 12.8527 42.4274 12.8102 42.7748C12.7759 43.1149 12.8265 43.4369 12.9621 43.7162Z" fill="#EABFAC"/>
<path d="M25.8209 40.534C24.8027 39.5128 23.1515 39.5128 22.1323 40.534C21.1141 41.5552 21.1141 43.2122 22.1323 44.2334C23.1515 45.2546 24.8027 45.2546 25.8209 44.2334C26.8401 43.2122 26.8401 41.5561 25.8209 40.534Z" fill="#EABFAC"/>
<path d="M36.9557 42.9624C37.2695 42.9778 37.5752 42.9198 37.879 42.7828C38.1829 42.645 38.4279 42.4055 38.6178 42.0754C38.8882 41.6056 38.9361 41.115 38.7553 40.5989L37.889 38.1891L36.0542 33.1048L35.791 32.3756L35.196 30.7495C35.0043 30.218 35.0377 29.7192 35.3081 29.2494C35.574 28.7868 35.9882 28.5084 36.5434 28.4086L38.2389 28.1084L38.9958 27.9796L44.3148 27.0283L46.8288 26.5757C47.3641 26.475 47.7638 26.1875 48.0342 25.7177C48.2241 25.3876 48.3091 25.0547 48.2756 24.7228C48.2422 24.3909 48.1391 24.0961 47.9691 23.8313C47.7955 23.5737 47.5468 23.3615 47.233 23.2291C46.912 23.0921 46.5665 23.0486 46.2102 23.1066L38.7209 24.4063L34.7538 25.0937C34.6435 25.0983 34.5295 25.111 34.4183 25.1345C33.9933 25.2116 33.58 25.354 33.1939 25.5499C32.5446 25.8982 31.9867 26.4269 31.5942 27.109C31.2018 27.791 31.0281 28.5329 31.0525 29.2711C31.0652 29.6892 31.1357 30.0928 31.2714 30.4837C31.3338 30.647 31.3962 30.8102 31.4812 30.9671L32.8286 34.643L35.451 41.7979C35.5785 42.1362 35.7892 42.4137 36.0677 42.625C36.3426 42.8227 36.6465 42.9397 36.9557 42.9624Z" fill="#F5BF57"/>
<path d="M40.637 30.202C39.2462 30.5757 38.4197 32.0104 38.7922 33.4062C39.1648 34.8011 40.5954 35.6301 41.9871 35.2555C43.3788 34.8818 44.2045 33.4471 43.8319 32.0522C43.4584 30.6564 42.0287 29.8283 40.637 30.202Z" fill="#F5BF57"/>
<path d="M48.3009 21.7453C48.4709 21.4805 48.574 21.1857 48.6074 20.8538C48.6409 20.5218 48.5568 20.189 48.366 19.8589C48.0956 19.3891 47.6959 19.1016 47.1597 19.0009L44.6457 18.5483L39.3385 17.5996L38.577 17.4627L36.8752 17.1661C36.3199 17.0664 35.9058 16.7879 35.6354 16.3181C35.3695 15.8556 35.3361 15.3568 35.5269 14.8253L36.1156 13.2028L36.3823 12.4808L38.2199 7.38561L39.0862 4.97586C39.267 4.46071 39.2191 3.97005 38.9487 3.50025C38.7588 3.17013 38.5137 2.93069 38.2099 2.79284C37.907 2.65589 37.6004 2.59784 37.2875 2.61326C36.9783 2.63593 36.6708 2.74567 36.3995 2.95155C36.1201 3.16196 35.9103 3.4404 35.7828 3.77869L33.1594 10.9336L31.7695 14.7228C31.7189 14.8208 31.6719 14.926 31.6366 15.0339C31.491 15.4411 31.4069 15.8719 31.3834 16.3054C31.3599 17.0437 31.5371 17.7919 31.9296 18.4749C32.3221 19.1569 32.8764 19.6784 33.5257 20.0266C33.8937 20.2253 34.2762 20.3649 34.6823 20.4429C34.8541 20.4701 35.0259 20.4983 35.204 20.5028L39.0518 21.1712L46.5411 22.4709C46.8965 22.5289 47.242 22.4854 47.563 22.3484C47.8741 22.2078 48.1273 22.0029 48.3009 21.7453Z" fill="#3CC5E7"/>
<path d="M39.1231 12.167C38.7505 13.5619 39.5762 14.9967 40.9679 15.3713C42.3587 15.7449 43.7893 14.9169 44.1627 13.5211C44.5353 12.1253 43.7097 10.6914 42.318 10.3169C40.9263 9.9441 39.4957 10.7721 39.1231 12.167Z" fill="#3CC5E7"/>
</svg>
