<svg width="120" height="779" viewBox="0 0 120 779" fill="none" xmlns="http://www.w3.org/2000/svg">
<path d="M0.0205078 598.595C0.0205078 565.704 26.6843 539.04 59.5758 539.04H120V598.595C120 631.487 93.3366 658.151 60.4452 658.151H0.0205078V598.595Z" fill="#26272B"/>
<path d="M120 718.575C120 751.947 92.947 779 59.5753 779L0.0200729 779L0.0200835 658.151L59.5754 658.151C92.947 658.151 120 685.204 120 718.575Z" fill="#7D69FF"/>
<path d="M120 419.06L120 539.04L60.01 539.04C26.8785 539.04 0.0200841 512.182 0.0200856 479.05L0.0200882 419.06L120 419.06Z" fill="#F5BF57"/>
<path d="M1.02051 299.08C1.02051 266.501 27.4312 240.09 60.0105 240.09C92.5897 240.09 119 266.501 119 299.08V358.07H1.02051V299.08Z" stroke="#26272B" stroke-width="2"/>
<path d="M60.0107 239.09L60.0107 358.201" stroke="black" stroke-width="2"/>
<mask id="path-6-inside-1_120_12796" fill="white">
<path d="M120 299.08C120 291.202 118.449 283.401 115.434 276.123C112.419 268.845 108 262.232 102.43 256.661C96.8592 251.09 90.2459 246.672 82.9676 243.657C75.6893 240.642 67.8885 239.09 60.0105 239.09C52.1325 239.09 44.3316 240.642 37.0533 243.657C29.775 246.672 23.1617 251.09 17.5912 256.661C12.0206 262.232 7.60175 268.845 4.58697 276.123C1.57219 283.401 0.0205071 291.202 0.0205078 299.08L60.0105 299.08H120Z"/>
</mask>
<path d="M120 299.08C120 291.202 118.449 283.401 115.434 276.123C112.419 268.845 108 262.232 102.43 256.661C96.8592 251.09 90.2459 246.672 82.9676 243.657C75.6893 240.642 67.8885 239.09 60.0105 239.09C52.1325 239.09 44.3316 240.642 37.0533 243.657C29.775 246.672 23.1617 251.09 17.5912 256.661C12.0206 262.232 7.60175 268.845 4.58697 276.123C1.57219 283.401 0.0205071 291.202 0.0205078 299.08L60.0105 299.08H120Z" stroke="#26272B" stroke-width="4" mask="url(#path-6-inside-1_120_12796)"/>
<circle cx="60.0105" cy="359.071" r="58.99" stroke="#26272B" stroke-width="2"/>
<path d="M0.0205078 179.535C0.0205078 146.644 27.119 119.98 60.0105 119.98C92.9019 119.98 120 146.644 120 179.535C120 212.427 92.9019 239.09 60.0105 239.09C27.119 239.09 0.0205078 212.427 0.0205078 179.535Z" fill="#FFD9DC"/>
<path d="M0.0205078 59.9899C0.0205078 26.8584 26.8789 0 60.0105 0H120V59.99C120 93.1215 93.142 119.98 60.0104 119.98H0.0205078V59.9899Z" fill="#0A6259"/>
<path fill-rule="evenodd" clip-rule="evenodd" d="M30.4492 491.222C30.4492 493.623 29.0868 495.569 27.4062 495.569C25.7257 495.569 24.3633 493.623 24.3633 491.222C24.3633 488.821 25.7257 486.875 27.4062 486.875C29.0868 486.875 30.4492 488.821 30.4492 491.222ZM48.707 491.222C48.707 493.623 47.3447 495.569 45.6641 495.569C43.9835 495.569 42.6211 493.623 42.6211 491.222C42.6211 488.821 43.9835 486.875 45.6641 486.875C47.3447 486.875 48.707 488.821 48.707 491.222ZM48.0678 499.442C48.311 500.172 47.9624 500.956 47.2824 501.274C47.2612 501.297 47.2353 501.326 47.2012 501.366C47.1879 501.381 47.1689 501.404 47.146 501.431L47.1454 501.432C47.08 501.51 46.9841 501.624 46.9054 501.712C46.7845 501.846 46.6081 502.029 46.3817 502.192C46.2621 502.279 46.14 502.367 46.0155 502.458L46.0154 502.458C45.0325 503.173 43.9007 503.997 42.647 504.588C39.819 505.922 36.2901 505.658 33.7291 505.316C32.9079 505.207 32.331 504.452 32.4405 503.631C32.55 502.81 33.3044 502.233 34.1256 502.343C36.6956 502.685 39.4151 502.796 41.3671 501.875C42.3477 501.412 43.2406 500.764 44.2541 500.029L44.2541 500.029C44.3728 499.943 44.4933 499.855 44.6157 499.767C44.6207 499.762 44.6402 499.744 44.6768 499.703C44.7216 499.654 44.7536 499.615 44.798 499.562L44.7981 499.562C44.8297 499.524 44.8676 499.479 44.9208 499.417C45.0209 499.3 45.1705 499.129 45.3539 498.97C45.5392 498.809 45.8103 498.613 46.1704 498.493C46.9564 498.231 47.8058 498.656 48.0678 499.442Z" fill="black"/>
</svg>
