<svg width="301" height="836" viewBox="0 0 301 836" fill="none" xmlns="http://www.w3.org/2000/svg">
<path d="M131.654 59.9899C131.654 26.8584 158.512 0 191.644 0H263.285V71.6416C263.285 104.773 236.427 131.631 203.295 131.631H131.654V59.9899Z" fill="#0A6259"/>
<path d="M41.6903 270.987L41.6903 131.654L100.024 131.654C144.759 131.654 181.024 167.918 181.024 212.654L181.024 270.987L41.6903 270.987Z" fill="#F5BF57"/>
<path d="M263.307 571.596L131.654 571.596L131.654 520.942C131.654 476.207 167.919 439.942 212.654 439.942L263.307 439.942L263.307 571.596Z" fill="#F6A892"/>
<path d="M131.654 836L131.654 704.346L203.307 704.346C236.444 704.346 263.307 731.209 263.307 764.346L263.307 836L131.654 836Z" fill="#F5BF57"/>
<path d="M131.654 374.725C131.654 338.639 161.384 309.386 197.469 309.386V309.386C233.555 309.386 263.285 338.639 263.285 374.725V374.725C263.285 410.81 233.555 440.063 197.469 440.063V440.063C161.384 440.063 131.654 410.81 131.654 374.725V374.725Z" fill="#7D69FF"/>
<path d="M279.764 247.447C256.409 247.447 237.476 228.515 237.476 205.16C237.476 181.805 256.409 162.873 279.764 162.873C303.118 162.873 322.051 181.805 322.051 205.16C322.051 228.515 303.118 247.447 279.764 247.447Z" stroke="black"/>
<path d="M279.764 234.282C263.68 234.282 250.642 221.244 250.642 205.16C250.642 189.076 263.68 176.038 279.764 176.038C295.847 176.038 308.886 189.076 308.886 205.16C308.886 221.244 295.847 234.282 279.764 234.282Z" stroke="black"/>
<path d="M0 769.685C0 733.6 29.7301 704.347 65.8157 704.347V704.347C101.901 704.347 131.631 733.6 131.631 769.685V769.685C131.631 805.771 101.901 835.024 65.8157 835.024V835.024C29.7301 835.024 0 805.771 0 769.685V769.685Z" fill="#0A6259"/>
<path d="M72.2195 439.942C105.111 439.942 131.775 466.606 131.775 499.498L131.775 571.574L60.6522 571.574C27.7608 571.574 1.09703 544.91 1.09703 512.019L1.09703 439.942L72.2195 439.942Z" fill="#26272B"/>
<path d="M263.285 704.181L131.654 704.181L131.654 571.596L263.285 571.596L263.285 704.181Z" fill="#72C78E"/>
<path d="M0 637.888C0 601.276 29.6803 571.596 66.2927 571.596H131.632L131.632 704.181H66.2927C29.6802 704.181 0 674.501 0 637.888V637.888Z" fill="#7D69FF"/>
</svg>
