<svg width="52" height="52" viewBox="0 0 52 52" fill="none" xmlns="http://www.w3.org/2000/svg">
<path d="M50.5886 29.6319H32.4551V20.9564C32.4551 20.1768 31.8233 19.545 31.0436 19.545H29.3201V1.41147C29.3201 0.6318 28.6878 0 27.9086 0H8.36418C7.58451 0 6.95271 0.6318 6.95271 1.41147V19.545H1.41147C0.6318 19.545 0 20.1768 0 20.9564V50.5881C0 51.3678 0.6318 51.9996 1.41147 51.9996H50.5887C51.3683 51.9996 52.0001 51.3678 52.0001 50.5881V31.0426C52.0001 30.2634 51.3683 29.6312 50.5887 29.6312L50.5886 29.6319ZM9.77586 2.82315H15.6183V5.27981C15.6183 5.52934 15.7175 5.76878 15.8939 5.94522C16.0703 6.12165 16.3098 6.22079 16.5593 6.22079H19.7137C19.9632 6.22079 20.2022 6.12165 20.3787 5.94522C20.5555 5.76878 20.6547 5.52934 20.6547 5.27981V2.82315H26.4971V19.5457H9.77565L9.77586 2.82315ZM2.82315 22.3686H13.3516V27.308V27.3076C13.3516 27.5571 13.4507 27.7965 13.6272 27.973C13.8036 28.1494 14.043 28.2485 14.2926 28.2485H18.1627C18.4123 28.2485 18.6517 28.1494 18.8281 27.973C19.0046 27.7965 19.1037 27.5571 19.1037 27.3076V22.3687H29.6321V49.1774H2.82337L2.82315 22.3686ZM49.1774 49.1774H32.4549V32.4549H38.2982V34.9127H38.2986C38.2986 35.1622 38.3977 35.4017 38.5742 35.5781C38.7506 35.7545 38.9901 35.8537 39.2396 35.8537H42.3927C42.6422 35.8537 42.8816 35.7545 43.0581 35.5781C43.2345 35.4017 43.3336 35.1622 43.3336 34.9127V32.4549H49.177L49.1774 49.1774Z" fill="black"/>
</svg>
