
<svg width="95px" height="83px" viewBox="0 0 95 83" version="1.1" xmlns="http://www.w3.org/2000/svg" xmlns:xlink="http://www.w3.org/1999/xlink">
    <g id="Page-1" stroke="none" stroke-width="1" fill="none" fill-rule="evenodd">
        <g id="Artboard" transform="translate(-373.000000, -127.000000)">
            <g id="Group-2" transform="translate(373.000000, 127.000000)">
                <path d="M11.836,15.727 C14.588,18.893 18.76,23.672 26.631,23.672 C34.502,23.672 38.674,18.893 41.426,15.727 C44.178,12.561 45.036,11.836 47.344,11.836 C49.652,11.836 50.673,12.783 53.262,15.727 C55.851,18.671 60.186,23.672 68.057,23.672 C75.928,23.672 80.101,18.893 82.853,15.727 C85.604,12.561 86.463,11.836 88.771,11.836 L94.689,11.836 L94.689,0 L88.771,0 C80.9,0 76.727,4.779 73.975,7.945 C71.224,11.111 70.351,11.836 68.057,11.836 C65.764,11.836 64.729,10.889 62.139,7.945 C59.55,5.001 55.201,0 47.344,0 C39.488,0 35.301,4.779 32.549,7.945 C29.797,11.111 28.924,11.836 26.631,11.836 C24.338,11.836 23.302,10.889 20.713,7.945 C18.124,5.001 13.774,0 5.918,0 L0,0 L0,11.836 L5.918,11.836 C8.211,11.836 9.247,12.783 11.836,15.727" id="Fill-268" fill="#8FBFA4"></path>
                <path d="M11.836,45.3172 C14.588,48.4832 18.76,53.2622 26.631,53.2622 C34.502,53.2622 38.674,48.4832 41.426,45.3172 C44.178,42.1512 45.036,41.4262 47.344,41.4262 C49.652,41.4262 50.673,42.3732 53.262,45.3172 C55.851,48.2612 60.186,53.2622 68.057,53.2622 C75.928,53.2622 80.101,48.4832 82.853,45.3172 C85.604,42.1512 86.463,41.4262 88.771,41.4262 L94.689,41.4262 L94.689,29.5902 L88.771,29.5902 C80.9,29.5902 76.727,34.3692 73.975,37.5352 C71.224,40.7012 70.351,41.4262 68.057,41.4262 C65.764,41.4262 64.729,40.4792 62.139,37.5352 C59.55,34.5912 55.201,29.5902 47.344,29.5902 C39.488,29.5902 35.301,34.3692 32.549,37.5352 C29.797,40.7012 28.924,41.4262 26.631,41.4262 C24.338,41.4262 23.302,40.4792 20.713,37.5352 C18.124,34.5912 13.774,29.5902 5.918,29.5902 L0,29.5902 L0,41.4262 L5.918,41.4262 C8.211,41.4262 9.247,42.3732 11.836,45.3172" id="Fill-270" fill="#4C705D"></path>
                <path d="M5.918,71.0163 C8.211,71.0163 9.247,71.9633 11.836,74.9073 C14.425,77.8513 18.76,82.8523 26.631,82.8523 C34.502,82.8523 38.674,78.0733 41.426,74.9073 C44.178,71.7413 45.036,71.0163 47.344,71.0163 C49.652,71.0163 50.673,71.9633 53.262,74.9073 C55.851,77.8513 60.186,82.8523 68.057,82.8523 C75.928,82.8523 80.101,78.0733 82.853,74.9073 C85.604,71.7413 86.463,71.0163 88.771,71.0163 L94.689,71.0163 L94.689,59.1803 L88.771,59.1803 C80.9,59.1803 76.727,63.9593 73.975,67.1253 C71.224,70.2913 70.351,71.0163 68.057,71.0163 C65.764,71.0163 64.729,70.0693 62.139,67.1253 C59.55,64.1813 55.201,59.1803 47.344,59.1803 C39.488,59.1803 35.301,63.9593 32.549,67.1253 C29.797,70.2913 28.924,71.0163 26.631,71.0163 C24.338,71.0163 23.302,70.0693 20.713,67.1253 C18.124,64.1813 13.774,59.1803 5.918,59.1803 L0,59.1803 L0,71.0163 L5.918,71.0163 Z" id="Fill-272" fill="#FFFFFE"></path>
            </g>
        </g>
    </g>
</svg>
