<svg width="168" height="168" viewBox="0 0 168 168" fill="none" xmlns="http://www.w3.org/2000/svg">
<g filter="url(#filter0_d_541_13550)">
<rect x="4" width="160" height="160" rx="8" fill="white"/>
</g>
<path d="M130.138 121.753H117.621V65.1377C117.621 64.7766 117.446 64.4365 117.15 64.2263C116.86 64.0153 116.48 63.9605 116.138 64.0761L107.476 67.0235L107.475 38.1208C107.475 37.5022 106.971 37 106.353 37H68.3328C67.7142 37 67.212 37.5022 67.212 38.1208V50.2923H50.6549C50.0363 50.2923 49.5341 50.7945 49.5341 51.4131V121.755L38.1208 121.755C37.5022 121.755 37 122.259 37 122.878C37 123.496 37.5022 124 38.1208 124H130.139C130.757 124 131.261 123.496 131.261 122.878C131.26 122.259 130.757 121.755 130.138 121.755L130.138 121.753ZM69.4555 39.2408H105.231V67.7879L84.6976 74.7748V51.4147C84.6976 50.7961 84.1954 50.2939 83.5768 50.2939H69.4543L69.4555 39.2408ZM51.7768 52.5338H82.4571V121.755H74.986V100.242C74.986 99.6231 74.4837 99.1194 73.8651 99.1194H58.5286C57.91 99.1194 57.4078 99.6231 57.4078 100.242V121.755H51.7774L51.7768 52.5338ZM59.6489 101.364H65.075V109.277C64.2334 109.693 63.6531 110.558 63.6531 111.56C63.6531 112.559 64.2342 113.424 65.075 113.839V121.754H59.6489V101.364ZM67.3174 121.755V113.839C68.159 113.423 68.7393 112.559 68.7393 111.56C68.7393 110.559 68.1582 109.694 67.3174 109.278V101.364H72.7435V121.755L67.3174 121.755ZM84.6988 121.755V77.145L115.377 66.7047V121.756L84.6988 121.755Z" fill="#808080"/>
<path d="M55.2453 66.2599H64.3974C65.016 66.2599 65.5182 65.7577 65.5182 65.1391V57.5749C65.5182 56.9563 65.0159 56.4541 64.3974 56.4541H55.2453C54.6267 56.4541 54.1245 56.9563 54.1245 57.5749V65.1391C54.1245 65.757 54.6267 66.2599 55.2453 66.2599ZM56.3662 58.6957H63.2758V64.0175H56.3662V58.6957Z" fill="#808080"/>
<path d="M69.8379 66.2599H78.9899C79.6085 66.2599 80.1107 65.7577 80.1107 65.1391V57.5749C80.1107 56.9563 79.6085 56.4541 78.9899 56.4541H69.8379C69.2193 56.4541 68.717 56.9563 68.717 57.5749V65.1391C68.717 65.757 69.2193 66.2599 69.8379 66.2599ZM70.9594 58.6957H77.8691V64.0175H70.9594V58.6957Z" fill="#808080"/>
<path d="M97.3185 78.9307H88.1665C87.5479 78.9307 87.0442 79.4329 87.0442 80.0515V87.6157C87.0442 88.2343 87.5479 88.738 88.1665 88.738H97.3185C97.9371 88.738 98.4409 88.2343 98.4409 87.6157V80.0515C98.4409 79.4337 97.9371 78.9307 97.3185 78.9307ZM96.1962 86.4935H89.2889V81.1731H96.1962V86.4935Z" fill="#808080"/>
<path d="M111.911 78.9307H102.759C102.14 78.9307 101.637 79.4329 101.637 80.0515V87.6157C101.637 88.2343 102.14 88.738 102.759 88.738H111.911C112.53 88.738 113.033 88.2343 113.033 87.6157V80.0515C113.033 79.4337 112.53 78.9307 111.911 78.9307ZM110.789 86.4935H103.881V81.1731H110.789V86.4935Z" fill="#808080"/>
<path d="M55.2453 81.1716H64.3974C65.016 81.1716 65.5182 80.6693 65.5182 80.0507V72.4865C65.5182 71.8679 65.0159 71.3657 64.3974 71.3657H55.2453C54.6267 71.3657 54.1245 71.868 54.1245 72.4865V80.0507C54.1245 80.6693 54.6267 81.1716 55.2453 81.1716ZM56.3662 73.6074H63.2758V78.9292H56.3662V73.6074Z" fill="#808080"/>
<path d="M69.8379 81.1716H78.9899C79.6085 81.1716 80.1107 80.6693 80.1107 80.0507V72.4865C80.1107 71.8679 79.6085 71.3657 78.9899 71.3657H69.8379C69.2193 71.3657 68.717 71.868 68.717 72.4865V80.0507C68.717 80.6693 69.2193 81.1716 69.8379 81.1716ZM70.9594 73.6074H77.8691V78.9292H70.9594V73.6074Z" fill="#808080"/>
<path d="M64.3971 96.0872C65.0157 96.0872 65.5179 95.5834 65.5179 94.9648V87.4006C65.5179 86.782 65.0157 86.2783 64.3971 86.2783H55.2451C54.6265 86.2783 54.1243 86.7821 54.1243 87.4006V94.9648C54.1243 95.5834 54.6265 96.0872 55.2451 96.0872H64.3971ZM56.3659 88.523H63.2755V93.8419H56.3659V88.523Z" fill="#808080"/>
<path d="M69.8379 96.0872H78.9899C79.6085 96.0872 80.1107 95.5834 80.1107 94.9648V87.4006C80.1107 86.782 79.6085 86.2783 78.9899 86.2783H69.8379C69.2193 86.2783 68.717 86.7821 68.717 87.4006V94.9648C68.717 95.5827 69.2193 96.0872 69.8379 96.0872ZM70.9594 88.523H77.8691V93.8419H70.9594V88.523Z" fill="#808080"/>
<path d="M97.3185 92.8833H88.1665C87.5479 92.8833 87.0442 93.387 87.0442 94.0056V101.57C87.0442 102.188 87.5479 102.692 88.1665 102.692H97.3185C97.9371 102.692 98.4409 102.188 98.4409 101.57V94.0056C98.4409 93.387 97.9371 92.8833 97.3185 92.8833ZM96.1962 100.448H89.2889V95.1278H96.1962V100.448Z" fill="#808080"/>
<path d="M111.911 92.8833H102.759C102.14 92.8833 101.637 93.387 101.637 94.0056V101.57C101.637 102.188 102.14 102.692 102.759 102.692H111.911C112.53 102.692 113.033 102.188 113.033 101.57V94.0056C113.033 93.387 112.53 92.8833 111.911 92.8833ZM110.789 100.448H103.881V95.1278H110.789V100.448Z" fill="#808080"/>
<path d="M97.3185 107.797H88.1665C87.5479 107.797 87.0442 108.301 87.0442 108.919V116.483C87.0442 117.102 87.5479 117.606 88.1665 117.606H97.3185C97.9371 117.606 98.4409 117.102 98.4409 116.483V108.919C98.4409 108.301 97.9371 107.797 97.3185 107.797ZM96.1962 115.361H89.2889V110.041H96.1962V115.361Z" fill="#808080"/>
<path d="M111.911 107.797H102.759C102.14 107.797 101.637 108.301 101.637 108.919V116.483C101.637 117.102 102.14 117.606 102.759 117.606H111.911C112.53 117.606 113.033 117.102 113.033 116.483V108.919C113.033 108.301 112.53 107.797 111.911 107.797ZM110.789 115.361H103.881V110.041H110.789V115.361Z" fill="#808080"/>
<path d="M90.9878 66.2218H100.704C101.322 66.2218 101.826 65.7195 101.826 65.101V57.6096C101.826 56.991 101.322 56.4888 100.704 56.4888H90.9878C90.3692 56.4888 89.8655 56.991 89.8655 57.6096V65.101C89.8655 65.7196 90.3692 66.2218 90.9878 66.2218ZM92.1101 58.7304H99.5813V63.9794H92.1101V58.7304Z" fill="#808080"/>
<path d="M90.9878 50.1085H100.704C101.322 50.1085 101.826 49.6063 101.826 48.9877V41.4963C101.826 40.8777 101.322 40.3755 100.704 40.3755H90.9878C90.3692 40.3755 89.8655 40.8777 89.8655 41.4963V48.9877C89.8655 49.6063 90.3692 50.1085 90.9878 50.1085ZM92.1101 42.6171H99.5813V47.8661H92.1101V42.6171Z" fill="#808080"/>
<path d="M84.4267 46.6897V42.03C84.4267 41.4114 83.9244 40.9092 83.3058 40.9092H73.081C72.4624 40.9092 71.9602 41.4114 71.9602 42.03C71.9602 42.6486 72.4624 43.1508 73.081 43.1508H82.185V46.6889C82.185 47.3075 82.6872 47.8098 83.3058 47.8098C83.9244 47.8105 84.4267 47.3083 84.4267 46.6897V46.6897Z" fill="#808080"/>
<defs>
<filter id="filter0_d_541_13550" x="0" y="0" width="168" height="168" filterUnits="userSpaceOnUse" color-interpolation-filters="sRGB">
<feFlood flood-opacity="0" result="BackgroundImageFix"/>
<feColorMatrix in="SourceAlpha" type="matrix" values="0 0 0 0 0 0 0 0 0 0 0 0 0 0 0 0 0 0 127 0" result="hardAlpha"/>
<feOffset dy="4"/>
<feGaussianBlur stdDeviation="2"/>
<feComposite in2="hardAlpha" operator="out"/>
<feColorMatrix type="matrix" values="0 0 0 0 0 0 0 0 0 0 0 0 0 0 0 0 0 0 0.05 0"/>
<feBlend mode="normal" in2="BackgroundImageFix" result="effect1_dropShadow_541_13550"/>
<feBlend mode="normal" in="SourceGraphic" in2="effect1_dropShadow_541_13550" result="shape"/>
</filter>
</defs>
</svg>
