<svg width="78" height="78" viewBox="0 0 78 78" fill="none" xmlns="http://www.w3.org/2000/svg">
<g filter="url(#filter0_d_461_14823)">
<rect x="4" width="70" height="70" rx="8" fill="white"/>
</g>
<path d="M59.1853 53.2671H53.7092V28.4977C53.7092 28.3397 53.6327 28.191 53.5033 28.099C53.3761 28.0067 53.2099 27.9827 53.0602 28.0333L49.2707 29.3228L49.2703 16.6779C49.2703 16.4072 49.05 16.1875 48.7793 16.1875H32.1456C31.875 16.1875 31.6553 16.4072 31.6553 16.6779V22.0029H24.4115C24.1409 22.0029 23.9212 22.2226 23.9212 22.4932V53.2676L18.9279 53.268C18.6572 53.268 18.4375 53.4884 18.4375 53.759C18.4375 54.0296 18.6572 54.25 18.9279 54.25H59.1857C59.4564 54.25 59.6768 54.0296 59.6768 53.759C59.6764 53.4883 59.4561 53.268 59.1854 53.268L59.1853 53.2671ZM32.6368 17.1678H48.2884V29.6572L39.3052 32.714V22.4939C39.3052 22.2233 39.0855 22.0036 38.8149 22.0036H32.6363L32.6368 17.1678ZM24.9023 22.9835H38.325V53.2678H35.0564V43.8558C35.0564 43.5851 34.8366 43.3647 34.566 43.3647H27.8563C27.5856 43.3647 27.3659 43.5851 27.3659 43.8558V53.2678H24.9026L24.9023 22.9835ZM28.3464 44.3468H30.7203V47.8089C30.3521 47.9909 30.0982 48.3692 30.0982 48.8074C30.0982 49.2445 30.3525 49.6229 30.7203 49.8045V53.2676H28.3464V44.3468ZM31.7014 53.2678V49.8046C32.0695 49.6227 32.3234 49.2446 32.3234 48.8075C32.3234 48.3694 32.0692 47.991 31.7014 47.8091V44.347H34.0753V53.2679L31.7014 53.2678ZM39.3057 53.2678V33.7509L52.7275 29.1833V53.2683L39.3057 53.2678Z" fill="#808080"/>
<path d="M26.4198 28.9888H30.4238C30.6945 28.9888 30.9142 28.7691 30.9142 28.4984V25.1891C30.9142 24.9185 30.6944 24.6987 30.4238 24.6987H26.4198C26.1492 24.6987 25.9294 24.9185 25.9294 25.1891V28.4984C25.9294 28.7687 26.1492 28.9888 26.4198 28.9888ZM26.9102 25.6794H29.9331V28.0077H26.9102V25.6794Z" fill="#808080"/>
<path d="M32.8041 28.9888H36.8081C37.0787 28.9888 37.2985 28.7691 37.2985 28.4984V25.1891C37.2985 24.9185 37.0787 24.6987 36.8081 24.6987H32.8041C32.5334 24.6987 32.3137 24.9185 32.3137 25.1891V28.4984C32.3137 28.7687 32.5334 28.9888 32.8041 28.9888ZM33.2948 25.6794H36.3177V28.0077H33.2948V25.6794Z" fill="#808080"/>
<path d="M44.8271 34.5322H40.823C40.5524 34.5322 40.332 34.752 40.332 35.0226V38.3319C40.332 38.6026 40.5524 38.8229 40.823 38.8229H44.8271C45.0977 38.8229 45.3181 38.6026 45.3181 38.3319V35.0226C45.3181 34.7523 45.0977 34.5322 44.8271 34.5322ZM44.336 37.841H41.3141V35.5133H44.336V37.841Z" fill="#808080"/>
<path d="M51.2111 34.5322H47.2071C46.9364 34.5322 46.7161 34.752 46.7161 35.0226V38.3319C46.7161 38.6026 46.9364 38.8229 47.2071 38.8229H51.2111C51.4817 38.8229 51.7021 38.6026 51.7021 38.3319V35.0226C51.7021 34.7523 51.4817 34.5322 51.2111 34.5322ZM50.7201 37.841H47.6981V35.5133H50.7201V37.841Z" fill="#808080"/>
<path d="M26.4198 35.5125H30.4238C30.6945 35.5125 30.9142 35.2927 30.9142 35.0221V31.7128C30.9142 31.4421 30.6944 31.2224 30.4238 31.2224H26.4198C26.1492 31.2224 25.9294 31.4421 25.9294 31.7128V35.0221C25.9294 35.2927 26.1492 35.5125 26.4198 35.5125ZM26.9102 32.2031H29.9331V34.5314H26.9102V32.2031Z" fill="#808080"/>
<path d="M32.8041 35.5125H36.8081C37.0787 35.5125 37.2985 35.2927 37.2985 35.0221V31.7128C37.2985 31.4421 37.0787 31.2224 36.8081 31.2224H32.8041C32.5334 31.2224 32.3137 31.4421 32.3137 31.7128V35.0221C32.3137 35.2927 32.5334 35.5125 32.8041 35.5125ZM33.2948 32.2031H36.3177V34.5314H33.2948V32.2031Z" fill="#808080"/>
<path d="M30.4237 42.0379C30.6943 42.0379 30.9141 41.8176 30.9141 41.5469V38.2376C30.9141 37.967 30.6943 37.7466 30.4237 37.7466H26.4197C26.149 37.7466 25.9293 37.967 25.9293 38.2376V41.5469C25.9293 41.8176 26.149 42.0379 26.4197 42.0379H30.4237ZM26.91 38.7286H29.933V41.0556H26.91V38.7286Z" fill="#808080"/>
<path d="M32.8041 42.0379H36.8081C37.0787 42.0379 37.2985 41.8176 37.2985 41.5469V38.2376C37.2985 37.967 37.0787 37.7466 36.8081 37.7466H32.8041C32.5334 37.7466 32.3137 37.967 32.3137 38.2376V41.5469C32.3137 41.8172 32.5334 42.0379 32.8041 42.0379ZM33.2948 38.7286H36.3177V41.0556H33.2948V38.7286Z" fill="#808080"/>
<path d="M44.8271 40.6365H40.823C40.5524 40.6365 40.332 40.8569 40.332 41.1275V44.4368C40.332 44.7075 40.5524 44.9278 40.823 44.9278H44.8271C45.0977 44.9278 45.3181 44.7075 45.3181 44.4368V41.1275C45.3181 40.8568 45.0977 40.6365 44.8271 40.6365ZM44.336 43.9458H41.3141V41.6185H44.336V43.9458Z" fill="#808080"/>
<path d="M51.2111 40.6365H47.2071C46.9364 40.6365 46.7161 40.8569 46.7161 41.1275V44.4368C46.7161 44.7075 46.9364 44.9278 47.2071 44.9278H51.2111C51.4817 44.9278 51.7021 44.7075 51.7021 44.4368V41.1275C51.7021 40.8568 51.4817 40.6365 51.2111 40.6365ZM50.7201 43.9458H47.6981V41.6185H50.7201V43.9458Z" fill="#808080"/>
<path d="M44.8271 47.1611H40.823C40.5524 47.1611 40.332 47.3815 40.332 47.6521V50.9615C40.332 51.2321 40.5524 51.4525 40.823 51.4525H44.8271C45.0977 51.4525 45.3181 51.2321 45.3181 50.9615V47.6521C45.3181 47.3815 45.0977 47.1611 44.8271 47.1611ZM44.336 50.4705H41.3141V48.1431H44.336V50.4705Z" fill="#808080"/>
<path d="M51.2111 47.1611H47.2071C46.9364 47.1611 46.7161 47.3815 46.7161 47.6521V50.9615C46.7161 51.2321 46.9364 51.4525 47.2071 51.4525H51.2111C51.4817 51.4525 51.7021 51.2321 51.7021 50.9615V47.6521C51.7021 47.3815 51.4817 47.1611 51.2111 47.1611ZM50.7201 50.4705H47.6981V48.1431H50.7201V50.4705Z" fill="#808080"/>
<path d="M42.0572 28.9718H46.3079C46.5785 28.9718 46.7989 28.7521 46.7989 28.4815V25.204C46.7989 24.9333 46.5785 24.7136 46.3079 24.7136H42.0572C41.7865 24.7136 41.5662 24.9334 41.5662 25.204V28.4815C41.5662 28.7521 41.7865 28.9718 42.0572 28.9718ZM42.5482 25.6943H45.8168V27.9908H42.5482V25.6943Z" fill="#808080"/>
<path d="M42.0572 21.9225H46.3079C46.5785 21.9225 46.7989 21.7028 46.7989 21.4321V18.1547C46.7989 17.884 46.5785 17.6643 46.3079 17.6643H42.0572C41.7865 17.6643 41.5662 17.884 41.5662 18.1547V21.4321C41.5662 21.7028 41.7865 21.9225 42.0572 21.9225ZM42.5482 18.645H45.8168V20.9414H42.5482V18.645Z" fill="#808080"/>
<path d="M39.1866 20.4269V18.3883C39.1866 18.1177 38.9669 17.8979 38.6963 17.8979H34.2229C33.9523 17.8979 33.7325 18.1177 33.7325 18.3883C33.7325 18.6589 33.9523 18.8787 34.2229 18.8787H38.2059V20.4266C38.2059 20.6972 38.4256 20.917 38.6963 20.917C38.9669 20.9173 39.1866 20.6976 39.1866 20.4269V20.4269Z" fill="#808080"/>
<defs>
<filter id="filter0_d_461_14823" x="0" y="0" width="78" height="78" filterUnits="userSpaceOnUse" color-interpolation-filters="sRGB">
<feFlood flood-opacity="0" result="BackgroundImageFix"/>
<feColorMatrix in="SourceAlpha" type="matrix" values="0 0 0 0 0 0 0 0 0 0 0 0 0 0 0 0 0 0 127 0" result="hardAlpha"/>
<feOffset dy="4"/>
<feGaussianBlur stdDeviation="2"/>
<feComposite in2="hardAlpha" operator="out"/>
<feColorMatrix type="matrix" values="0 0 0 0 0 0 0 0 0 0 0 0 0 0 0 0 0 0 0.05 0"/>
<feBlend mode="normal" in2="BackgroundImageFix" result="effect1_dropShadow_461_14823"/>
<feBlend mode="normal" in="SourceGraphic" in2="effect1_dropShadow_461_14823" result="shape"/>
</filter>
</defs>
</svg>
