<svg width="16" height="15" viewBox="0 0 16 15" fill="none" xmlns="http://www.w3.org/2000/svg">
<path d="M8 4.50012C8 4.22398 7.77614 4.00012 7.5 4.00012C7.22386 4.00012 7 4.22398 7 4.50012V8.50012C7 8.77626 7.22386 9.00012 7.5 9.00012H10.5C10.7761 9.00012 11 8.77626 11 8.50012C11 8.22398 10.7761 8.00012 10.5 8.00012H8V4.50012ZM1.35271 5.79998C0.53481 5.22381 0 4.26782 0 3.18705C0 1.43067 1.41353 0 3.16562 0C4.24274 0 5.19218 0.541514 5.76314 1.36501C6.46553 1.1283 7.21778 1 8 1C8.77937 1 9.529 1.12737 10.2292 1.36243C10.801 0.539975 11.7526 0 12.8311 0C14.5823 0 15.9999 1.42268 15.9999 3.17516C15.9999 4.25472 15.462 5.20829 14.6412 5.78159C14.8739 6.4787 15 7.22463 15 8C15 9.75301 14.3556 11.3555 13.2908 12.5836L14.8536 14.1463C15.0488 14.3416 15.0488 14.6582 14.8536 14.8534C14.6583 15.0487 14.3417 15.0487 14.1464 14.8534L12.5837 13.2907C11.3556 14.3556 9.75307 15 8 15C6.24696 15 4.64444 14.3556 3.41638 13.2907L1.85356 14.8536C1.6583 15.0489 1.34172 15.0489 1.14645 14.8536C0.951188 14.6584 0.951181 14.3418 1.14644 14.1465L2.70927 12.5836C1.64441 11.3556 1 9.75304 1 8C1 7.23144 1.12386 6.49181 1.35271 5.79998ZM1 3.18705C1 3.84915 1.29098 4.44186 1.75071 4.84286C2.41946 3.52174 3.49483 2.44136 4.81222 1.76632C4.41409 1.29611 3.82326 1 3.16562 1C1.97335 1 1 1.97539 1 3.18705ZM14.2416 4.82764C14.7062 4.42841 14.9999 3.83616 14.9999 3.17516C14.9999 1.97273 14.0278 1 12.8311 1C12.1714 1 11.5797 1.2953 11.1813 1.76302C12.4966 2.43524 13.5712 3.51128 14.2416 4.82764ZM2 8C2 11.3137 4.68629 14 8 14C11.3137 14 14 11.3137 14 8C14 4.68629 11.3137 2 8 2C4.68629 2 2 4.68629 2 8Z" fill="#808080"/>
</svg>
