<svg width="16" height="13" viewBox="0 0 16 13" fill="none" xmlns="http://www.w3.org/2000/svg">
<path d="M15.7333 4.24553L8.8 0.217525C8.55678 0.0750439 8.28084 0 8 0C7.71916 0 7.4432 0.075047 7.2 0.217525L0.26667 4.24553C0.185241 4.29327 0.117743 4.36191 0.0709555 4.44469C0.0240496 4.52735 -0.000352719 4.62125 3.85228e-06 4.7166V11.3758C3.85228e-06 11.8066 0.168574 12.2197 0.468575 12.5243C0.768695 12.8289 1.17559 13 1.6 13H14.4C14.8244 13 15.2313 12.8289 15.5314 12.5243C15.8314 12.2197 16 11.8066 16 11.3758V4.7166C16.0004 4.62125 15.9759 4.52735 15.929 4.44469C15.8823 4.36191 15.8148 4.29327 15.7333 4.24553ZM7.73333 1.15956C7.81441 1.11206 7.90643 1.08705 8 1.08705C8.09357 1.08705 8.18559 1.11206 8.26667 1.15956L14.336 4.68422L8.26667 8.20331C8.10167 8.29999 7.89833 8.29999 7.73333 8.20331L1.664 4.68422L7.73333 1.15956ZM14.4 11.9173H1.6C1.45858 11.9173 1.32286 11.8603 1.22286 11.7588C1.12286 11.6572 1.06667 11.5195 1.06667 11.3759V5.58294L7.20549 9.14534C7.70048 9.4355 8.31037 9.4355 8.80549 9.14534L14.9333 5.58294V11.3759C14.9333 11.5195 14.8771 11.6572 14.7771 11.7588C14.6771 11.8603 14.5414 11.9173 14.4 11.9173Z" fill="#808080"/>
</svg>
