<svg width="9" height="14" viewBox="0 0 9 14" fill="none" xmlns="http://www.w3.org/2000/svg">
<path fill-rule="evenodd" clip-rule="evenodd" d="M6.99982 0C7.77301 0 8.39985 0.626728 8.39985 1.39992V12.6001C8.39985 13.3733 7.77301 14 6.99982 14H1.40004C0.626849 14 0 13.3733 0 12.6001V1.39992C0 0.626728 0.626849 0 1.40004 0H6.99982ZM6.99982 0.699958C6.99982 1.08657 6.68647 1.39992 6.29986 1.39992H2.09987C1.71326 1.39992 1.39992 1.08657 1.39992 0.699958C1.01331 0.699958 0.699838 1.01331 0.699838 1.39992V12.6001C0.699838 12.9867 1.01331 13.3 1.39992 13.3H6.9997C7.38631 13.3 7.69978 12.9867 7.69978 12.6001V1.39992C7.69978 1.01331 7.38631 0.699958 6.9997 0.699958H6.99982Z" fill="#808080"/>
</svg>
