<svg width="17" height="17" viewBox="0 0 17 17" fill="none" xmlns="http://www.w3.org/2000/svg">
<path d="M8.0004 0C8.27655 0 8.50042 0.223897 8.50042 0.500089V1H13.25C13.5097 1 13.761 1.03599 13.9991 1.10327C15.1542 1.42927 16.0008 2.49109 16.0008 3.75067V8.34229C15.7447 7.95672 15.4018 7.63378 15 7.40135V3.75C15 3.10092 14.6466 2.53437 14.1218 2.23225L14.0966 2.21803C13.8458 2.07932 13.5575 2.00036 13.2507 2.00036H2.75014C1.78359 2.00036 1.00005 2.784 1.00005 3.75067V10.2518C1.00005 10.2676 1.00026 10.2833 1.00067 10.2989C1.02656 11.2428 1.79985 12 2.75 12H11.2639L11.273 12.0102C10.5486 12.0754 9.91326 12.4496 9.49982 13H8.01211L8.01185 13.0023H5.76792L3.91627 15.7801C3.76309 16.01 3.45264 16.072 3.22286 15.9188C2.99309 15.7656 2.931 15.4552 3.08418 15.2253L4.56602 13.0023H2.75014C1.23128 13.0023 0 11.7709 0 10.2518V3.75067C0 2.23188 1.23122 1 2.75 1H7.50037V0.500089C7.50037 0.223897 7.72424 0 8.0004 0ZM3.00015 4.5008C3.00015 4.22461 3.22402 4.00071 3.50017 4.00071H6.50032C6.77648 4.00071 7.00035 4.22461 7.00035 4.5008C7.00035 4.77699 6.77648 5.00089 6.50032 5.00089H3.50017C3.22402 5.00089 3.00015 4.77699 3.00015 4.5008ZM3.50017 9.0016C3.22402 9.0016 3.00015 9.2255 3.00015 9.50169C3.00015 9.77788 3.22402 10.0018 3.50017 10.0018H7.50037C7.77653 10.0018 8.0004 9.77788 8.0004 9.50169C8.0004 9.2255 7.77653 9.0016 7.50037 9.0016H3.50017ZM3.00015 7.00124C3.00015 6.72505 3.22402 6.50115 3.50017 6.50115H8.50042C8.77658 6.50115 9.00045 6.72505 9.00045 7.00124C9.00045 7.27744 8.77658 7.50133 8.50042 7.50133H3.50017C3.22402 7.50133 3.00015 7.27744 3.00015 7.00124ZM15.5 10C15.5 11.1046 14.6046 12 13.5 12C12.3954 12 11.5 11.1046 11.5 10C11.5 8.89543 12.3954 8 13.5 8C14.6046 8 15.5 8.89543 15.5 10ZM17 14.5C17 15.7452 16 17 13.5 17C11 17 10 15.7499 10 14.5C10 13.6716 10.6716 13 11.5 13H15.5C16.3284 13 17 13.6716 17 14.5Z" fill="#808080"/>
</svg>
