<svg width="10" height="12" viewBox="0 0 10 12" fill="none" xmlns="http://www.w3.org/2000/svg">
<path d="M2.76923 2.15385C2.42936 2.15385 2.15385 2.42936 2.15385 2.76923C2.15385 3.1091 2.42936 3.38462 2.76923 3.38462C3.1091 3.38462 3.38462 3.1091 3.38462 2.76923C3.38462 2.42936 3.1091 2.15385 2.76923 2.15385ZM2.15385 7.07692C2.15385 6.73706 2.42936 6.46154 2.76923 6.46154C3.1091 6.46154 3.38462 6.73706 3.38462 7.07692C3.38462 7.41679 3.1091 7.69231 2.76923 7.69231C2.42936 7.69231 2.15385 7.41679 2.15385 7.07692ZM2.76923 4.30769C2.42936 4.30769 2.15385 4.58321 2.15385 4.92308C2.15385 5.26294 2.42936 5.53846 2.76923 5.53846C3.1091 5.53846 3.38462 5.26294 3.38462 4.92308C3.38462 4.58321 3.1091 4.30769 2.76923 4.30769ZM4.30769 2.76923C4.30769 2.42936 4.58321 2.15385 4.92308 2.15385C5.26294 2.15385 5.53846 2.42936 5.53846 2.76923C5.53846 3.1091 5.26294 3.38462 4.92308 3.38462C4.58321 3.38462 4.30769 3.1091 4.30769 2.76923ZM4.92308 6.46154C4.58321 6.46154 4.30769 6.73706 4.30769 7.07692C4.30769 7.41679 4.58321 7.69231 4.92308 7.69231C5.26294 7.69231 5.53846 7.41679 5.53846 7.07692C5.53846 6.73706 5.26294 6.46154 4.92308 6.46154ZM6.46154 7.07692C6.46154 6.73706 6.73706 6.46154 7.07692 6.46154C7.41679 6.46154 7.69231 6.73706 7.69231 7.07692C7.69231 7.41679 7.41679 7.69231 7.07692 7.69231C6.73706 7.69231 6.46154 7.41679 6.46154 7.07692ZM4.92308 4.30769C4.58321 4.30769 4.30769 4.58321 4.30769 4.92308C4.30769 5.26294 4.58321 5.53846 4.92308 5.53846C5.26294 5.53846 5.53846 5.26294 5.53846 4.92308C5.53846 4.58321 5.26294 4.30769 4.92308 4.30769ZM1.38462 0C0.619914 0 0 0.619913 0 1.38462V11.5385C0 11.7934 0.206638 12 0.461538 12H9.38634C9.64124 12 9.84788 11.7934 9.84788 11.5385V5.99957C9.84788 5.23487 9.22797 4.61496 8.46327 4.61496H7.69231V1.38462C7.69231 0.619913 7.07239 0 6.30769 0H1.38462ZM0.923077 1.38462C0.923077 1.12971 1.12971 0.923077 1.38462 0.923077H6.30769C6.56259 0.923077 6.76923 1.12971 6.76923 1.38462V5.0765C6.76923 5.3314 6.97587 5.53803 7.23077 5.53803H8.46327C8.71817 5.53803 8.92481 5.74467 8.92481 5.99957V11.0769H7.69231V9.38462C7.69231 9.12971 7.48567 8.92308 7.23077 8.92308H2.61538C2.36048 8.92308 2.15385 9.12971 2.15385 9.38462V11.0769H0.923077V1.38462ZM6.76923 9.84615V11.0769H5.38462V9.84615H6.76923ZM4.46154 9.84615V11.0769H3.07692V9.84615H4.46154Z" fill="#212121"/>
</svg>
