<svg width="12" height="12" viewBox="0 0 12 12" fill="none" xmlns="http://www.w3.org/2000/svg">
<path d="M10.2273 0C11.2063 0 12 0.793677 12 1.77273V10.2273C12 11.2063 11.2063 12 10.2273 12H1.77273C0.793677 12 0 11.2063 0 10.2273V1.77273C0 0.793677 0.793677 0 1.77273 0H10.2273ZM11.1818 3.54709H0.818182V10.2273C0.818182 10.7545 1.24555 11.1818 1.77273 11.1818H10.2273C10.7545 11.1818 11.1818 10.7545 11.1818 10.2273V3.54709ZM7.63317 5.03693C8.06996 5.03693 8.41619 5.15305 8.67188 5.3853C8.92756 5.61754 9.0554 5.93182 9.0554 6.32812C9.0554 6.55611 8.99681 6.75905 8.87962 6.93697C8.76243 7.11488 8.60263 7.25497 8.40021 7.35724C8.64311 7.47017 8.83008 7.62464 8.96111 7.82067C9.09215 8.01669 9.15767 8.23828 9.15767 8.48544C9.15767 8.89453 9.01918 9.21893 8.74219 9.45863C8.4652 9.69833 8.09659 9.81818 7.63636 9.81818C7.174 9.81818 6.8038 9.6978 6.52575 9.45703C6.24769 9.21626 6.10866 8.8924 6.10866 8.48544C6.10866 8.23615 6.17472 8.01243 6.30682 7.81428C6.43892 7.61612 6.62429 7.46378 6.86293 7.35724C6.66264 7.25497 6.50444 7.11488 6.38832 6.93697C6.27219 6.75905 6.21413 6.55611 6.21413 6.32812C6.21413 5.93182 6.34197 5.61754 6.59766 5.3853C6.85334 5.15305 7.19851 5.03693 7.63317 5.03693ZM4.88928 5.08487V9.75426H4.11584V6.01811L2.97486 6.40803V5.75284L4.7902 5.08487H4.88928ZM7.62997 7.67685C7.40412 7.67685 7.22355 7.74716 7.08825 7.88778C6.95295 8.02841 6.8853 8.21484 6.8853 8.44709C6.8853 8.67507 6.95188 8.85724 7.08505 8.99361C7.21822 9.12997 7.40199 9.19815 7.63636 9.19815C7.87074 9.19815 8.05344 9.1321 8.18448 9C8.31552 8.8679 8.38104 8.68359 8.38104 8.44709C8.38104 8.21697 8.31232 8.03107 8.17489 7.88938C8.03746 7.74769 7.85583 7.67685 7.62997 7.67685ZM7.63317 5.66016C7.43501 5.66016 7.27841 5.72248 7.16335 5.84712C7.0483 5.97177 6.99077 6.14169 6.99077 6.35689C6.99077 6.56996 7.04883 6.73935 7.16495 6.86506C7.28107 6.99077 7.43821 7.05362 7.63636 7.05362C7.83452 7.05362 7.99165 6.99077 8.10778 6.86506C8.2239 6.73935 8.28196 6.56996 8.28196 6.35689C8.28196 6.15447 8.22337 5.98775 8.10618 5.85671C7.98899 5.72567 7.83132 5.66016 7.63317 5.66016ZM10.2273 0.818182H1.77273C1.24555 0.818182 0.818182 1.24555 0.818182 1.77273V2.72891H11.1818V1.77273C11.1818 1.24555 10.7545 0.818182 10.2273 0.818182Z" fill="#212121"/>
</svg>
