<svg width="12" height="12" viewBox="0 0 12 12" fill="none" xmlns="http://www.w3.org/2000/svg">
<path d="M6.42857 2.76278C6.42857 3.12078 6.14075 3.411 5.78571 3.411C5.43067 3.411 5.14286 3.12078 5.14286 2.76278C5.14286 2.40477 5.43067 2.11455 5.78571 2.11455C6.14075 2.11455 6.42857 2.40477 6.42857 2.76278ZM6.44887 0.218041C6.05377 -0.0726802 5.51766 -0.0726805 5.12256 0.218041L0.351366 3.7288C-0.276759 4.19099 0.0474566 5.19363 0.825046 5.19363H0.964286L0.964285 8.95324C0.391873 9.2483 0 9.84875 0 10.5415V11.5138C0 11.7823 0.215863 12 0.482143 12H11.0893C11.3556 12 11.5714 11.7823 11.5714 11.5138V10.5415C11.5714 9.84875 11.1796 9.2483 10.6071 8.95324V5.19363H10.7464C11.524 5.19363 11.8482 4.191 11.2201 3.7288L6.44887 0.218041ZM5.69098 1.00349C5.74742 0.961957 5.82401 0.961956 5.88045 1.00349L10.2535 4.22129H5.78571H1.31793L5.69098 1.00349ZM9.64286 5.19363V8.75887H8.35714V5.19363H9.64286ZM7.39286 5.19363V8.75887H6.26786V5.19363H7.39286ZM5.30357 5.19363V8.75887H4.17857V5.19363H5.30357ZM1.76786 9.73121H9.80357C10.2474 9.73121 10.6071 10.094 10.6071 10.5415V11.0277H0.964286V10.5415C0.964286 10.094 1.32406 9.73121 1.76786 9.73121ZM1.92857 8.75887L1.92857 5.19363H3.21429L3.21429 8.75887H1.92857Z" fill="#212121"/>
</svg>
