<svg width="38" height="35" viewBox="0 0 38 35" fill="none" xmlns="http://www.w3.org/2000/svg">
<path d="M27.5706 0.980254C27.4619 0.766102 27.3089 0.585216 27.1047 0.43621C26.9004 0.287204 26.6511 0.21582 26.3642 0.21582C25.9557 0.21582 25.6176 0.371063 25.3491 0.68848L24.1045 2.18408L21.4814 5.34439L21.105 5.79764L20.2689 6.81434C19.9943 7.14493 19.6562 7.31265 19.2477 7.31265C18.8453 7.31265 18.5072 7.14424 18.2326 6.81434L17.3965 5.80388L17.0262 5.35062L14.3963 2.18408L13.1524 0.68848C12.8846 0.371063 12.5458 0.21582 12.1373 0.21582C11.8504 0.21582 11.6011 0.287204 11.3968 0.43621C11.1926 0.585216 11.0396 0.766102 10.931 0.980254C10.8285 1.19371 10.7841 1.43975 10.8162 1.69895C10.8483 1.96438 10.9501 2.21042 11.1229 2.42457L14.7993 6.8989L16.7462 9.26913C16.7913 9.34051 16.8418 9.41189 16.8992 9.47635C17.1096 9.72931 17.3589 9.94901 17.6328 10.1306C18.1049 10.4286 18.6602 10.597 19.2538 10.597C19.8474 10.597 20.396 10.4286 20.8687 10.1306C21.1364 9.96218 21.3728 9.76119 21.577 9.52209C21.6597 9.41813 21.743 9.31487 21.8134 9.19843L23.7028 6.89959L27.3793 2.42526C27.5514 2.21111 27.6539 1.96508 27.686 1.69964C27.7106 1.43975 27.6723 1.19371 27.5706 0.980254Z" fill="#2E2B26"/>
<path d="M17.8562 3.41223C18.6253 4.1926 19.8727 4.1926 20.6425 3.41223C21.4117 2.63186 21.4117 1.36635 20.6425 0.58528C19.8727 -0.195093 18.6253 -0.195093 17.8562 0.58528C17.087 1.36565 17.087 2.63186 17.8562 3.41223Z" fill="#2E2B26"/>
<path d="M9.44607 1.55629C9.20903 1.54451 8.97815 1.58887 8.74862 1.69352C8.5191 1.79886 8.33398 1.98183 8.19053 2.2341C7.98629 2.59309 7.95008 2.96803 8.0867 3.36238L8.74111 5.20381L10.1271 9.08835L10.3259 9.64625L10.7754 10.8889C10.9202 11.295 10.8949 11.6762 10.6907 12.0352C10.4898 12.3886 10.177 12.6014 9.75756 12.6776L8.47675 12.907L7.905 13.0055L3.88701 13.7325L1.98799 14.0783C1.5836 14.1552 1.28167 14.3749 1.07742 14.7339C0.933968 14.9862 0.869757 15.2405 0.895032 15.4942C0.920306 15.7479 0.99818 15.9731 1.1266 16.1755C1.25776 16.3723 1.44561 16.5345 1.68265 16.6356C1.92515 16.7403 2.18609 16.7736 2.45455 16.7292L8.11198 15.7361L11.1087 15.2107C11.1921 15.2073 11.2781 15.1976 11.3622 15.1796C11.6832 15.1206 11.9954 15.0118 12.2871 14.8621C12.7775 14.596 13.199 14.192 13.4955 13.6708C13.7919 13.1496 13.9231 12.5827 13.9047 12.0186C13.8951 11.6991 13.8418 11.3907 13.7393 11.092C13.6922 10.9672 13.6451 10.8425 13.5809 10.7226L12.5631 7.91294L10.5821 2.44547C10.4857 2.18697 10.3266 1.97489 10.1162 1.81341C9.90853 1.66302 9.67901 1.57362 9.44607 1.55629Z" fill="#2E2B26"/>
<path d="M6.66429 11.3073C7.71489 11.0218 8.33925 9.92537 8.05781 8.85877C7.77637 7.79286 6.69571 7.15941 5.64442 7.44495C4.59313 7.73118 3.96946 8.82689 4.2509 9.89349C4.53302 10.9601 5.613 11.5929 6.66429 11.3073Z" fill="#2E2B26"/>
<path d="M0.875173 17.7694C0.746751 17.9718 0.668877 18.197 0.643603 18.4507C0.618328 18.7043 0.681856 18.9587 0.82599 19.2116C1.03024 19.5706 1.33217 19.7896 1.73724 19.8666L3.63626 20.2124L7.64537 20.9373L8.22053 21.042L9.50613 21.2686C9.92555 21.3448 10.2384 21.5576 10.4427 21.9166C10.6435 22.2701 10.6688 22.6512 10.5246 23.0574L10.0799 24.2972L9.87842 24.8496L8.49036 28.7431L7.83595 30.5846C7.69933 30.9789 7.73553 31.3539 7.93978 31.7122C8.08323 31.9644 8.26835 32.1474 8.49787 32.2528C8.72671 32.3574 8.95828 32.4018 9.19532 32.39C9.42894 32.3727 9.66119 32.2888 9.86612 32.1315C10.0772 31.9707 10.2357 31.7579 10.332 31.4994L12.3137 26.0319L13.3636 23.1364C13.4018 23.0615 13.4374 22.9811 13.464 22.898C13.574 22.5868 13.6375 22.2576 13.6553 21.9263C13.673 21.3622 13.5391 20.7904 13.2427 20.2685C12.9462 19.7474 12.5275 19.3489 12.037 19.0827C11.759 18.931 11.47 18.8242 11.1633 18.7646C11.0335 18.7431 10.9037 18.7223 10.7692 18.7189L7.86259 18.2081L2.20517 17.215C1.93671 17.1706 1.67576 17.2039 1.43326 17.3085C1.1976 17.4159 1.00701 17.5733 0.875173 17.7694Z" fill="#2E2B26"/>
<path d="M7.80854 25.0886C8.08998 24.0227 7.46631 22.9263 6.41502 22.6401C5.36441 22.3545 4.28375 22.9873 4.00163 24.0539C3.72019 25.1205 4.34386 26.2162 5.39515 26.5024C6.44576 26.788 7.52642 26.1552 7.80854 25.0886Z" fill="#2E2B26"/>
<path d="M10.4295 33.4061C10.5381 33.6202 10.6911 33.8011 10.8954 33.9501C11.0996 34.0991 11.349 34.1705 11.6359 34.1705C12.0444 34.1705 12.3825 34.0153 12.651 33.6979L13.8956 32.2023L16.5187 29.042L16.895 28.5887L17.7312 27.572C18.0058 27.2414 18.3439 27.0737 18.7524 27.0737C19.1547 27.0737 19.4929 27.2421 19.7675 27.572L20.6036 28.5825L20.9738 29.0357L23.6038 32.2023L24.8484 33.6979C25.1161 34.0153 25.455 34.1705 25.8635 34.1705C26.1504 34.1705 26.3997 34.0991 26.6039 33.9501C26.8082 33.8011 26.9612 33.6202 27.0698 33.4061C27.1723 33.1926 27.2167 32.9466 27.1846 32.6874C27.1525 32.422 27.0507 32.1759 26.8779 31.9618L23.2014 27.4875L21.2546 25.1172C21.2095 25.0458 21.159 24.9745 21.1016 24.91C20.8912 24.6577 20.6419 24.4373 20.3679 24.2558C19.8959 23.9585 19.3405 23.79 18.7469 23.79C18.1533 23.79 17.6048 23.9585 17.1321 24.2558C16.8643 24.4242 16.628 24.6252 16.4237 24.8643C16.3411 24.9682 16.2577 25.0715 16.1874 25.1879L14.2979 27.4868L10.6215 31.9611C10.4493 32.1752 10.3469 32.4213 10.3148 32.6867C10.2888 32.9466 10.3271 33.1926 10.4295 33.4061Z" fill="#2E2B26"/>
<path d="M20.1433 30.974C19.3741 30.1936 18.1268 30.1936 17.3569 30.974C16.5877 31.7543 16.5877 33.0205 17.3569 33.8009C18.1268 34.5813 19.3741 34.5813 20.1433 33.8009C20.9131 33.0205 20.9131 31.755 20.1433 30.974Z" fill="#2E2B26"/>
<path d="M28.5545 32.83C28.7915 32.8418 29.0224 32.7975 29.2519 32.6928C29.4814 32.5875 29.6666 32.4045 29.81 32.1522C30.0142 31.7932 30.0504 31.4183 29.9138 31.0239L29.2594 29.1825L27.8734 25.2973L27.6746 24.7401L27.2252 23.4974C27.0803 23.0913 27.1056 22.7101 27.3099 22.3511C27.5107 21.9977 27.8236 21.7849 28.243 21.7087L29.5238 21.4793L30.0955 21.3809L34.1135 20.6538L36.0125 20.308C36.4169 20.2311 36.7188 20.0114 36.9231 19.6524C37.0665 19.4001 37.1308 19.1458 37.1055 18.8921C37.0802 18.6385 37.0023 18.4132 36.8739 18.2108C36.7428 18.014 36.5549 17.8518 36.3179 17.7507C36.0754 17.646 35.8144 17.6127 35.5453 17.6571L29.8879 18.6502L26.8911 19.1756C26.8078 19.179 26.7217 19.1887 26.6377 19.2068C26.3166 19.2657 26.0045 19.3745 25.7128 19.5242C25.2223 19.7903 24.8008 20.1944 24.5044 20.7155C24.2079 21.2367 24.0768 21.8036 24.0952 22.3678C24.1048 22.6872 24.1581 22.9957 24.2605 23.2944C24.3076 23.4191 24.3548 23.5439 24.419 23.6638L25.4368 26.4727L27.4178 31.9402C27.5141 32.1987 27.6733 32.4107 27.8837 32.5722C28.0913 32.7233 28.3208 32.8127 28.5545 32.83Z" fill="#2E2B26"/>
<path d="M31.3351 23.0788C30.2844 23.3643 29.6601 24.4607 29.9415 25.5273C30.223 26.5932 31.3036 27.2267 32.3549 26.9405C33.4062 26.6549 34.0299 25.5585 33.7485 24.4926C33.4663 23.426 32.3864 22.7932 31.3351 23.0788Z" fill="#2E2B26"/>
<path d="M37.1247 16.6168C37.2531 16.4145 37.331 16.1892 37.3563 15.9356C37.3816 15.6819 37.318 15.4276 37.1739 15.1753C36.9697 14.8163 36.6677 14.5966 36.2627 14.5197L34.3636 14.1738L30.3545 13.4489L29.7794 13.3443L28.4938 13.1176C28.0743 13.0414 27.7615 12.8286 27.5572 12.4696C27.3564 12.1162 27.3311 11.735 27.4753 11.3289L27.92 10.089L28.1215 9.53734L29.5095 5.64379L30.1639 3.80236C30.3006 3.40871 30.2644 3.03377 30.0601 2.67477C29.9167 2.4225 29.7315 2.23953 29.502 2.13419C29.2732 2.02954 29.0416 1.98519 28.8053 1.99697C28.5716 2.01429 28.3394 2.09815 28.1345 2.25547C27.9234 2.41626 27.7649 2.62903 27.6686 2.88753L25.6869 8.355L24.637 11.2506C24.5987 11.3254 24.5632 11.4058 24.5366 11.4883C24.4266 11.7995 24.3631 12.1286 24.3453 12.4599C24.3275 13.0241 24.4614 13.5958 24.7579 14.1177C25.0544 14.6389 25.4731 15.0374 25.9636 15.3035C26.2416 15.4553 26.5305 15.562 26.8373 15.6216C26.967 15.6424 27.0968 15.6639 27.2314 15.6674L30.138 16.1781L35.7954 17.1713C36.0639 17.2156 36.3248 17.1824 36.5673 17.0777C36.8023 16.9703 36.9936 16.8137 37.1247 16.6168Z" fill="#2E2B26"/>
<path d="M30.1916 9.29774C29.9101 10.3637 30.5338 11.4601 31.5851 11.7463C32.6357 12.0318 33.7164 11.3991 33.9985 10.3325C34.2799 9.26586 33.6562 8.17015 32.605 7.88392C31.5537 7.59908 30.473 8.23183 30.1916 9.29774Z" fill="#2E2B26"/>
</svg>
