<svg width="15" height="17" viewBox="0 0 15 17" fill="none" xmlns="http://www.w3.org/2000/svg">
<path d="M9.1066 7.28528C9.1066 6.27939 8.29117 5.46396 7.28528 5.46396C6.27939 5.46396 5.46396 6.27939 5.46396 7.28528C5.46396 8.29117 6.27939 9.1066 7.28528 9.1066C8.29117 9.1066 9.1066 8.29117 9.1066 7.28528ZM14.5706 7.28528C14.5706 10.7748 10.8098 14.5903 8.69238 16.462C7.88085 17.1793 6.68971 17.1793 5.87818 16.462C3.76071 14.5903 0 10.7748 0 7.28528C0 3.26173 3.26173 0 7.28528 0C11.3088 0 14.5706 3.26173 14.5706 7.28528ZM13.3563 7.28528C13.3563 3.93232 10.6382 1.21421 7.28528 1.21421C3.93232 1.21421 1.21421 3.93232 1.21421 7.28528C1.21421 8.63118 1.96052 10.1937 3.12019 11.7568C4.25419 13.2854 5.65452 14.6437 6.68234 15.5522C7.03461 15.8636 7.53594 15.8636 7.88822 15.5522C8.91604 14.6437 10.3164 13.2854 11.4504 11.7568C12.61 10.1937 13.3563 8.63118 13.3563 7.28528Z" fill="#808080"/>
</svg>
