<svg width="14" height="13" viewBox="0 0 14 13" fill="none" xmlns="http://www.w3.org/2000/svg">
<path d="M0 2.5C0 1.11929 1.11929 0 2.5 0H6.5C7.88071 0 9 1.11929 9 2.5V3H8V2.5C8 1.67157 7.32843 1 6.5 1H2.5C1.67157 1 1 1.67157 1 2.5V6.5C1 7.32843 1.67157 8 2.5 8H8.08535C8.29127 7.4174 8.84689 7 9.5 7C10.3284 7 11 7.67157 11 8.5C11 9.32843 10.3284 10 9.5 10C8.84689 10 8.29127 9.5826 8.08535 9H2.5C1.11929 9 0 7.88071 0 6.5V2.5ZM9 8.5C9 8.77614 9.22386 9 9.5 9C9.77614 9 10 8.77614 10 8.5C10 8.22386 9.77614 8 9.5 8C9.22386 8 9 8.22386 9 8.5ZM5 10V10.5C5 11.8807 6.11929 13 7.5 13H11.5C12.8807 13 14 11.8807 14 10.5V6.5C14 5.11929 12.8807 4 11.5 4H5.91465C5.70873 3.4174 5.15311 3 4.5 3C3.67157 3 3 3.67157 3 4.5C3 5.32843 3.67157 6 4.5 6C5.15311 6 5.70873 5.5826 5.91465 5H11.5C12.3284 5 13 5.67157 13 6.5V10.5C13 11.3284 12.3284 12 11.5 12H7.5C6.67157 12 6 11.3284 6 10.5V10H5ZM4.5 4C4.77614 4 5 4.22386 5 4.5C5 4.77614 4.77614 5 4.5 5C4.22386 5 4 4.77614 4 4.5C4 4.22386 4.22386 4 4.5 4Z" fill="#344054"/>
</svg>
