<svg width="17" height="17" viewBox="0 0 17 17" fill="none" xmlns="http://www.w3.org/2000/svg">
<path d="M10.4917 8.55877C10.9802 9.059 11.2566 9.66503 11.4568 10.5031L11.5435 10.901L11.6997 11.7267C11.7774 12.1148 11.8375 12.3303 11.9216 12.5187C12.1839 13.1065 12.6458 13.7089 13.3135 14.3211C13.5799 14.5653 13.5979 14.9792 13.3537 15.2456C13.1095 15.512 12.6956 15.53 12.4292 15.2858C11.6376 14.5601 11.0679 13.817 10.7265 13.052C10.5966 12.7609 10.5175 12.4845 10.4242 12.0226L10.2407 11.0624L10.2296 11.0099C10.072 10.2691 9.87715 9.80258 9.55537 9.47303C8.93358 8.83622 7.49928 9.00453 7.11544 9.61145C6.62529 10.3865 6.50025 11.7018 6.88946 13.0276C7.19017 14.052 7.58917 15.0601 8.08679 16.0521C8.24882 16.3752 8.11831 16.7684 7.79528 16.9304C7.47226 17.0924 7.07905 16.9619 6.91702 16.6389C6.38461 15.5775 5.95675 14.4965 5.63377 13.3962C5.1439 11.7275 5.3058 10.0245 6.0094 8.91195C6.8409 7.59719 9.27404 7.31167 10.4917 8.55877ZM8.42781 10.5788C8.78899 10.5668 9.09152 10.8498 9.10353 11.211C9.14841 12.5609 9.58749 13.8658 10.3634 14.9661L10.5348 15.1987L10.7967 15.539C11.0172 15.8254 10.9637 16.2362 10.6773 16.4566C10.417 16.657 10.0538 16.631 9.82427 16.4095L9.75967 16.3372L9.49776 15.9969C8.44812 14.6332 7.85277 12.9745 7.79556 11.2545C7.78357 10.8933 8.06663 10.5908 8.42781 10.5788ZM5.19161 6.14445C7.03409 4.78027 9.4442 4.85431 11.0654 5.89639C11.8767 6.41788 12.4911 7.02599 12.8996 7.72274C13.0824 8.0345 12.9778 8.43539 12.6661 8.61816C12.3543 8.80093 11.9534 8.69637 11.7706 8.38461C11.4726 7.87616 11.0046 7.41303 10.3578 6.99726C9.16907 6.23318 7.34665 6.17719 5.97035 7.19621C4.54077 8.25468 3.9389 10.0676 4.11813 11.9789C4.21852 13.0493 4.54109 14.1314 5.08935 15.2277C5.25098 15.551 5.12 15.944 4.79678 16.1057C4.47356 16.2673 4.08051 16.1363 3.91887 15.8131C3.30023 14.576 2.93117 13.3379 2.81518 12.1011C2.59679 9.77232 3.348 7.50947 5.19161 6.14445ZM13.2005 9.89689C13.5614 9.87833 13.869 10.1558 13.8876 10.5167C13.9147 11.0429 14.0447 11.4731 14.2727 11.8192C14.4642 12.1098 14.6344 12.2777 14.7643 12.3424L14.8175 12.3639C15.1634 12.4685 15.359 12.8337 15.2544 13.1796C15.1498 13.5255 14.7846 13.7212 14.4387 13.6166C13.9619 13.4724 13.5518 13.1035 13.18 12.5393C12.8173 11.989 12.6192 11.3333 12.5806 10.584C12.5621 10.2231 12.8396 9.91546 13.2005 9.89689ZM6.69887 3.27547C6.84719 3.60501 6.70029 3.9924 6.37075 4.14072C4.76529 4.86332 3.58397 5.89307 2.80794 7.23677C1.8367 8.91849 1.57471 10.8844 1.79216 12.5413C1.83918 12.8996 1.58684 13.2282 1.22853 13.2752C0.870218 13.3223 0.541631 13.0699 0.494607 12.7116C0.242637 10.7917 0.542294 8.54302 1.67468 6.58228C2.59234 4.99334 3.98494 3.77943 5.83362 2.94735C6.16316 2.79903 6.55055 2.94593 6.69887 3.27547ZM8.74362 2.58877C10.3401 2.62149 11.9293 3.3551 13.5061 4.758C15.0965 6.17304 16.0549 8.09652 16.3802 10.4989C16.4287 10.857 16.1777 11.1866 15.8196 11.2351C15.4615 11.2836 15.1319 11.0326 15.0834 10.6745C14.7984 8.57052 13.9831 6.9341 12.6362 5.73571C11.2756 4.52519 9.97088 3.92287 8.71681 3.89717C8.3555 3.88977 8.06861 3.59087 8.07601 3.22957C8.08342 2.86826 8.38232 2.58137 8.74362 2.58877ZM2.74858 2.60134C2.98893 2.8712 2.965 3.28481 2.69514 3.52517C2.46121 3.73351 2.21574 3.98219 1.95943 4.27112C1.71834 4.5429 1.47136 4.8957 1.22106 5.32904C1.04032 5.64197 0.640109 5.74913 0.327177 5.56839C0.0142438 5.38764 -0.0929141 4.98743 0.0878326 4.6745C0.37964 4.16928 0.676321 3.7455 0.980447 3.40266C1.26936 3.07699 1.55056 2.79209 1.82475 2.54789C2.09462 2.30754 2.50823 2.33147 2.74858 2.60134ZM8.49415 0.0137107C10.4072 0.103319 12.0094 0.626348 13.3186 1.63727C13.6046 1.85814 13.6574 2.26907 13.4365 2.55509C13.2157 2.84112 12.8048 2.89394 12.5187 2.67307C11.4323 1.8341 10.0885 1.39851 8.43292 1.32095C6.7725 1.24318 5.41283 1.5688 4.31964 2.17511C3.98465 2.3609 3.60875 2.26793 3.41962 1.95999C3.23049 1.65206 3.31549 1.24776 3.63474 1.05997C4.97458 0.271846 6.58597 -0.0756719 8.49415 0.0137107Z" fill="#808080"/>
</svg>
