<svg width="14" height="12" viewBox="0 0 14 12" fill="none" xmlns="http://www.w3.org/2000/svg">
<path d="M6.81024 0C6.65432 0 6.5151 0.0715225 6.42361 0.183549L6.38567 0.212296C4.95915 -0.220144 3.34526 0.124124 2.21707 1.2451C1.21354 2.2422 0.82851 3.62113 1.06196 4.91123L1.05197 4.92106L0.41525 5.55371C-0.138417 6.10384 -0.138416 6.99576 0.41525 7.54589C0.740521 7.86908 1.18452 8.0024 1.60775 7.94585C1.67011 8.17619 1.79227 8.39388 1.97421 8.57466C2.2215 8.82037 2.53742 8.95634 2.86067 8.98255C2.88701 9.30381 3.02386 9.61779 3.27121 9.86356C3.52992 10.1206 3.86374 10.2576 4.20248 10.2744C4.21946 10.6109 4.35728 10.9425 4.61594 11.1995C5.1217 11.702 5.91451 11.7455 6.46994 11.3299L6.72707 11.5854C7.28342 12.1382 8.18544 12.1382 8.74179 11.5854C8.98824 11.3405 9.12548 11.0285 9.15359 10.7086C9.47486 10.6813 9.78849 10.5455 10.0344 10.3011C10.281 10.0561 10.4177 9.7436 10.4448 9.42358C10.7619 9.39394 11.0708 9.25849 11.3137 9.01713C11.504 8.828 11.6289 8.59849 11.6885 8.35635C12.1053 8.40579 12.5401 8.27159 12.86 7.95374C13.4136 7.40362 13.4136 6.51169 12.86 5.96156L12.3055 5.41067L12.4194 4.96725C12.6671 4.00317 12.5426 2.98195 12.0706 2.10488C11.3737 0.810026 10.0172 0.00333217 8.5426 0.00333209L7.47376 0.00333201C7.42822 0.00111797 7.38242 0 7.33641 0H6.81024ZM8.75552 3.28963L11.0596 5.57901L11.0622 5.58175L11.0711 5.59079L12.1521 6.66488C12.3149 6.82657 12.3149 7.08873 12.1521 7.25043C11.9894 7.41213 11.7255 7.41213 11.5628 7.25043L10.4818 6.17634C10.2863 5.98213 9.96941 5.98213 9.77395 6.17634L9.76313 6.18709C9.56766 6.38131 9.56766 6.69619 9.76313 6.89041L10.6058 7.72773C10.7687 7.88957 10.7687 8.15198 10.6058 8.31382C10.4574 8.46132 10.224 8.47459 10.061 8.35273C9.86097 8.2032 9.58051 8.22351 9.4044 8.40027C9.22829 8.57704 9.2107 8.8559 9.36321 9.05313C9.48855 9.21524 9.47609 9.44928 9.3266 9.59782C9.17589 9.74757 8.93778 9.7589 8.7745 9.63117C8.57576 9.4757 8.29151 9.492 8.11209 9.66916C7.93266 9.84631 7.91447 10.1286 8.06968 10.3271C8.1985 10.4918 8.18635 10.7307 8.03395 10.8821C7.86853 11.0465 7.60033 11.0465 7.43491 10.8821L7.18764 10.6364L7.25766 10.5668C7.81133 10.0167 7.81133 9.12478 7.25766 8.57466C6.99895 8.3176 6.66513 8.18066 6.32639 8.16383C6.30941 7.82734 6.17159 7.49573 5.91293 7.23873C5.66564 6.99302 5.34972 6.85706 5.02648 6.83084C5.00013 6.50959 4.86329 6.1956 4.61594 5.94983C4.29067 5.62664 3.84667 5.49332 3.42344 5.54987C3.36107 5.31953 3.23892 5.10184 3.05698 4.92106C2.77004 4.63596 2.39071 4.49861 2.01474 4.50902C1.91709 3.59584 2.22048 2.64833 2.92491 1.94841C3.57964 1.29787 4.44963 0.991561 5.30707 1.02949L4.31092 1.78421C3.62982 2.30024 3.49861 3.26965 4.01803 3.94817C4.53627 4.62515 5.50626 4.75644 6.18582 4.24158L7.4423 3.28963H8.75552ZM4.91351 2.57955L7.00119 0.997839H7.33641C7.36932 0.997839 7.40197 0.99872 7.43435 1.00046C7.44325 1.00093 7.45215 1.00117 7.46106 1.00117H8.5426C9.65231 1.00117 10.6701 1.60825 11.1919 2.57775C11.521 3.18928 11.6242 3.89388 11.4871 4.57023L9.35035 2.44387C9.25635 2.34667 9.12693 2.29179 8.99172 2.29179H7.27464C7.16585 2.29179 7.06005 2.32734 6.97334 2.39304L5.58324 3.44624C5.34139 3.62947 4.9948 3.58256 4.81036 3.34163C4.62711 3.10224 4.67321 2.76161 4.91351 2.57955ZM2.68205 7.87135C2.57036 7.76037 2.53532 7.60206 2.57695 7.4614C2.59597 7.39711 2.631 7.33651 2.68205 7.2858L3.31877 6.65314C3.48151 6.49145 3.74536 6.49145 3.9081 6.65314C4.06898 6.81299 4.07082 7.07103 3.91361 7.23312L3.90793 7.23873L3.27121 7.87138L3.26572 7.87686C3.21585 7.9246 3.15697 7.95757 3.09464 7.97578C2.95307 8.01714 2.79374 7.98233 2.68205 7.87135ZM2.35524 5.63056C2.40546 5.68255 2.43936 5.74435 2.45696 5.80959C2.49423 5.94781 2.45829 6.10147 2.34914 6.20993L1.71241 6.84258C1.54968 7.00427 1.28583 7.00427 1.12309 6.84258C0.960351 6.68088 0.960352 6.41872 1.12309 6.25702L1.75981 5.62437C1.92255 5.46267 2.1864 5.46267 2.34914 5.62437L2.35524 5.63056ZM5.9131 10.4962C5.86197 10.547 5.80085 10.5818 5.73602 10.6007C5.59454 10.6419 5.43538 10.6071 5.32378 10.4962C5.21217 10.3853 5.17711 10.2271 5.21858 10.0866C5.23758 10.0222 5.27264 9.96143 5.32377 9.91062L5.9605 9.27797C6.12324 9.11627 6.38709 9.11627 6.54983 9.27797C6.71256 9.43967 6.71256 9.70183 6.54983 9.86352L5.9131 10.4962ZM4.56837 9.16025C4.51737 9.21093 4.45643 9.24572 4.39179 9.26463C4.25018 9.30606 4.09078 9.27127 3.97905 9.16025C3.86731 9.04923 3.83229 8.89085 3.87399 8.75014C3.89233 8.68825 3.92551 8.62979 3.97354 8.58027L3.97921 8.57466L4.61594 7.94201L4.62143 7.93653C4.78456 7.78037 5.04423 7.78221 5.20509 7.94204C5.36783 8.10374 5.36783 8.3659 5.20509 8.5276L4.56837 9.16025Z" fill="#212121"/>
</svg>
