<svg width="9" height="12" viewBox="0 0 9 12" fill="none" xmlns="http://www.w3.org/2000/svg">
<path d="M1 2.57016C1 1.70298 1.70298 1 2.57016 1H7.15984C8.02702 1 8.73 1.70298 8.73 2.57016V11.2664C8.73 11.404 8.65206 11.5297 8.52881 11.5909C8.40556 11.6521 8.25829 11.6382 8.14866 11.5551L4.865 9.06403L1.58134 11.5551C1.47171 11.6382 1.32444 11.6521 1.20119 11.5909C1.07794 11.5297 1 11.404 1 11.2664V2.57016ZM2.57016 1.72469C2.10322 1.72469 1.72469 2.10322 1.72469 2.57016V10.5367L4.646 8.32054C4.77548 8.22232 4.95452 8.22232 5.084 8.32054L8.00531 10.5367V2.57016C8.00531 2.10322 7.62678 1.72469 7.15984 1.72469H2.57016Z" fill="black" stroke="black" stroke-width="0.1" stroke-linecap="round" stroke-linejoin="round"/>
</svg>
