<svg width="18" height="18" viewBox="0 0 18 18" fill="none" xmlns="http://www.w3.org/2000/svg">
<path d="M13.1582 0.025794C13.4202 0.113118 13.5618 0.396278 13.4745 0.65825L12.9745 2.15825C12.8872 2.42022 12.604 2.5618 12.342 2.47448C12.0801 2.38715 11.9385 2.10399 12.0258 1.84202L12.5258 0.342022C12.6131 0.0800501 12.8963 -0.0615299 13.1582 0.025794ZM16.8545 1.85368C17.0498 1.65841 17.0498 1.34183 16.8545 1.14657C16.6593 0.951307 16.3427 0.951307 16.1474 1.14657L14.1474 3.14657C13.9522 3.34183 13.9522 3.65841 14.1474 3.85368C14.3427 4.04894 14.6593 4.04894 14.8545 3.85368L16.8545 1.85368ZM6.60704 2.14558C7.21072 0.875028 8.90269 0.608181 9.86811 1.63126L16.4549 8.61146C17.4032 9.6164 17.0711 11.2573 15.8066 11.8144L11.8695 13.5488C11.9544 13.8508 11.9998 14.1693 11.9998 14.4985C11.9998 16.4315 10.4328 17.9985 8.49984 17.9985C7.24407 17.9985 6.14276 17.3371 5.52522 16.3437L4.3246 16.8727C3.76043 17.1212 3.10165 16.9992 2.66384 16.5652L1.44207 15.3541C0.989699 14.9056 0.869885 14.2204 1.14325 13.6451L6.60704 2.14558ZM6.4534 15.9348C6.90573 16.5781 7.6537 16.9985 8.49984 16.9985C9.88055 16.9985 10.9998 15.8792 10.9998 14.4985C10.9998 14.3128 10.9796 14.1319 10.9412 13.9578L6.4534 15.9348ZM9.1408 2.31757C8.65809 1.80603 7.81211 1.93946 7.51027 2.57473L2.04648 14.0742C1.95536 14.266 1.99529 14.4944 2.14608 14.6439L3.36786 15.855C3.51379 15.9997 3.73339 16.0404 3.92144 15.9575L15.4034 10.8992C16.0357 10.6207 16.2017 9.80024 15.7276 9.29777L9.1408 2.31757ZM16 5.00012C15.7239 5.00012 15.5 5.22398 15.5 5.50012C15.5 5.77626 15.7239 6.00012 16 6.00012H17.4992C17.7754 6.00012 17.9992 5.77626 17.9992 5.50012C17.9992 5.22398 17.7754 5.00012 17.4992 5.00012H16Z" fill="#808080"/>
</svg>
