<svg width="17" height="17" viewBox="0 0 17 17" fill="none" xmlns="http://www.w3.org/2000/svg">
<path d="M16.1922 8.09568C16.192 3.62452 12.5673 0 8.09609 0C3.62474 0 0 3.62474 0 8.09609C0 12.2942 3.19532 15.7461 7.28659 16.1522V14.6606C6.65678 14.1648 6.0898 13.1185 5.7171 11.7386H7.28659V10.5246H5.4557C5.33138 9.77159 5.26164 8.95374 5.26164 8.09609C5.26164 7.53706 5.29127 6.99494 5.34634 6.47665H10.8459C10.9009 6.99481 10.9305 7.53679 10.9305 8.09568H12.1448C12.1448 7.54213 12.1185 7.00056 12.0679 6.47661L14.7862 6.47592C14.9115 6.99535 14.9779 7.53776 14.978 8.09568H16.1909L16.1922 8.09568ZM2.25634 11.7389L4.46014 11.739L4.54224 12.0588C4.79884 13.0054 5.14772 13.8361 5.5705 14.4997C4.19245 13.9558 3.0321 12.9799 2.25634 11.7389ZM1.40637 6.4766H4.1243C4.0737 7.00069 4.04742 7.5424 4.04742 8.09609C4.04742 8.94008 4.10848 9.75622 4.22366 10.5245L1.65504 10.5248C1.37012 9.76956 1.21423 8.95103 1.21423 8.09609C1.21423 7.54326 1.27941 7.00565 1.40252 6.49053L1.40637 6.4766ZM5.55281 1.69945L5.57135 1.69239C4.98644 2.60893 4.54377 3.84414 4.29012 5.263L1.82271 5.2627C2.55503 3.64384 3.89554 2.35894 5.55281 1.69945ZM8.00247 1.21852L8.09609 1.21423L8.19832 1.21934C9.21961 1.32131 10.2049 2.93931 10.6632 5.26266H5.52899C5.98854 2.93278 6.97812 1.31222 8.00247 1.21852ZM10.7082 1.83336L10.6217 1.69244L10.8574 1.79061C12.414 2.47327 13.6696 3.71545 14.3695 5.2627L11.9021 5.263C11.6612 3.91564 11.2499 2.73389 10.7082 1.83336ZM8.09607 13.7621C8.09607 14.2091 8.45849 14.5715 8.90556 14.5715H11.334V16.1905H10.9293C10.7057 16.1905 10.5245 16.3717 10.5245 16.5953C10.5245 16.8188 10.7057 17 10.9293 17H14.1672C14.3907 17 14.5719 16.8188 14.5719 16.5953C14.5719 16.3717 14.3907 16.1905 14.1672 16.1905H13.7625V14.5715H16.1909C16.638 14.5715 17.0004 14.2091 17.0004 13.7621V9.71465C17.0004 9.26758 16.638 8.90516 16.1909 8.90516H8.90556C8.45849 8.90516 8.09607 9.26758 8.09607 9.71465V13.7621Z" fill="#C7C7C9"/>
</svg>
