<svg width="554" height="262" viewBox="0 0 554 262" fill="none" xmlns="http://www.w3.org/2000/svg">
<path d="M87.87 195.05H100.97L144.37 72.87H144.92L187.28 195.05H200.41L216.15 157.26L162.73 3.83H188.2V0H106.29V3.83H121.08L142.45 66.57L113.69 148.21H113.14L63.83 3.83H83.83V0H0V3.83H22.46L87.87 195.05Z" fill="#222D3D"/>
<path d="M243.83 114L274.51 39.2101L306.84 114H243.83ZM300.17 0.320068H286L206 195.05H210.45L242.5 117.8H308.25L340 191.22H314.51V195.05H406.51V191.22H383L300.17 0.320068Z" fill="#222D3D"/>
<path d="M530.91 191.22L460.23 75.61L505.15 3.83H526.52V0H476.94V3.83H500.5L457.76 71.78L417.76 3.83H440.23V0H348.46V3.83H370.37L431.74 104.65L384.62 181L386.66 185.69L434.2 108.76L484.06 191.22H459.68V195.05H553.64V191.22H530.91Z" fill="#222D3D"/>
<path d="M440.53 249.52C440.94 247.22 442.19 246.52 444.13 246.52H445.26L446.03 242.18C445.105 242.222 444.203 242.475 443.391 242.921C442.58 243.366 441.882 243.992 441.35 244.75L441.78 242.32H437.68L435.32 255.72H439.43L440.53 249.52ZM432.44 251.3H428.08C427.837 251.705 427.49 252.038 427.075 252.265C426.66 252.492 426.193 252.604 425.72 252.59C424.38 252.59 423.44 251.75 423.64 249.98H432.92C433.037 249.592 433.134 249.198 433.21 248.8C433.93 244.74 431.6 242.15 427.69 242.15C425.744 242.118 423.854 242.802 422.379 244.073C420.904 245.343 419.947 247.111 419.69 249.04C418.93 253.29 421.3 255.93 425.24 255.93C426.756 255.94 428.242 255.507 429.516 254.684C430.789 253.862 431.795 252.686 432.41 251.3H432.44ZM427.01 245.44C427.327 245.409 427.646 245.454 427.942 245.572C428.237 245.689 428.501 245.875 428.71 246.115C428.919 246.354 429.068 246.64 429.145 246.949C429.221 247.258 429.223 247.58 429.15 247.89H424C424.154 247.205 424.534 246.591 425.077 246.147C425.621 245.703 426.298 245.454 427 245.44H427.01ZM403.27 255.74H407.37L408.37 250.14L411.46 255.74H416.55L412.11 249.06L418.85 242.34H413.79L408.79 247.77L410.52 237.98H406.41L403.27 255.74ZM396.19 249.04C396.091 249.921 395.682 250.739 395.035 251.345C394.388 251.952 393.546 252.308 392.66 252.35C391.12 252.35 389.95 251.15 390.33 249.02C390.423 248.142 390.829 247.326 391.473 246.722C392.118 246.118 392.958 245.766 393.84 245.73C395.4 245.73 396.57 246.9 396.19 249.04ZM386.19 249.04C385.44 253.26 387.58 255.95 390.84 255.95C391.705 255.962 392.561 255.781 393.347 255.419C394.132 255.057 394.827 254.525 395.38 253.86L395.02 255.76H399.12L401.5 242.36H397.4L397.07 244.26C396.723 243.574 396.178 243.009 395.506 242.636C394.834 242.263 394.066 242.101 393.3 242.17C390.01 242.17 386.94 244.81 386.2 249.04H386.19ZM377.65 255.76H381.73L383.13 247.93C383.77 244.33 382 242.22 378.69 242.22C377.722 242.243 376.771 242.481 375.906 242.917C375.042 243.353 374.285 243.975 373.69 244.74C373.371 243.927 372.795 243.24 372.049 242.785C371.304 242.33 370.429 242.131 369.56 242.22C368.766 242.212 367.979 242.373 367.251 242.692C366.524 243.011 365.872 243.48 365.34 244.07L365.62 242.36H361.52L359.17 255.76H363.27L364.57 248.36V248.48C364.642 247.736 364.99 247.045 365.545 246.544C366.1 246.042 366.822 245.766 367.57 245.77C369.13 245.77 369.94 246.77 369.65 248.48L368.36 255.76H372.44L373.73 248.48C373.803 247.727 374.158 247.029 374.724 246.527C375.289 246.024 376.024 245.754 376.78 245.77C378.34 245.77 379.16 246.77 378.87 248.48L377.65 255.76ZM356.32 251.32H352C351.758 251.724 351.412 252.056 351 252.283C350.587 252.509 350.121 252.622 349.65 252.61C348.3 252.61 347.37 251.77 347.56 250H356.85C356.97 249.59 357.06 249.2 357.14 248.82C357.86 244.76 355.53 242.17 351.62 242.17C349.673 242.136 347.782 242.819 346.307 244.09C344.831 245.361 343.875 247.13 343.62 249.06C342.85 253.31 345.23 255.95 349.16 255.95C350.678 255.96 352.165 255.528 353.44 254.705C354.716 253.883 355.723 252.707 356.34 251.32H356.32ZM350.94 245.46C351.256 245.431 351.574 245.477 351.868 245.596C352.163 245.714 352.425 245.9 352.633 246.139C352.841 246.379 352.989 246.664 353.065 246.972C353.141 247.28 353.143 247.601 353.07 247.91H347.91C348.066 247.226 348.446 246.613 348.989 246.169C349.533 245.726 350.209 245.476 350.91 245.46H350.94ZM328.08 242.36L330.46 255.76H335.55L342.68 242.36H338.28L333.68 251.92L332.45 242.36H328.08ZM319.9 249.06C319.803 249.942 319.394 250.76 318.747 251.367C318.1 251.974 317.257 252.33 316.37 252.37C314.84 252.37 313.66 251.17 314.04 249.04C314.133 248.162 314.539 247.346 315.183 246.742C315.828 246.138 316.668 245.786 317.55 245.75C319.11 245.75 320.28 246.92 319.9 249.06ZM309.9 249.06C309.15 253.28 311.29 255.97 314.55 255.97C315.415 255.983 316.272 255.802 317.057 255.44C317.843 255.078 318.538 254.545 319.09 253.88L318.73 255.78H322.83L325.21 242.38H321.11L320.77 244.28C320.423 243.594 319.878 243.029 319.206 242.656C318.534 242.283 317.766 242.121 317 242.19C313.71 242.19 310.64 244.83 309.9 249.06ZM286.45 255.78H291.45L296.18 244.71L296.92 255.78H301.92L309.29 238.93H304.87L300.29 251.12L299.57 238.93H295L289.84 251.19L289.58 238.93H285.18L286.45 255.78ZM264.78 255.68L261.13 261.94H262.91L274.07 242.67H272.31L266 253.74L263.53 242.63H261.66L264.78 255.68ZM256.14 249.2C255.972 250.635 255.292 251.961 254.225 252.935C253.157 253.908 251.774 254.464 250.33 254.5C247.64 254.5 245.79 252.5 246.39 249.22C246.58 247.796 247.268 246.485 248.331 245.519C249.394 244.553 250.765 243.993 252.2 243.94C254.96 243.94 256.71 245.86 256.14 249.2ZM247.04 245.58L248.36 238.02H246.71L243.56 255.78H245.22L245.72 252.9C246.23 254.6 247.79 255.97 250.38 255.97C253.98 255.97 257.12 253.3 257.84 249.2C258.56 245.1 256.38 242.48 252.75 242.48C251.615 242.478 250.498 242.761 249.5 243.303C248.503 243.844 247.657 244.627 247.04 245.58ZM229.71 249.22C229.538 250.65 228.857 251.97 227.792 252.939C226.728 253.908 225.35 254.462 223.91 254.5C221.17 254.5 219.39 252.5 219.99 249.2C220.151 247.769 220.827 246.446 221.893 245.477C222.958 244.509 224.34 243.963 225.78 243.94C228.47 243.94 230.31 245.94 229.71 249.22ZM218.27 249.22C217.55 253.32 219.75 255.99 223.35 255.99C224.493 255.999 225.619 255.718 226.623 255.172C227.628 254.626 228.476 253.834 229.09 252.87L228.56 255.8H230.24L233.37 238H231.69L230.37 245.48C230.019 244.549 229.379 243.756 228.544 243.216C227.709 242.676 226.723 242.418 225.73 242.48C223.884 242.514 222.111 243.211 220.737 244.446C219.364 245.68 218.481 247.368 218.25 249.2L218.27 249.22ZM214.14 251.62H212.34C211.938 252.528 211.272 253.293 210.428 253.816C209.584 254.339 208.602 254.595 207.61 254.55C205.17 254.55 203.29 252.92 203.73 249.82H214.6C214.72 249.37 214.79 249.03 214.89 248.53C215.46 245.22 213.59 242.48 209.75 242.48C207.875 242.48 206.065 243.165 204.66 244.407C203.255 245.648 202.352 247.36 202.12 249.22C201.37 253.38 203.65 255.97 207.37 255.97C208.805 256.011 210.22 255.617 211.427 254.841C212.635 254.065 213.581 252.942 214.14 251.62ZM209.44 243.92C211.86 243.92 213.78 245.46 213.16 248.58H204C204.217 247.283 204.884 246.105 205.885 245.252C206.886 244.4 208.156 243.928 209.47 243.92H209.44ZM193.56 255.78L194.92 248.02C195.077 246.904 195.649 245.889 196.522 245.176C197.396 244.464 198.506 244.109 199.63 244.18H200.11L200.42 242.43C199.404 242.401 198.4 242.653 197.518 243.158C196.636 243.662 195.91 244.4 195.42 245.29L195.88 242.67H194.2L191.9 255.78H193.56ZM188.16 251.62H186.36C185.951 252.522 185.282 253.282 184.44 253.804C183.598 254.325 182.62 254.585 181.63 254.55C179.18 254.55 177.31 252.92 177.74 249.82H188.61C188.73 249.37 188.81 249.03 188.9 248.53C189.48 245.22 187.61 242.48 183.77 242.48C181.895 242.482 180.085 243.168 178.678 244.408C177.272 245.649 176.366 247.36 176.13 249.22C175.39 253.38 177.67 255.97 181.39 255.97C182.825 256.011 184.24 255.617 185.447 254.841C186.655 254.065 187.601 252.942 188.16 251.62ZM183.45 243.92C185.88 243.92 187.8 245.46 187.17 248.58H178C178.217 247.283 178.884 246.105 179.885 245.252C180.886 244.4 182.156 243.928 183.47 243.92H183.45ZM157.5 255.74H159.18L164.78 244.74L166.46 255.74H168.14L174.54 242.63H172.89L167.66 254L166.05 242.65H164.34L158.7 254L157.43 242.67H155.7L157.5 255.74ZM140.34 250.48C140.34 246.98 142.7 243.88 146.2 243.88C146.735 243.845 147.27 243.924 147.772 244.112C148.273 244.301 148.728 244.594 149.107 244.973C149.486 245.352 149.779 245.807 149.968 246.308C150.156 246.81 150.236 247.346 150.2 247.88C150.2 251.39 147.78 254.48 144.27 254.48C143.735 254.52 143.197 254.445 142.693 254.258C142.189 254.071 141.732 253.778 141.352 253.398C140.972 253.018 140.679 252.561 140.492 252.057C140.306 251.554 140.23 251.016 140.27 250.48H140.34ZM152 247.82C152 244.53 149.77 242.44 146.48 242.44C145.429 242.442 144.389 242.655 143.422 243.067C142.456 243.479 141.581 244.082 140.852 244.838C140.122 245.595 139.552 246.49 139.176 247.471C138.799 248.453 138.624 249.5 138.66 250.55C138.62 251.277 138.735 252.003 138.998 252.682C139.261 253.361 139.666 253.975 140.186 254.484C140.705 254.994 141.328 255.386 142.012 255.636C142.695 255.885 143.424 255.985 144.15 255.93C145.202 255.926 146.243 255.712 147.211 255.3C148.178 254.888 149.054 254.286 149.786 253.531C150.517 252.775 151.09 251.88 151.47 250.899C151.851 249.918 152.031 248.871 152 247.82ZM136.5 243.82C136.98 241.06 135.58 239 131.67 239H126.61L123.66 255.78H125.34L126.58 248.62H129.97C133.97 248.62 135.97 246.54 136.5 243.82ZM126.85 247.23L128.05 240.34H131.43C134.26 240.34 135.15 241.66 134.77 243.82C134.39 245.98 133.06 247.23 130.23 247.23H126.85Z" fill="#787884"/>
</svg>
